<?xml version="1.0" encoding="UTF-8"?>
<svg id="_레이어_1" data-name="레이어 1" xmlns="http://www.w3.org/2000/svg" xmlns:xlink="http://www.w3.org/1999/xlink" viewBox="0 0 928.5 260">
  <defs>
    <style>
      .cls-1 {
        fill: #fff;
      }

      .cls-2 {
        fill: #ff99ba;
      }

      .cls-3 {
        fill: url(#_무제_그라디언트_39);
      }

      .cls-4 {
        fill: #d3766a;
      }

      .cls-5 {
        fill: #37474f;
      }

      .cls-6 {
        fill: #ff9cbd;
      }

      .cls-7 {
        fill: #455a64;
      }

      .cls-8 {
        opacity: .2;
      }

      .cls-8, .cls-9 {
        isolation: isolate;
      }

      .cls-10 {
        clip-path: url(#clippath);
      }

      .cls-11 {
        fill: #ebebeb;
      }

      .cls-12 {
        fill: #ffc727;
      }

      .cls-13 {
        fill: none;
      }

      .cls-14 {
        fill: #f7a9a0;
      }

      .cls-9 {
        opacity: .1;
      }

      .cls-15 {
        fill: #263238;
      }
    </style>
    <linearGradient id="_무제_그라디언트_39" data-name="무제 그라디언트 39" x1=".41" y1="130" x2="928.09" y2="130" gradientUnits="userSpaceOnUse">
      <stop offset="0" stop-color="#fdf8e0"/>
      <stop offset="1" stop-color="#f7b103"/>
    </linearGradient>
    <clipPath id="clippath">
      <rect class="cls-13" x="35.91" y="12.5" width="371.11" height="249.06" rx="14.72" ry="14.72"/>
    </clipPath>
  </defs>
  <rect class="cls-3" x=".41" y="-.06" width="927.68" height="260.12" rx="14.72" ry="14.72"/>
  <g class="cls-10">
    <g>
      <g id="freepik--Lines--inject-18">
        <g>
          <path class="cls-15" d="m335.04,198.43c20.35-.58,40.83-.58,61.18,0-20.36.58-40.84.58-61.18,0h0Z"/>
          <path class="cls-15" d="m188.27,158.27c15.17-.58,30.47-.58,45.65,0-15.18.58-30.47.58-45.65,0h0Z"/>
          <path class="cls-15" d="m247.19,80.4c12.57-.59,25.25-.59,37.81,0-12.57.59-25.25.59-37.81,0h0Z"/>
          <path class="cls-15" d="m231.54,84.74c10.98-.59,22.06-.59,33.04,0-10.98.59-22.06.59-33.04,0h0Z"/>
          <path class="cls-15" d="m366.24,190.58c10.98-.59,22.06-.59,33.04,0-10.98.59-22.06.59-33.04,0h0Z"/>
          <path class="cls-15" d="m139.89,149.84c29.79-.58,62.89-.57,92.69,0-29.81.57-62.91.58-92.69,0h0Z"/>
        </g>
      </g>
      <g id="freepik--character-1--inject-18">
        <g>
          <g>
            <path class="cls-4" d="m286.37,85.42c-23.97,6.09-45.01,15.42-47.41,22.6-3.22,9.66.35,33.46,3.34,45.65.88,3.58,28.6-3.83,27.66-7.65-1.13-4.63-7.36-28.46-7.33-28.94.07-1.02,23.77-16.59,29.21-20.69,9.07-6.83,5.17-13.66-5.47-10.95h0Z"/>
            <path class="cls-4" d="m291.84,96.38c-5.44,4.09-29.14,19.67-29.21,20.68-.02.51,6.2,24.32,7.34,28.94.93,3.83-26.79,11.24-27.66,7.66-1.17-4.78-2.44-11.33-3.35-18.11-1.4-10.54-1.96-21.66,0-27.54,2.4-7.18,23.43-16.5,47.41-22.6.32-.08.64-.16.94-.22,9.93-2.07,13.33,4.55,4.53,11.17h0Z"/>
            <g>
              <path class="cls-4" d="m247.73,171.71c-3.36-5.13-6.12-18.3-5.56-21.73.56-3.43,22.8-8.88,25.59-6.65,2.8,2.22,12.76,20.37,12.16,26.6-.6,6.22-28.71,7.11-32.19,1.8h0Z"/>
              <g>
                <path class="cls-4" d="m278.91,160.16c-2.93-1.4-2.91,2.85-2.91,2.85,0,0-1.51-6.12-5.08-6.4-3.45-.26-3.24,4.88-3.23,5.25-.08-.32-1.61-5.91-5.24-5.82-3.76.1-2.68,5.22-2.61,5.55-.17-.28-2.53-3.95-5.27-3.26-4.71,1.19,1.06,10.74-.03,14.52,0,0-6.61-1.13-6.81-1.13,0,0,5.31,9.2,10.47,10.4,2.73.64,3.85-1.79,3.85-1.79,0,0,1.39,3.15,4.24,3.17,1.46,0,2.78-2.34,2.78-2.34,0,0,1.21,2.48,3.76,2.34,2.03-.1,3.03-2.43,3.03-2.43,0,0,2.27,1.84,4.3,1.06,4.11-1.57,5-18.96-1.26-21.98h0Z"/>
                <g>
                  <path class="cls-15" d="m276.09,180.73c0,.06.07.08.09.03,1.69-5.65,1.81-12.37-.15-17.98-.06-.18-.39-.16-.36.06.92,6.16,1.24,11.69.42,17.9h0Z"/>
                  <path class="cls-15" d="m269.12,181.26c0,.07.1.09.12.02,1.71-5.83,1.64-13.41-1.38-19.6-.1-.21-.41-.3-.31-.04,1.69,4.27,2.34,14.06,1.57,19.63h0Z"/>
                  <path class="cls-15" d="m259.49,161.22c2.67,6.05,3.12,12.34,2.67,18.87,0,.09.11.09.14.02,1.1-3.14.95-7.33.57-10.58-.37-3.12-1.33-5.86-3.15-8.4-.07-.1-.27-.03-.21.1h0Z"/>
                </g>
                <path class="cls-15" d="m276.01,163.01c-.4-1.15-.9-2.27-1.5-3.31-.6-1.03-1.35-2.03-2.34-2.56-.49-.26-1.04-.36-1.55-.23-.52.14-1.04.38-1.42.76-.78.73-1.06,1.94-1.01,3l.14,2.66-1.05-2.45c-.46-1.07-1.1-2.14-1.88-2.99-.78-.85-1.78-1.5-2.82-1.47-1.1,0-1.99.61-2.27,1.66-.31,1.02-.21,2.27.05,3.37l.73,3.07-1.69-2.65c-.45-.71-1.04-1.43-1.67-2.01-.64-.58-1.38-1.05-2.14-1.16-.75-.1-1.57.2-1.95.81-.42.64-.49,1.56-.47,2.44.06,1.8.51,3.59.86,5.4.18.91.37,1.81.51,2.73.12.91.26,1.87,0,2.77.17-.92-.07-1.83-.25-2.72-.21-.9-.46-1.78-.71-2.67-.51-1.78-.99-3.57-1.17-5.47-.05-.94-.08-1.97.47-2.94.57-1,1.77-1.46,2.83-1.31,1.09.14,1.96.73,2.69,1.37.73.66,1.34,1.38,1.89,2.21l-.96.42c-.32-1.3-.47-2.61-.1-3.98.19-.68.62-1.36,1.25-1.79.64-.44,1.35-.6,2.07-.61,1.49,0,2.73.9,3.57,1.86.87,1,1.52,2.1,2.01,3.32l-.92.21c-.03-1.35.39-2.72,1.44-3.64.52-.45,1.15-.71,1.8-.85.68-.14,1.4.03,1.97.37,1.14.71,1.79,1.83,2.34,2.92.54,1.11.94,2.27,1.21,3.46h.03Z"/>
              </g>
              <g>
                <path class="cls-4" d="m270,146.11s21.66,14.4,11.88,20.1c-2.9,1.7-16.85,5.19-17.61,2.41-.98-3.6,4.58-6.15,8.31-7.2,0,0-8.05-3.86-7.04-10.27.64-4.02,4.46-5.05,4.46-5.05h0Z"/>
                <path class="cls-15" d="m282.67,165.69c-1.03.85-2.26,1.39-3.48,1.9-1.23.51-2.5.89-3.78,1.23-2.58.64-5.15,1.19-7.85,1.39-.68.03-1.37.04-2.11-.12-.37-.09-.77-.24-1.1-.5-.17-.13-.31-.26-.46-.48-.12-.2-.22-.4-.27-.6-.24-.81-.06-1.62.24-2.31.33-.68.8-1.24,1.32-1.73,1.04-.97,2.25-1.63,3.49-2.17,1.24-.56,2.52-.95,3.8-1.31l-.06.86c-.93-.48-1.76-1.04-2.55-1.66-.79-.63-1.53-1.32-2.18-2.1s-1.19-1.65-1.57-2.58c-.39-.92-.61-1.93-.62-2.91.15.98.46,1.92.92,2.78.45.86,1.05,1.63,1.72,2.33.66.71,1.4,1.33,2.2,1.88.78.55,1.64,1.05,2.48,1.43l1.08.48-1.14.37c-1.23.41-2.47.81-3.62,1.38-1.15.55-2.28,1.17-3.16,2.02-.86.82-1.53,1.96-1.26,2.94.17.88,1.61,1,2.84.96,1.27-.03,2.57-.21,3.87-.38s2.59-.37,3.87-.63c2.54-.57,5.14-1.12,7.42-2.46h-.02Z"/>
              </g>
            </g>
            <path class="cls-8" d="m291.84,96.38c-5.44,4.09-29.14,19.67-29.21,20.68-.02.51,6.2,24.32,7.34,28.94,0,.03.02.05.02.09l.02.02s20.38,13.56,12.66,19.58c1.73,6.27.43,15.33-2.49,16.44-2.04.78-4.3-1.05-4.3-1.05,0,0-1.01,2.33-3.03,2.43-2.16.12-3.36-1.67-3.67-2.2-.03,0-.05-.03-.05-.05v-.03s-.03-.06-.03-.06c0,0-1.32,2.34-2.78,2.34-2.86-.03-4.24-3.17-4.24-3.17,0,0-1.13,2.41-3.86,1.78-5.01-1.17-10.14-9.83-10.46-10.37,0-.02-.02-.03-.02-.03-2.64-4.02-4.91-13.01-5.5-18.34-1.14-4.75-2.38-11.16-3.27-17.81l48.35-50.34c9.93-2.07,13.33,4.55,4.53,11.17h0Z"/>
          </g>
          <g>
            <g>
              <g>
                <g>
                  <path class="cls-4" d="m89.66,264.39c-.13-2.35,16.83-64,18.96-65.93.8-.75,51.15,14.5,51.15,14.5l-9.98,37.89-31.59-8.17s-16.58,20.13-19.15,22.01c-2.56,1.86-9.28,2.07-9.4-.29h0Z"/>
                  <path class="cls-11" d="m89.67,264.39c-.14-2.35,16.82-64.01,18.95-65.93.38-.36,16.18,4.16,25.63,6.89l-10.31,38.8-5.73-1.48s-16.57,20.12-19.15,22c-2.56,1.87-9.29,2.07-9.4-.29h0Z"/>
                </g>
                <g>
                  <path class="cls-12" d="m89.63,264.66c-.13-2.34,16.5-64.6,18.61-66.53.8-.74,10.13,1.86,20.37,5.58l-10.29,39.52s-16.77,19.85-19.32,21.72c-2.55,1.86-9.24,2.07-9.37-.28h0Z"/>
                  <g>
                    <g>
                      <path class="cls-15" d="m92.33,264.46c3.08-10.22,14.54-51.73,16.8-62.07.02-.09-.03-.1-.06-.02-3.28,10.07-14.39,51.67-16.91,62.04-.05.22.1.26.17.04h0Z"/>
                      <path class="cls-15" d="m102.29,261.6c.77-2.41.27-5.12-.82-6.85-1.05-1.66-2.71-3.29-4.86-3.81-.06-.02-.1.1-.03.12,3.87,1.69,6.4,6.33,5.59,10.49-.02.09.1.12.13.03h0Z"/>
                      <path class="cls-15" d="m116.4,246.17c1.19-4.1,1.05-9.28-1.62-12.76-.1-.14-.3.02-.26.16.9,4.25,1.35,8.18,1.36,12.54,0,.31.44.37.52.07h0Z"/>
                      <path class="cls-15" d="m114.29,249c1.19-4.1,1.05-9.28-1.62-12.76-.1-.13-.3.02-.26.16.9,4.25,1.35,8.18,1.36,12.54,0,.31.44.37.52.07h0Z"/>
                      <path class="cls-15" d="m112.17,251.84c1.19-4.1,1.05-9.28-1.62-12.76-.1-.14-.3.02-.26.16.9,4.25,1.35,8.18,1.36,12.54,0,.31.44.37.52.07h0Z"/>
                      <path class="cls-15" d="m110.06,254.68c1.19-4.1,1.05-9.28-1.62-12.76-.1-.14-.3.02-.26.16.9,4.25,1.35,8.18,1.36,12.54,0,.3.44.37.52.07h0Z"/>
                      <path class="cls-15" d="m118.17,207.69c1.25-4.63-5.93-6.59-7.19-1.95-1.25,4.63,5.93,6.59,7.19,1.95Z"/>
                    </g>
                    <path class="cls-15" d="m126.17,253.65c2.31-1.61,1.33-4.71-.1-6.48-1.85-2.27-4.51-4.34-7.27-5.69-.38-.21-.78-.38-1.17-.55-.17-.06-.35-.14-.51-.21-.02,0-.02,0-.02,0l-.14-.03c-.15-.05-.28-.1-.42-.16-.08-.03-.14.03-.15.1-.2,0-.43.1-.51.31-.05.09-.07.2-.03.33.33.96.65,1.96.98,2.96.04.17.1.34.16.51.79,2.44,1.68,4.88,3.22,6.91,1.32,1.75,3.76,3.5,5.93,1.99h.02Zm-7.35-7.46c-.31-.82-.61-1.66-.91-2.47-.25-.71-.51-1.39-.78-2.08-.03-.1-.08-.2-.11-.28-.03-.09-.07-.18-.1-.26.08.05.15.1.23.15.05.03.06.04.03.02.49.34.96.67,1.45.99,1.3.89,2.58,1.8,3.77,2.84.82.71,1.66,1.45,2.36,2.26,1.11,1.27,3.43,6.27-1.16,5.44-2.52-.45-4.01-4.57-4.77-6.59h0Z"/>
                    <path class="cls-15" d="m116.55,241.47c.03.07.1.1.17.06.1-.06.19-.12.27-.19.06,0,.1-.04.12-.07.02,0,.03,0,.02-.03.19-.1.33-.21.49-.33.59-.4,1.16-.85,1.68-1.33,2.14-1.86,4.03-4.24,5.21-6.63,1.02-2.05,1.27-5.27-1.32-6.34-.1-.04-.19-.06-.29-.09-2.33-.74-4.22,1.41-5.09,3.34-.9,2.02-1.26,4.24-1.51,6.47-.16,1.53-.26,3.09-.43,4.59v.03c-.05.38.34.58.65.51h.02Zm1.12-5.95c.3-2.15.84-6.5,3.2-7.5.73-.31,1.29-.41,1.73-.35,2.18.24,1.25,4.16.58,5.39-.51.96-1.16,1.86-1.8,2.74-.49.67-1.01,1.3-1.56,1.92-.88,1.02-1.8,1.99-2.7,2.99h-.02c-.06.07-.11.14-.17.2.03-.08.03-.16.03-.24.04-.21.08-.41.1-.62.23-1.51.37-3.02.58-4.52h0Z"/>
                  </g>
                </g>
              </g>
              <g>
                <path class="cls-5" d="m299.89,148s.21,31.51-5.96,38.32c0,0-38.79,72.15-60.71,76.42-18.57,3.61-104.6-15.77-104.6-15.77l10.43-40.79s34.57,3.12,53.65,4.84c12.33,1.11,26.07,4.13,26.47,3.55,10.33-15.33,25.21-32.52,24.64-34.19-.71-2.04-.45-9.18.54-13.02,1.61-6.28,5.27-19.35,5.27-19.35h50.27Z"/>
                <g>
                  <path class="cls-12" d="m258.37,171.99c0-2.73,4.16-17.05,6.21-23.99h-.93c-2.11,7.07-6.19,21.15-6.19,23.99,0,3.4.82,8.54,1,9.59-12.97,18.18-32.51,45.31-34.2,46.89-.78,0-5.54-.71-10.54-1.47-8.08-1.25-19.15-2.95-24.4-3.19-6.71-.31-38.73-3.15-53.65-4.47l-.23.88c14.88,1.33,47.1,4.17,53.84,4.49,5.2.24,16.24,1.94,24.3,3.19,6.75,1.04,9.72,1.47,10.68,1.47.15,0,.24,0,.31-.03,1.02-.31,22.2-29.82,34.73-47.38l.1-.16-.03-.19c0-.05-1.02-6-1.02-9.64h0Z"/>
                  <path class="cls-12" d="m262.32,172.1c0-2.77,3.88-17.34,5.72-24.1h-.95c-1.86,6.89-5.67,21.21-5.67,24.1,0,3.41.88,8.66,1.05,9.73-13.93,19.56-34.92,48.76-36.66,50.43-.8.02-5.54-.71-10.54-1.48-8.08-1.24-19.15-2.94-24.39-3.18-7.1-.33-42.59-3.49-56.11-4.71l-.24.9c13.41,1.2,49.15,4.37,56.3,4.71,5.19.24,16.23,1.94,24.29,3.18,6.75,1.04,9.72,1.48,10.68,1.48.15,0,.24,0,.31-.03,1.03-.31,23.75-32.03,37.2-50.93l.1-.16-.03-.18c0-.06-1.07-6.13-1.07-9.77h0Z"/>
                </g>
                <path class="cls-8" d="m293.93,186.33s-11.61,21.59-25.71,41.84c-4.92-13.61-15.08-41.99-22.69-65.31,1.76-6.55,4.08-14.86,4.08-14.86h50.28s.21,31.51-5.96,38.33h0Z"/>
              </g>
            </g>
            <g>
              <path class="cls-5" d="m384.48,342.51l-41.92,14.12s-26.91-58.84-32.85-90.9c-1.76-9.47-35.62-60.4-49.05-75.03-6.09-6.64-9.21-13.38-10.47-19.83-1.13-5.86-.58-22.89-.58-22.89l56.49.03.24,17.63c1.93,3.1,29.14,43.2,44.67,79.9,4.93,11.67,33.46,96.97,33.46,96.97h0Z"/>
              <path class="cls-5" d="m296.18,157.26c3.76,2.33,7.15,5.12,10.15,8.37-3.76-2.32-7.15-5.12-10.15-8.37h0Z"/>
              <g>
                <path class="cls-12" d="m358.51,351.25l-.86.3c-5.42-12.51-21.77-50.57-25.54-63.81-1.09-3.81-2.45-9.25-3.76-14.51-2.05-8.25-4.18-16.78-5.13-18.42-1.13-1.96-9.79-15.53-18.96-29.9-13.65-21.38-22.6-35.44-22.87-36.16-.11-.31-1.36-1.95-2.68-3.69-3.93-5.17-10.49-13.8-11.11-17.9-1.05-7.05-1.08-15.17-1.01-19.19h.91c-.06,3.98-.04,12.05,1,19.05.58,3.86,7.31,12.72,10.93,17.49,1.79,2.34,2.66,3.49,2.81,3.92.39.9,12.28,19.53,22.77,35.97,9.18,14.38,17.85,27.96,18.99,29.93,1.01,1.75,3.06,9.96,5.23,18.65,1.31,5.25,2.67,10.69,3.75,14.48,3.77,13.22,20.15,51.34,25.54,63.76h0Z"/>
                <path class="cls-12" d="m354.56,352.57l-.85.29c-5.34-12.32-21.83-50.67-25.63-63.99-1.09-3.81-2.45-9.25-3.76-14.52-2.05-8.24-4.18-16.76-5.13-18.4-1.13-1.96-9.79-15.53-18.96-29.91-13.65-21.38-22.6-35.44-22.87-36.16-.11-.31-1.35-1.94-2.68-3.68-3.93-5.17-10.49-13.81-11.11-17.91-1.17-7.79-1.07-16.91-.99-20.33h.92c-.09,3.36-.18,12.44.98,20.19.58,3.86,7.31,12.73,10.93,17.49,1.79,2.35,2.66,3.5,2.81,3.92.38.9,12.28,19.53,22.77,35.97,9.18,14.39,17.85,27.96,18.99,29.93,1.01,1.76,3.05,9.96,5.22,18.64,1.31,5.26,2.67,10.7,3.76,14.5,3.79,13.28,20.3,51.71,25.62,63.94v.02Z"/>
              </g>
            </g>
          </g>
          <g>
            <path class="cls-12" d="m242.04,158.92c.12.21,64,4.57,64.75,4,1.05-.8,1.99-56.75-6.01-73.56-2-4.21-10.74-8.19-18.35-1.67-22.12,18.93-40.81,70.48-40.38,71.23Z"/>
            <g>
              <g>
                <path class="cls-4" d="m297.02,97.87c-3.24.4-9.42-4.06-11.17-8.83-.12-.33.82-3.44,1.79-7.29.58-2.34,1.16-4.94,1.53-7.36.07-.5,14.63,5.96,14.63,5.96,0,0-2.25,4.85-2.86,9.07-.04.36-.06.69-.04,1.01v.17c.03,1.93-.39,6.83-3.86,7.26h0Z"/>
                <path class="cls-15" d="m303.78,80.36s-2.25,4.85-2.86,9.07c-.03.2-.03.39-.04.58-7.04-.43-10.68-6.54-12.5-11.56.3-1.36.57-2.75.77-4.06.08-.51,14.63,5.96,14.63,5.96h0Z"/>
              </g>
              <g>
                <path class="cls-4" d="m287.92,53.75c-2.49,5.2-2.01,21.39,1.33,25.5,4.85,5.95,13.98,7.83,19.34,1.73,5.19-5.92,4.18-27.01.34-30.86-5.66-5.67-17.32-4.05-21.01,3.63h0Z"/>
                <g>
                  <g>
                    <path class="cls-15" d="m301.4,65.9s-.08.06-.08.1c.11,1.09.05,2.35-.91,2.78-.03.02-.03.07.02.06,1.19-.25,1.25-1.93.98-2.94h0Z"/>
                    <path class="cls-15" d="m300.35,64.83c-1.76,0-1.66,3.51-.03,3.52,1.6,0,1.5-3.51.03-3.52Z"/>
                  </g>
                  <g>
                    <path class="cls-15" d="m307.84,65.49s.09.05.09.1c0,1.09.17,2.34,1.18,2.68.03,0,.03.06,0,.06-1.21-.13-1.43-1.8-1.25-2.83h0Z"/>
                    <path class="cls-15" d="m308.78,64.32c1.75-.18,1.99,3.33.37,3.5-1.59.17-1.84-3.35-.37-3.5Z"/>
                  </g>
                  <path class="cls-15" d="m299.28,63.13c.49-.08.92-.23,1.4-.36.54-.14.98-.2,1.36-.64.21-.24.17-.69-.03-.91-.48-.51-1.19-.51-1.84-.36-.71.16-1.21.46-1.66,1.03-.44.55.13,1.33.78,1.23Z"/>
                  <path class="cls-15" d="m309.97,62.33c-.49-.06-.93-.21-1.41-.32-.54-.13-.98-.17-1.38-.6-.21-.23-.18-.68.02-.91.47-.52,1.17-.53,1.83-.4.71.14,1.23.43,1.69.98.44.54-.1,1.33-.75,1.25h0Z"/>
                  <path class="cls-15" d="m300.69,76.06c.27.24.54.59.93.61.38.02.82-.17,1.17-.31.03-.02.07.02.05.05-.27.43-.86.71-1.37.64-.5-.07-.75-.49-.89-.94-.02-.06.06-.09.1-.05Z"/>
                  <path class="cls-15" d="m301.74,72.75c.64.93,1.55,1.42,2.53,1.58.44.08.89.08,1.33.03.09,0,.17-.02.25-.03.08,0,.15-.03.24-.04.13-.03.19-.13.21-.25h0c0-.05,0-.08-.02-.12h0v-.1c0-.84-.12-2.12-.12-2.12.31.15,1.9.8,1.86.37-.32-3.63-.69-7.66-1.77-11.2-.03-.12-.21-.09-.2.03.17,3.49.96,6.94,1.19,10.45-.51-.17-1.33-.51-1.77-.48-.12.03.27,2.46.24,2.84v.04c-1.4.22-2.48-.17-3.88-1.08-.09-.06-.17.02-.1.1h0Z"/>
                  <g>
                    <path class="cls-15" d="m305.1,73.95s-.71,1.03-1.73,1.42c-.37.15-.78.21-1.2.11-.88-.2-.92-1-.78-1.69.11-.57.36-1.05.36-1.05,0,0,1.31,1.15,3.35,1.22h0Z"/>
                    <path class="cls-2" d="m303.37,75.37c-.37.15-.78.21-1.2.11-.88-.2-.92-1-.78-1.69.93.07,1.88.67,1.99,1.58Z"/>
                  </g>
                </g>
                <path class="cls-15" d="m286.57,68.79c2.34.78,4.35-1.94,5.02-3.39.68-1.45.02-9.7,1.28-11.85s3.78-3.26,5.7-2.59,4.3,3.36,5.75,3.29,1.94-3.15,2.95-3.1c2.2.1,4.26,5.66,4.53,8.09,0,0,.58-10.34-9.93-11.8-10.24-1.43-13.9,5.47-14.95,8.52-2.01,5.86-.36,12.83-.36,12.83h0Z"/>
                <g>
                  <path class="cls-12" d="m309.35,50.1c-1.63-.05-10.23,2-13.77,4.48-3.54,2.47-9.28,9.5-9.58,9.87-.3.37-5.03-13.52,6-18.53,12.01-5.45,17.35,4.17,17.35,4.17h0Z"/>
                  <g>
                    <path class="cls-12" d="m286.55,63.73s5.55-11.67,9.32-14.86c3.77-3.18,13.01-6.46,19.43-5.09,5,1.06-4.97,9.29-4.97,9.29,0,0-.65-1.57-2.25-1.85-3.1-.54-8.36,1.46-11.24,3.15-3.63,2.12-10.3,9.35-10.3,9.35h0Z"/>
                    <path class="cls-8" d="m286.55,63.73s5.55-11.67,9.32-14.86c3.77-3.18,13.01-6.46,19.43-5.09,5,1.06-4.97,9.29-4.97,9.29,0,0-.65-1.57-2.25-1.85-3.1-.54-8.36,1.46-11.24,3.15-3.63,2.12-10.3,9.35-10.3,9.35h0Z"/>
                  </g>
                </g>
                <g>
                  <path class="cls-4" d="m289.33,67.1s-2.9-5.58-5.39-4.61-.78,8.73,1.81,10.1,3.9-1,3.9-1c0,0-.33-4.49-.33-4.49Z"/>
                  <path class="cls-15" d="m284.5,64.7s-.06.05-.03.07c1.8,1.03,2.58,2.93,3.04,4.85-.47-.78-1.19-1.27-2.23-.71-.05.03-.02.11.03.1.8-.06,1.35.15,1.8.84.31.5.5,1.09.7,1.64.07.18.38.13.35-.07,0-.02,0-.03,0-.04.37-2.42-1.07-6.08-3.65-6.67h0Z"/>
                </g>
              </g>
            </g>
            <g>
              <path class="cls-4" d="m284.58,90.24c3.53,1.49,4.56,7.04,3.15,13.47-1.67,7.65-11,15.9-15.4,13.88-6.01-2.76-.9-14.36,2.22-20.05,2.99-5.45,7.54-8.36,10.02-7.31h0Z"/>
              <g>
                <path class="cls-4" d="m278.97,100.08c2.95,23.6,10.66,45.72,17.33,48.11,9.59,3.44,29.01,3.31,41.38,1.22,3.63-.62-1.73-28.8-5.61-28.15-4.7.79-24.54,4.05-25.02,3.98-1.01-.14-14.3-23.07-17.43-28.96-5.74-10.81-11.88-5.97-10.66,3.79h0Z"/>
                <g>
                  <path class="cls-4" d="m368.4,117.52c1.48,2.68-.7,4.96-.7,4.96,0,0,2.16,1.12,2.9,3.35.85,2.54-2.77,4.98-2.77,4.98,0,0,1.96,1.59,2.5,4.02.57,2.52-2.74,5.51-2.74,5.51,0,0,1.01,2.48-.03,4.91-1.77,4.17-8.58,5.25-12.91,5.98-4.33.73-17.29-1.25-19.8-1.38l-4.93-27.75s18.47-8.8,23.69-8.94c4.39-.11,13.12,1.36,14.79,4.36h0Z"/>
                  <g>
                    <path class="cls-15" d="m367.43,122.08c-4.7-.99-9.44-.55-14.19-.37-.1,0-.1.17,0,.17,4.72-.23,9.44.48,14.16.44.13,0,.15-.2.02-.23h0Z"/>
                    <path class="cls-15" d="m367.68,130.47c-1.07-.19-2.2-.03-3.28.06-1.16.1-2.31.23-3.46.36-2.31.28-4.61.61-6.89,1.01-.1.02-.1.17,0,.17,2.3-.27,4.6-.51,6.91-.69,1.16-.09,2.31-.17,3.47-.24,1.07-.07,2.21-.04,3.26-.35.16-.04.15-.29-.02-.31h0Z"/>
                    <path class="cls-15" d="m367.5,140.34c-.92-.21-2.02.08-2.95.21-1.05.15-2.1.29-3.15.43-2.1.27-4.2.55-6.31.75-.1,0-.1.17,0,.17,2.14-.19,4.29-.36,6.43-.57,1.05-.1,2.1-.22,3.15-.33.89-.1,2.02-.12,2.82-.55.04-.03.03-.1-.02-.1h0Z"/>
                  </g>
                </g>
              </g>
              <path class="cls-15" d="m279.49,107.12c.14.32.28.65.42.98-.3-1.67-.53-3.35-.69-5.04,0-.03.05-.04.06,0,.46,1.87.9,3.75,1.25,5.65.17.9.67,4.22.79,5.32.02.12-.22.25-.24.14-.2-.96-.85-4.2-1-5.04-.12-.24-.24-.46-.35-.71-.17-.4-.32-.79-.46-1.2-.27-.81-.51-1.64-.76-2.46,0,0,.02-.02.02,0,.28.8.61,1.59.95,2.37v-.02Z"/>
            </g>
          </g>
        </g>
      </g>
    </g>
    <g id="freepik--character-2--inject-18">
      <g>
        <g>
          <path class="cls-14" d="m147.26,96.6c15.54,16.12,36.71,30.96,42.35,26.47,7.58-6.06,19.29-24.72,23.21-36.02,1.15-3.32-24.84-11.76-26.08-8.22-1.49,4.29-10.21,19.15-10.48,19.51-.58.78-17.88-9.53-26.58-12.77-10.14-3.76-9.68,3.5-2.42,11.03h0Z"/>
          <g>
            <path class="cls-14" d="m216.43,73.86c.03,5.84-4.59,17.8-6.82,20.26-2.22,2.46-22.82-4.72-23.9-7.95s.36-22.89,4.07-27.56c3.7-4.67,26.64,9.2,26.67,15.25h0Z"/>
            <g>
              <path class="cls-14" d="m185.94,67.67c1.48,2.71,3.83-.59,3.83-.59,0,0-2.23,5.57.38,7.78,2.53,2.12,5.22-1.97,5.42-2.27-.11.3-2.03,5.47.82,7.42,2.97,2.02,4.97-2.55,5.1-2.85-.02.31-.24,4.46,2.27,5.45,4.3,1.69,5.14-8.91,8.1-11.22,0,0,4.4,2.63,4.56,2.74,0,0,1.09-8.15-2.25-11.95-1.76-2-3.97-.76-3.97-.76,0,0,.68-3.21-1.52-4.81-1.13-.82-3.45.26-3.45.26,0,0,.44-2.6-1.6-3.9-1.63-1.05-3.7.2-3.7.2,0,0-.73-2.68-2.75-3.22-4.05-1.07-14.4,11.9-11.23,17.72h0Z"/>
              <g>
                <path class="cls-15" d="m199.56,53.32s0-.1-.05-.07c-4.44,3.43-8.28,8.57-9.87,14-.05.17.22.34.31.16,2.71-5.27,5.54-9.74,9.62-14.08Z"/>
                <path class="cls-15" d="m205.25,56.78s-.03-.12-.09-.08c-4.57,3.56-8.72,9.47-9.82,15.94-.03.22.15.46.22.21,1.06-4.24,6-12.17,9.7-16.07h0Z"/>
                <path class="cls-15" d="m201.58,77.64c1.3-6.16,4.44-11.29,8.43-16.09.05-.06-.04-.13-.1-.09-2.59,1.82-4.81,5.14-6.32,7.88-1.45,2.61-2.22,5.27-2.22,8.25,0,.11.19.17.22.04h0Z"/>
              </g>
              <path class="cls-15" d="m189.78,67.08c-.32,1.12-.57,2.25-.68,3.39-.1,1.13-.08,2.33.38,3.29.24.47.6.85,1.07,1.04.48.18,1.02.28,1.53.2,1.01-.13,1.9-.92,2.45-1.76l1.37-2.14-.54,2.48c-.24,1.08-.33,2.26-.21,3.36.12,1.09.54,2.15,1.37,2.71.85.6,1.87.64,2.67-.03.81-.62,1.43-1.64,1.84-2.64l1.14-2.78-.17,2.99c-.04.81,0,1.68.17,2.48.17.8.48,1.58,1.01,2.08.52.5,1.32.71,1.96.45.68-.26,1.25-.94,1.72-1.63.95-1.42,1.6-3.06,2.34-4.66.36-.8.72-1.61,1.12-2.4.41-.78.84-1.59,1.54-2.14-.64.61-.97,1.46-1.32,2.25-.33.81-.63,1.64-.93,2.47-.59,1.66-1.21,3.32-2.14,4.88-.49.76-1.04,1.57-2,2.01-.99.46-2.18.14-2.92-.56-.77-.71-1.12-1.66-1.32-2.55-.2-.92-.27-1.81-.24-2.76l.98.21c-.47,1.18-1.08,2.28-2.14,3.14-.52.42-1.24.71-1.96.69-.73-.02-1.39-.29-1.94-.68-1.15-.83-1.61-2.21-1.73-3.43-.12-1.25,0-2.47.28-3.69l.83.35c-.73,1.05-1.81,1.88-3.14,2.01-.65.06-1.29-.09-1.86-.35-.6-.27-1.06-.8-1.32-1.39-.49-1.18-.37-2.41-.19-3.56.2-1.16.54-2.28.98-3.36v.03Z"/>
            </g>
            <g>
              <path class="cls-14" d="m184.58,85.61s-10.58-22.4.21-22.25c3.21.04,16.3,4.06,15.56,6.71-.98,3.42-6.76,2.76-10.33,1.78,0,0,4.67,7.11.69,11.84-2.5,2.96-6.13,1.92-6.13,1.92Z"/>
              <path class="cls-15" d="m183.89,63.39c1.25-.18,2.53-.03,3.77.17,1.25.19,2.48.51,3.69.86,2.42.75,4.79,1.56,7.08,2.74.58.31,1.14.64,1.66,1.14.26.24.51.57.65.95.08.19.12.37.14.62,0,.23-.02.44-.08.63-.21.78-.75,1.36-1.33,1.76-.61.38-1.26.61-1.93.76-1.32.28-2.64.23-3.91.05-1.28-.16-2.52-.47-3.75-.8l.48-.67c.52.85.92,1.72,1.26,2.61s.59,1.84.74,2.79c.14.95.15,1.93,0,2.88-.13.95-.45,1.86-.92,2.68.36-.87.58-1.8.62-2.72.05-.92-.06-1.85-.25-2.75-.19-.9-.49-1.78-.86-2.61s-.82-1.66-1.32-2.4l-.64-.92,1.12.25c1.2.27,2.41.56,3.63.66,1.21.12,2.44.17,3.57-.09,1.11-.24,2.21-.84,2.47-1.78.3-.8-.82-1.61-1.85-2.18-1.06-.6-2.2-1.1-3.35-1.59-1.14-.5-2.3-.98-3.47-1.39-2.34-.79-4.74-1.61-7.26-1.66h.02Z"/>
            </g>
          </g>
        </g>
        <g>
          <g>
            <path class="cls-14" d="m152.55,136.95s3.49,29.9-2.68,36.7c0,0-20.91,73.13-26.35,89.46-5.99,17.94-78.68,62.93-78.68,62.93l-24.4-33.74s16.5-13.84,33.23-26.22c12.11-8.97,26.32-14.95,26.41-15.65,1.25-9.68,22.73-70.66,22.13-72.32-6.81-18.85,4.22-41.18,4.22-41.18h46.12,0Z"/>
            <g>
              <path class="cls-12" d="m106.43,136.95h47.82s1.62,26.57-2.91,37.01c0,0-10.88,43.87-11.15,44.06-.28.19-16.01-.91-24.9-1.87-8.89-.97-24.32-8.32-24.42-8.8s7.94-29.02,7.94-29.02c0,0-4.26-14.35,7.63-41.38Z"/>
              <path class="cls-9" d="m151.33,173.96s-10.88,43.86-11.15,44.06c-.2.13-7.69-.35-15.23-.97l-15.39-27.93-1.25-2.26-1.82-3.31-1.25-2.25-7.12-12.92c.34-6.96,2.18-17.52,8.3-31.43h47.82s1.63,26.57-2.91,37.01h0Z"/>
              <g>
                <path class="cls-7" d="m107.58,178.87l.03.17-1.12,4.51-6.93,27.92c-.56-.23-1.11-.45-1.63-.68l7.31-29.49.58-2.35c-1.97-13.6,4.32-34.23,6.95-42h1.86c-2.44,7.21-9.06,28.53-7.05,41.92h0Z"/>
                <path class="cls-7" d="m111.95,179.16l.03.17-2.42,9.79-5.93,23.92c-.56-.2-1.11-.41-1.65-.62l6.34-25.56,1.89-7.62c-2-13.78,4.48-34.74,7.05-42.3h1.85c-2.35,6.91-9.18,28.64-7.15,42.21h0Z"/>
              </g>
            </g>
          </g>
          <g>
            <path class="cls-14" d="m235.11,331.69l-36.3,14.06s-12.67-23.86-21.4-51.42c-5.7-18-11.79-37.92-12.52-39.14-2.42-4.03-44.7-60.71-57.95-75.54-16.07-17.99-1.55-42.73-1.55-42.73l48.86.03.24,17.63c3.86,6.21,44.08,65.09,48.94,79.47,8.49,25.12,31.69,97.64,31.69,97.64h0Z"/>
            <g>
              <path class="cls-12" d="m105.38,136.92h48.86s1.16,17.13,1.2,17.66c.04.53,28.08,41.49,27.64,42.26-.44.78-17.61,11.9-19.78,13.12-6.23,3.48-24.75,9.96-25.72,9.78s-27.53-35.94-29.34-37.67c-1.81-1.74-18.4-15.72-2.87-45.14h0Z"/>
              <path class="cls-5" d="m145.28,146.56c3.76,2.33,7.15,5.12,10.16,8.37-3.76-2.32-7.15-5.12-10.16-8.37h0Z"/>
              <g>
                <path class="cls-7" d="m143.66,217.93c-.61.21-1.19.4-1.73.58-7.76-11.21-16.8-23.19-24.84-33.83-3.43-4.55-6.68-8.85-9.58-12.77-4.03-5.43-4.71-13.52-2.07-24.05,1.12-4.46,2.61-8.38,3.69-10.95h1.91c-2.76,6.39-9.38,24.2-2.14,33.96,2.89,3.9,6.14,8.2,9.58,12.76,8.14,10.78,17.32,22.94,25.17,34.29Z"/>
                <path class="cls-7" d="m147.92,216.41c-.58.21-1.13.42-1.69.62-7.75-11.18-16.77-23.13-24.78-33.75-3.43-4.56-6.68-8.85-9.59-12.77-3.97-5.35-4.7-13.38-2.13-23.21,1.12-4.27,2.61-7.98,3.68-10.38h1.93c-2.68,5.83-9.36,22.72-2.07,32.56,2.89,3.9,6.14,8.2,9.58,12.76,8.11,10.74,17.25,22.86,25.08,34.18h0Z"/>
              </g>
            </g>
          </g>
        </g>
        <g>
          <g>
            <g>
              <path class="cls-15" d="m140.66,50c-.55-.2-1.14-.3-1.73-.26-2.68.14-4.74,2.14-6.19,4.2-1.53,2.22-2.67,4.95-4.9,6.58-.87.64-1.93,1.09-3.02.98-1.23-.11-2.14-.96-2.83-1.92-.74-1-1.39-2.35-2.68-2.75-1.06-.33-2.21.13-3.06.78-2.19,1.69-2.48,4.85-3.78,7.14-1.38,2.46-3.49,4.45-6.02,5.7-2.36,1.17-5.06,1.58-7.67,1.25-1.27-.16-2.54-.49-3.71-1-1.32-.58-2.47-1.43-3.76-2.07-1.19-.58-2.66-1.01-3.95-.49-1,.4-3.36,3.61-3.29,8.47,0,.35-.63.33-.76-.02-.26-.67-.49-1.35-.67-2.05-1.51-5.79-.15-12.08,3.7-16.68,2.06-2.46,4.7-4.33,7.66-5.52,1.64-.66,3.36-1.19,4.87-2.13,1.35-.84,2.37-2,3.19-3.36,1.54-2.57,2.46-5.47,4.45-7.76,1.78-2.05,4.11-3.56,6.64-4.51,5.31-1.97,11.21-1.39,16.14,1.33,4.85,2.68,11.66,14.19,11.35,14.08h0Z"/>
              <path class="cls-15" d="m140.48,49.94c-1.13-.25-2.31-.4-3.45-.13-1.03.24-1.95.8-2.74,1.51-1.75,1.59-2.7,3.73-3.7,5.82-.94,1.96-2.05,3.99-4.01,5.1-.83.47-1.8.78-2.76.72-1.09-.06-1.99-.63-2.72-1.42-1.32-1.44-2.54-3.68-4.79-3.57-2.19.1-3.45,2.42-4.38,4.1-2.27,4.09-4.61,9.72-9.91,10.41-2.68.35-5.59-.4-8.09-1.35-1.8-.69-4.06-1.57-5.89-.52-.07.03,0,.13.07.1,1.95-1.08,4.07.2,5.87.98,2.12.91,4.47,1.55,6.79,1.59,2.39.04,4.53-.89,6.27-2.49,1.78-1.63,3-3.7,4.11-5.82.57-1.08,1.12-2.18,1.72-3.25.54-.96,1.16-1.95,2.07-2.6.98-.69,2.13-.64,3.09.04.95.66,1.58,1.64,2.34,2.49.67.77,1.45,1.44,2.44,1.73.8.24,1.65.22,2.45.03,1.85-.44,3.35-1.7,4.39-3.25,1.48-2.2,2.19-4.81,3.7-6.98.78-1.11,1.77-2.14,3.02-2.68,1.32-.58,2.67-.42,4.05-.27.18.02.23-.24.04-.29h0Z"/>
              <path class="cls-15" d="m128.45,33.6c-4.91-2.82-11.12-2.33-15.89.52-2.68,1.6-4.85,3.89-6.49,6.52-1.53,2.46-2.77,5.18-4.82,7.27-2.27,2.32-5.4,2.97-8.33,4.06-2.38.88-4.51,2.25-6.3,4.04-3.43,3.44-5.45,8.27-5.4,13.14,0,.62.03,1.24.1,1.86,0,.08.13.06.12,0-.48-4.87,1.39-9.79,4.62-13.42,1.59-1.79,3.52-3.26,5.68-4.26,2.68-1.24,5.69-1.68,8.21-3.28,2.36-1.5,3.85-3.96,5.2-6.34,1.47-2.6,2.94-5.15,5.22-7.14,4.23-3.69,10.24-5.21,15.62-3.33,6,2.1,9.62,7.63,12.31,13.06.36.72.71,1.46,1.06,2.19.04.09.17.03.14-.05-2.47-5.66-5.49-11.65-11.05-14.84h0Z"/>
            </g>
            <path class="cls-12" d="m142.56,47.29c-.48-.83-1.73-1.51-2.34-1.33-.62.18-3.48,4.29-3.19,5.5s2.57,1.01,2.57,1.01l2.95-5.19h0Z"/>
          </g>
          <g>
            <g>
              <path class="cls-14" d="m155.7,129.22l-1.46,7.73h-47.82s7.48-39.18,24.98-50.8c8.76-5.81,16.74-3.26,20.63,3.26.98,1.65,11,18.94,10.71,27.23-.27,7.31-7.05,12.59-7.05,12.59h0Z"/>
              <path class="cls-12" d="m162.75,116.63c-.25,6.85-6.25,11.93-6.99,12.54-.02.02-.04.03-.05.04,0,0-.02,0-.02,0l-46.6-3.15c1.08-3.8,2.49-8.27,4.28-12.87,2.86.2,10.87-.07,13.86-.63,2.03-.38,6.53-7.15,12.36-6.47s11.59,6.47,11.59,6.47c3.71-3.85,7.64-5.08,9.47-5.46,1.3,3.55,2.19,6.96,2.1,9.52Z"/>
            </g>
            <g>
              <path class="cls-15" d="m152.04,89.4c-.25-.44-.52-.85-.82-1.23,1.38,3.99,3.98,12.8.63,13.67-3.68.95-12.96-13.45-15.83-18.05-1.5.52-3.04,1.3-4.61,2.34-12.74,8.46-20.97,30.33-24.49,41.62l48.3,4.51.45-3.04s6.78-5.28,7.06-12.59c.29-8.3-9.73-25.58-10.7-27.23h0Zm-18.22,19.17c-2.47,5.35-8.11,9.5-11.86,8.99-3.06-.42-4.51-4.58-3.28-9.89,2.1-9.05,11.03-22.4,15.09-22.09,4.67.37,4.15,14.07.04,22.99Z"/>
              <g>
                <path class="cls-5" d="m140.23,122.73c2.6.49,5.19,1.08,7.69,2.02,1.25.47,2.46,1,3.68,1.58.6.29,1.21.54,1.83.79.63.26,1.31.51,1.98.58.06,0,.05.11,0,.11-.65-.02-1.28-.03-1.93-.17-.62-.11-1.22-.31-1.81-.53-1.26-.46-2.51-.99-3.77-1.47-2.54-.96-5.09-1.93-7.69-2.66-.12-.03-.08-.28.04-.26h-.02Z"/>
                <path class="cls-5" d="m133.6,125.13c2.16-.13,4.37-.14,6.52.03,1.09.08,2.16.24,3.23.44.51.1,1.02.19,1.53.31.56.12,1.11.33,1.67.44.06,0,.05.12,0,.11-.53-.09-1.08-.07-1.62-.11-.54-.05-1.08-.1-1.62-.15-1.08-.1-2.16-.18-3.24-.3-2.16-.22-4.31-.42-6.48-.55-.11,0-.1-.21.02-.22h0Z"/>
              </g>
            </g>
          </g>
          <g>
            <g>
              <path class="cls-14" d="m139.6,84.39c.17,1.06,4.74,8.17,9.53,8.25,1.56.03,2.07-8.5,2.07-8.5l.18-.62,2.54-8.69-9.93-7.3-1.44-.98s-.53,2.42-1.18,5.45c-.03.14-.06.28-.09.43-.04.17-.08.33-.11.49-.1.45-.2.92-.3,1.37-.07.35-.14.69-.2,1.06-.07.37-.13.73-.2,1.1-.62,3.66-.95,7.48-.88,7.93h0Z"/>
              <path class="cls-15" d="m141.38,72c2.07,7.17,7.5,10.39,10.01,11.52l2.54-8.69-9.93-7.3-1.44-.98s-.53,2.42-1.18,5.45h0Z"/>
            </g>
            <g>
              <path class="cls-14" d="m167.97,60.7c1.54,15.81-7.75,18.52-11.15,18.85-3.09.3-13.66.92-16.84-14.63-3.17-15.56,3.69-21.28,10.73-22.33,7.04-1.06,15.72,2.32,17.26,18.13h0Z"/>
              <g>
                <path class="cls-15" d="m165.2,58.41c-.37-.02-.71-.09-1.09-.14-.42-.06-.76-.06-1.08-.36-.17-.16-.19-.51-.05-.69.31-.43.85-.49,1.35-.44.55.05.96.24,1.34.63.37.37.03,1.01-.47.99Z"/>
                <path class="cls-15" d="m154.8,59.13c.37-.06.7-.18,1.06-.28.41-.11.74-.17,1.03-.5.16-.18.12-.52-.03-.69-.37-.38-.91-.37-1.39-.25-.53.12-.91.36-1.25.79-.32.42.11,1.01.6.92h0Z"/>
                <g>
                  <g>
                    <path class="cls-15" d="m157.19,62.27s-.08.06-.07.1c.15,1.07.13,2.33-.8,2.78-.03.02-.02.07.02.06,1.17-.29,1.18-1.95.86-2.95h0Z"/>
                    <path class="cls-15" d="m156.11,61.24c-1.74.04-1.53,3.53.1,3.49,1.59-.04,1.37-3.53-.1-3.49Z"/>
                  </g>
                  <path class="cls-15" d="m155.44,61.47c-.29.22-.57.58-.93.64-.42.07-.77-.28-1.06-.61-.03-.03-.06,0-.06.04.03.67.33,1.33,1.05,1.39.66.05,1.09-.58,1.21-1.25.03-.12-.1-.31-.22-.22h0Z"/>
                </g>
                <g>
                  <g>
                    <path class="cls-15" d="m163.09,61.68s.09.04.09.09c.03,1.08.24,2.32,1.24,2.62.03,0,.03.06,0,.06-1.2-.1-1.46-1.74-1.32-2.77h0Z"/>
                    <path class="cls-15" d="m163.99,60.49c1.73-.23,2.06,3.24.46,3.46-1.58.21-1.91-3.27-.46-3.46Z"/>
                  </g>
                  <path class="cls-15" d="m164.73,60.66c.3.16.59.47.92.45.38,0,.63-.41.84-.8.02-.04.05-.02.06.03.08.66-.07,1.38-.7,1.56-.58.17-1.05-.36-1.27-1-.04-.12.03-.31.15-.25h0Z"/>
                </g>
                <path class="cls-15" d="m157.33,70.68c.25.26.5.62.89.66.37.04.82-.11,1.17-.24.03,0,.07.03.04.05-.29.41-.89.65-1.39.55-.49-.1-.71-.53-.83-.98-.02-.06.07-.09.1-.04h0Z"/>
                <path class="cls-15" d="m161.74,66.64s.27,1.6.3,2.37c0,.07-.18.11-.44.13,0,0-.02,0-.03,0-1.34.25-2.71-.17-3.56-1.25-.05-.07.04-.16.11-.1,1.03.71,2.14.86,3.34.85.04-.21-.56-2.74-.44-2.75.42-.05,1.25.21,1.74.34-.47-3.36-1.48-6.62-1.9-9.99,0-.12.16-.17.2-.05,1.3,3.35,1.93,7.21,2.5,10.67.08.43-1.51-.1-1.82-.21h-.02Z"/>
                <g>
                  <path class="cls-15" d="m160.8,68.95s-.61.84-1.45,1.15c-.31.11-.64.17-.99.08-.72-.18-.75-.85-.63-1.41.1-.47.31-.87.31-.87,0,0,1.06.98,2.75,1.05h0Z"/>
                  <path class="cls-6" d="m159.36,70.1c-.31.11-.64.17-.99.08-.72-.18-.75-.85-.63-1.41.78.07,1.55.58,1.62,1.33h0Z"/>
                </g>
              </g>
              <g>
                <path class="cls-15" d="m140.49,64.06c1.72-.19,5.98-5.17,5.7-13.51,0,0-.26,7.51-.78,8.64-.51,1.12,2.38-2.8,2.25-9.53,0,0,3.86,2.5,7.08,3.23s5.16.6,5.38.36-4.53-1.48-5.86-2.87c0,0,8.64,3.5,12.55,3.6.45,0-.58-7.17-6.79-10.8-6.21-3.63-14.44-1-16.87,1.6,0,0-2.13.98-4.08,4.85-2.49,4.94-.41,14.63,1.44,14.42h0Z"/>
                <path class="cls-15" d="m147.79,48.78c-.04-.18-.33-.17-.3.03.45,3.15.03,5.94-.78,9.01,0,.04.06.06.08.03,1.11-3.01,1.73-5.89,1-9.06h0Z"/>
                <path class="cls-15" d="m158.93,53.81c-4.55-.31-8.51-1.54-11.71-4.91-.07-.07-.19,0-.13.1,2.68,3.73,7.42,5.08,11.84,4.99.1,0,.1-.17,0-.17h0Z"/>
              </g>
              <g>
                <path class="cls-12" d="m142.33,57.63c-1.57,1.69-3.15,3.76-4.1,5.26,0,0-1.39-2.93-1.08-4.93,0,0,4.3-5.99,10.4-9.75l-5.23,9.42h0Z"/>
                <g>
                  <path class="cls-12" d="m139.82,60.64s7.3-13.65,11.72-16.74c4.42-3.09,14.58-5.19,21.11-2.21,5.09,2.32-6.01,10.43-6.01,10.43,0,0-.99-2.2-2.62-2.87-3.17-1.29-8.98.07-12.24,1.53-4.11,1.84-11.95,9.86-11.95,9.86h0Z"/>
                  <path class="cls-8" d="m139.82,60.64s7.3-13.65,11.72-16.74c4.42-3.09,14.58-5.19,21.11-2.21,5.09,2.32-6.01,10.43-6.01,10.43,0,0-.99-2.2-2.62-2.87-3.17-1.29-8.98.07-12.24,1.53-4.11,1.84-11.95,9.86-11.95,9.86h0Z"/>
                </g>
              </g>
              <g>
                <path class="cls-14" d="m143.12,65.66s-3.28-5.08-5.58-3.93c-2.29,1.15.04,8.43,2.65,9.51,2.61,1.08,3.65-1.31,3.65-1.31l-.72-4.27h0Z"/>
                <path class="cls-15" d="m138.27,63.8s-.05.05-.02.07c1.82.82,2.74,2.57,3.35,4.37-.52-.71-1.26-1.11-2.2-.49-.05.03,0,.11.04.1.77-.13,1.31.02,1.8.64.35.44.58.99.82,1.5.08.17.38.09.32-.1,0-.02,0-.03-.02-.04.13-2.36-1.58-5.73-4.1-6.06h.02Z"/>
              </g>
            </g>
          </g>
          <g>
            <g>
              <path class="cls-14" d="m127.3,85.58c-23,4.48-43.73,20.11-45.31,26.93-2.27,9.77,13.68,36.58,18.77,47.07,1.59,3.27,22.38-16.64,20.66-20.13-1.65-3.33-14.53-21.93-14.52-22.4.02-1.01,20.17-17.39,25.32-21.47,4.62-3.67,7.57-12.43-4.93-9.99Z"/>
              <g>
                <path class="cls-14" d="m145.61,165.21c-1.18,2.76-4.28,2.46-4.28,2.46,0,0,.44,2.36-.84,4.28-1.46,2.2-5.55.86-5.55.86,0,0-.05,2.48-1.6,4.37-1.61,1.96-5.93,1.2-5.93,1.2,0,0-1.32,2.28-3.83,2.95-4.3,1.15-9.27-3.5-12.46-6.42-3.19-2.92-9.5-14.2-10.92-16.23l18.58-20.63s18.02,9.04,21.29,13c2.75,3.35,6.89,11.02,5.56,14.13v.02Z"/>
                <g>
                  <path class="cls-15" d="m141.49,167.22c-2.07-4.25-5.28-7.67-8.3-11.25-.07-.08-.19.03-.12.1,3.04,3.53,5.33,7.63,8.23,11.27.08.1.24,0,.19-.12Z"/>
                  <path class="cls-15" d="m135.12,172.49c-.5-.95-1.31-1.73-2.03-2.51-.78-.84-1.57-1.66-2.38-2.47-1.61-1.62-3.26-3.22-4.96-4.75-.08-.07-.2.03-.12.1,1.6,1.62,3.18,3.27,4.71,4.95.77.85,1.53,1.7,2.28,2.55.71.79,1.38,1.69,2.24,2.32.13.1.31-.06.24-.2h.02Z"/>
                  <path class="cls-15" d="m127.34,178.33c-.4-.85-1.28-1.53-1.94-2.16-.75-.72-1.5-1.46-2.24-2.19-1.48-1.46-2.96-2.93-4.39-4.44-.07-.08-.19.03-.12.1,1.45,1.55,2.87,3.12,4.33,4.65.71.76,1.44,1.51,2.16,2.25.62.64,1.32,1.5,2.14,1.86.04.02.09-.03.07-.08h0Z"/>
                </g>
              </g>
            </g>
            <path class="cls-15" d="m115.98,130.13c-.75-1.06-1.5-2.12-2.27-3.16-.82-1.12-1.75-2.11-2.68-3.14-.03-.03-.08,0-.05.04.72,1.09,1.35,2.22,2.13,3.28.78,1.08,1.55,2.18,2.29,3.29,1.46,2.19,3.03,4.3,4.48,6.48.04.07.17,0,.13-.08-1.27-2.29-2.52-4.57-4.03-6.72h0Z"/>
            <path class="cls-15" d="m126.24,101.24c-.37.18-.73.37-1.1.57,1.52-1.28,2.97-2.62,4.38-4.02.03-.03-.02-.08-.05-.06-1.81,1.34-3.59,2.71-5.32,4.14-.82.68-1.66,1.33-2.46,2.05-.9.8-1.75,1.63-2.69,2.37-.11.09,0,.27.12.18.9-.71,1.85-1.34,2.77-2.01.8-.59,1.57-1.23,2.34-1.86.28-.11.56-.24.83-.37.44-.24.88-.47,1.3-.73.85-.53,1.66-1.09,2.5-1.64,0,0,0-.03,0-.02-.85.51-1.72.97-2.6,1.41h0Z"/>
          </g>
        </g>
      </g>
    </g>
  </g>
  <g>
    <rect class="cls-1" x="473" y="88.5" width="202" height="47" rx="6.5" ry="6.5"/>
    <g>
      <path class="cls-1" d="m489.16,68.19v5.56h9.66v1.52h-21.07v-1.52h9.68v-5.56h-6.95v-10.87h15.64v10.87h-6.95Zm5.2-9.38h-12.15v7.9h12.15v-7.9Z"/>
      <path class="cls-1" d="m512.28,68.19v5.56h9.66v1.52h-21.07v-1.52h9.68v-5.56h-6.95v-10.87h15.42v1.49h-13.68v7.9h13.9v1.47h-6.95Z"/>
      <path class="cls-1" d="m524.28,73.47l-.1-1.52h4.1c1.45,0,3.18-.06,5.21-.18,2.03-.12,3.9-.28,5.62-.48l.19,1.45c-1.67.23-3.52.41-5.55.54s-3.88.2-5.57.2h-3.9Zm4.08-5.71c-.89-.41-1.59-1.02-2.11-1.85-.52-.83-.78-1.84-.78-3.03v-.48c0-1.19.26-2.21.78-3.03s1.22-1.44,2.11-1.85c.89-.41,1.89-.61,3.01-.61s2.1.2,2.99.61c.89.41,1.59,1.02,2.11,1.85s.78,1.84.78,3.03v.48c0,1.2-.26,2.21-.78,3.03-.52.83-1.22,1.44-2.11,1.85-.89.41-1.88.61-2.99.61s-2.13-.2-3.01-.61Zm5.99-1.94c.76-.69,1.15-1.68,1.15-2.96v-.44c0-1.29-.38-2.28-1.13-2.98-.76-.7-1.75-1.05-2.99-1.05s-2.24.35-3,1.05c-.76.7-1.15,1.69-1.15,2.98v.44c0,1.29.38,2.27,1.15,2.96.76.69,1.76,1.03,3,1.03s2.21-.34,2.98-1.03Zm8.63,11.15h-1.73v-21.21h1.73v21.21Z"/>
      <path class="cls-1" d="m565.97,62.67h-3.27v4.83h-8.95v-10.48h8.95v4.16h3.27v-5.19h1.63v15.19h-1.63v-8.5Zm-10.61,3.35h5.71v-7.54h-5.71v7.54Zm4,4.48v4.94h14.07v1.52h-15.83v-6.46h1.76Zm11.34-14.75h1.68v16.11h-1.68v-16.11Z"/>
      <path class="cls-1" d="m587.58,69.2v4.55h9.66v1.52h-21.07v-1.52h9.68v-4.55h-6.95v-11.88h15.64v1.49h-13.9v3.68h13.9v1.47h-13.9v3.77h14.39v1.47h-7.44Z"/>
      <path class="cls-1" d="m620.36,66h-21.07v-1.4h21.07v1.4Zm-2.1,11.08h-16.25v-5.24h13.88v-2.37h-14v-1.4h15.76v5.15h-13.9v2.46h14.51v1.4Zm-16.03-20.91h14.95v1.38h-13.22v3.75h13.46v1.38h-15.2v-6.5Z"/>
      <path class="cls-1" d="m628.65,71.91c2.85-.11,5.46-.31,7.85-.6l.19,1.45c-1.63.21-3.43.39-5.43.52s-3.8.2-5.43.2h-3.71l-.07-1.52h4.83v-7.9h1.76v7.86Zm4.2-12.85h-9.22v-1.49h10.98v1.61c0,2.77-.38,6.01-1.15,9.72l-1.71-.28c.34-1.61.61-3.24.8-4.89.2-1.65.29-3.03.29-4.14v-.53Zm7.54,5.22h3.51v1.49h-3.51v11.19h-1.73v-21.21h1.73v8.53Z"/>
      <path class="cls-1" d="m659,57.89h5.66v1.4h-13.07v-1.4h5.66v-2.41h1.76v2.41Zm4.58,6.43c0,1.09-.51,1.93-1.52,2.54-1.02.61-2.32.91-3.91.91s-2.9-.3-3.93-.91-1.54-1.45-1.54-2.54v-.32c0-1.07.52-1.91,1.55-2.53,1.03-.61,2.34-.92,3.92-.92s2.88.3,3.9.91c1.02.61,1.54,1.45,1.54,2.54v.32Zm-9.17-.02c0,.63.35,1.13,1.06,1.52.71.38,1.6.58,2.67.58s1.96-.19,2.67-.58c.71-.38,1.06-.89,1.06-1.52v-.23c0-.63-.35-1.14-1.06-1.53-.71-.39-1.6-.59-2.67-.59s-1.96.2-2.67.59c-.71.39-1.06.9-1.06,1.53v.23Zm14.81,12.64h-14v-7.51h14v7.51Zm-1.73-6.07h-10.51v4.62h10.51v-4.62Zm1.73-9.72h3.76v1.52h-3.76v5.26h-1.73v-12.18h1.73v5.4Z"/>
      <path class="cls-1" d="m675.44,59.06v-1.49h4.46v1.63c0,4.66-1.14,9.57-3.42,14.75l-1.51-.6c1.06-2.4,1.87-4.81,2.45-7.21s.87-4.61.87-6.62v-.46h-2.85Zm12.56,5.45v-8.41h1.63v20.47h-1.63v-10.57h-3.22c-.58,3.12-1.51,6.07-2.78,8.82l-1.51-.62c1.06-2.33,1.88-4.81,2.46-7.46s.88-5.05.88-7.23v-.46h-2.93v-1.49h4.56v1.63c0,1.64-.14,3.41-.42,5.31h2.95Zm4.49,12.46v-21.21h1.66v21.21h-1.66Z"/>
      <path class="cls-1" d="m699.66,79.77h-1.44l.51-6.09h1.76l-.83,6.09Z"/>
      <path class="cls-12" d="m489.68,101.61c0,2.87-.25,5.59-.74,8.16l7.1,11.69-5.11,3.16-4.37-7.17c-1.12,2.6-2.6,5.1-4.45,7.5l-4.8-3.38c2.21-3.02,3.82-6.15,4.82-9.41,1-3.26,1.5-6.78,1.5-10.55v-4.85h6.05v4.85Zm15.26,5.33v-11.99h5.89v34.52h-5.89v-17.35h-2.65v16.47h-5.74v-33.13h5.74v11.47h2.65Z"/>
      <path class="cls-12" d="m535.26,117.45v4.6h14.28v5.22h-34.66v-5.22h14.28v-4.6h-10.46v-12.79h20.92v-2.65h-21.11v-5.11h27.2v12.76h-20.92v2.79h21.7v5h-11.24Z"/>
      <path class="cls-12" d="m551.88,117.05v-5.22h34.66v5.22h-14.28v4.74h-6.09v-4.74h-14.28Zm13.89-7.46c-3.04,0-5.52-.64-7.42-1.91-1.9-1.27-2.85-3.06-2.85-5.37s.95-4.01,2.85-5.28c1.9-1.26,4.37-1.89,7.42-1.89h6.87c3.04,0,5.52.63,7.42,1.89,1.9,1.26,2.85,3.02,2.85,5.28s-.95,4.09-2.85,5.37c-1.9,1.27-4.37,1.91-7.42,1.91h-6.87Zm-9.87,9.93h6.09v4.78h21.31v5.18h-27.4v-9.96Zm11.04-19.63c-1.69,0-3.01.21-3.94.64s-1.4,1.05-1.4,1.86.47,1.43,1.4,1.86c.94.43,2.25.64,3.94.64h4.53c1.69,0,3-.21,3.94-.64.94-.43,1.41-1.05,1.41-1.86s-.47-1.43-1.41-1.86c-.94-.43-2.25-.64-3.94-.64h-4.53Z"/>
      <path class="cls-12" d="m619.01,115.83v6.21h14.28v5.22h-34.66v-5.22h14.28v-6.21h-10.46v-18.93h26.66v5.15h-20.57v8.68h20.92v5.11h-10.46Z"/>
      <path class="cls-12" d="m646.99,110.54c-1.87,2.35-4.51,4.47-7.92,6.36l-3.36-4.52c2.89-1.72,4.98-3.44,6.28-5.18,1.3-1.74,2.02-3.65,2.15-5.74h-6.91v-5.04h20.18v5.04h-7.18c-.08,1.54-.3,2.9-.66,4.08l9.25,6.21-3.51,4.6-8.31-5.81Zm1.41,7.46v6.29h20.57v5.18h-26.69v-11.47h6.13Zm7.65-10v-4.85h5.7v-8.2h6.09v25.22h-6.09v-12.17h-5.7Z"/>
      <path class="cls-1" d="m717.04,112.56h-34.66v-4.49h34.66v4.49Zm-20.96-6.03c-3.04,0-5.48-.48-7.32-1.43s-2.75-2.43-2.75-4.41.92-3.38,2.75-4.32,4.27-1.42,7.32-1.42h7.26c3.04,0,5.48.47,7.32,1.42s2.75,2.38,2.75,4.32-.92,3.46-2.75,4.41-4.27,1.43-7.32,1.43h-7.26Zm18.11,23.13h-27.98v-9.74h20.92v-1.58h-21.11v-4.01h27.2v9.52h-20.92v1.65h21.89v4.15Zm-12.14-27.28c3.51,0,5.27-.54,5.27-1.62,0-.56-.44-.97-1.33-1.21-.88-.24-2.2-.37-3.94-.37h-4.68c-1.74,0-3.06.12-3.94.37-.88.25-1.33.65-1.33,1.21,0,1.08,1.76,1.62,5.27,1.62h4.68Z"/>
      <path class="cls-1" d="m742.96,97.23h7.77v4.45h-21.7v-4.45h7.77v-2.61h6.17v2.61Zm6.36,11.84c0,1.94-.87,3.41-2.62,4.43-1.74,1.02-4.01,1.53-6.79,1.53s-5.05-.51-6.81-1.53c-1.76-1.02-2.63-2.49-2.63-4.43v-.37c0-1.94.88-3.42,2.63-4.45s4.03-1.54,6.81-1.54,5.01.51,6.77,1.54,2.63,2.51,2.63,4.45v.37Zm1.72,7.13c2.65,0,4.81.61,6.48,1.82,1.67,1.21,2.5,2.9,2.5,5.05s-.83,3.79-2.5,4.98c-1.67,1.19-3.83,1.78-6.48,1.78h-8.31c-2.65,0-4.82-.59-6.5-1.78-1.68-1.19-2.52-2.85-2.52-4.98s.84-3.84,2.52-5.05c1.68-1.21,3.84-1.82,6.5-1.82h8.31Zm-14.63-7.21c0,.54.33.96.98,1.25s1.5.44,2.54.44,1.89-.15,2.54-.44.98-.71.98-1.25v-.26c0-.54-.33-.95-.98-1.23-.65-.28-1.5-.42-2.54-.42s-1.89.14-2.54.42c-.65.28-.98.69-.98,1.23v.26Zm13.85,15.77c1.2,0,2.11-.15,2.73-.44.62-.29.94-.72.94-1.29,0-.61-.31-1.07-.94-1.38-.62-.31-1.54-.46-2.73-.46h-6.75c-1.2,0-2.11.15-2.75.46-.64.31-.96.77-.96,1.38,0,.56.32.99.96,1.29.64.29,1.55.44,2.75.44h6.75Zm13.93-25.74v4.85h-4.92v2.5h4.92v4.85h-4.92v3.71h-6.09v-20h6.09v4.08h4.92Z"/>
      <path class="cls-1" d="m779.95,97.6h7.77v4.63h-21.7v-4.63h7.77v-2.98h6.17v2.98Zm6.36,12.98c0,2.13-.88,3.77-2.63,4.93s-4.01,1.73-6.77,1.73-5.02-.58-6.79-1.73-2.65-2.79-2.65-4.93v-.44c0-2.13.88-3.77,2.65-4.91s4.03-1.71,6.79-1.71,5.01.57,6.77,1.71,2.63,2.78,2.63,4.91v.44Zm-14.83,8.86h6.09v4.85h20.22v5.18h-26.3v-10.04Zm1.91-8.9c0,.69.33,1.22.98,1.6s1.5.57,2.54.57,1.89-.19,2.54-.57.98-.91.98-1.6v-.37c0-.69-.33-1.21-.98-1.58-.65-.37-1.5-.55-2.54-.55s-1.89.18-2.54.55c-.65.37-.98.89-.98,1.58v.37Zm22.87-15.59v9.08h4.92v5.22h-4.92v11.25h-6.09v-25.55h6.09Z"/>
      <path class="cls-1" d="m489.13,159.95c-1.87,1.99-4.66,3.76-8.35,5.33l-2.85-4.85c2.55-1.13,4.5-2.3,5.85-3.53s2.2-2.55,2.54-3.97h-7.02v-4.96h7.22v-3.35h6.01v3.35h7.34v4.82h4.14v-7.83h6.09v22.35h-6.09v-9.67h-5.7v-4.71h-5.89c-.08.83-.23,1.59-.47,2.28l9.25,4.63-3.04,4.89-9.02-4.78Zm23.1,14.74l-2.19,4.96-14.17-4.85c-2.84,2.13-6.74,3.81-11.71,5.04l-2.03-5c8.12-2.18,12.18-4.91,12.18-8.2v-1.14h6.13v1.14c0,1.32-.29,2.6-.86,3.82l12.64,4.23Z"/>
      <path class="cls-1" d="m541,157.01h-8.98c-2.84,2.6-7.51,4.56-14.01,5.88l-1.95-5.15c3.82-.74,6.85-1.66,9.09-2.78,2.24-1.11,3.66-2.35,4.25-3.69h-12.18v-5.04h18.5v2.1c0,1.37-.17,2.59-.51,3.64h5.78v-7.02h6.09v16.77h-6.09v-4.71Zm-13.35,16.4v1.88h20.41v4.38h-26.5v-10.4h19.43v-1.69h-19.63v-4.23h25.72v10.07h-19.43Z"/>
      <path class="cls-1" d="m586.54,164.69h-34.66v-4.82h34.66v4.82Zm-20.88-6.73c-3.04,0-5.5-.55-7.36-1.65-1.86-1.1-2.79-2.71-2.79-4.82s.93-3.66,2.79-4.74c1.86-1.08,4.31-1.62,7.36-1.62h7.1c3.04,0,5.5.54,7.36,1.62,1.86,1.08,2.79,2.66,2.79,4.74s-.93,3.71-2.79,4.82c-1.86,1.1-4.31,1.65-7.36,1.65h-7.1Zm17.09,21.51h-27.01v-12.46h27.01v12.46Zm-11.2-25.92c1.69,0,2.99-.17,3.9-.5.91-.33,1.37-.83,1.37-1.49,0-1.3-1.76-1.95-5.27-1.95h-4.68c-3.51,0-5.27.65-5.27,1.95,0,.66.45,1.16,1.37,1.49.91.33,2.21.5,3.9.5h4.68Zm-9.72,17.94v3.38h14.83v-3.38h-14.83Z"/>
      <path class="cls-1" d="m623.54,162.56h-34.66v-4.49h34.66v4.49Zm-20.96-6.03c-3.04,0-5.48-.48-7.32-1.43s-2.75-2.43-2.75-4.41.92-3.38,2.75-4.32,4.27-1.42,7.32-1.42h7.26c3.04,0,5.48.47,7.32,1.42s2.75,2.38,2.75,4.32-.92,3.46-2.75,4.41-4.27,1.43-7.32,1.43h-7.26Zm18.11,23.13h-27.98v-9.74h20.92v-1.58h-21.11v-4.01h27.2v9.52h-20.92v1.65h21.89v4.15Zm-12.14-27.28c3.51,0,5.27-.54,5.27-1.62,0-.56-.44-.97-1.33-1.21-.88-.24-2.2-.37-3.94-.37h-4.68c-1.74,0-3.06.12-3.94.37-.88.25-1.33.65-1.33,1.21,0,1.08,1.76,1.62,5.27,1.62h4.68Z"/>
      <path class="cls-1" d="m644.1,168.88c2.73,0,5.32-.17,7.77-.51l.59,5.04c-1.51.29-2.95.48-4.33.57-1.38.08-2.97.13-4.76.13h-6.52v-26.99h6.17v21.77h1.09Zm18.62-11.95v-11.99h5.89v34.52h-5.89v-17.35h-2.69v16.47h-5.7v-33.13h5.7v11.47h2.69Z"/>
      <path class="cls-1" d="m674.62,162.82v-16.58h19.24v5h-13.07v6.54h2.46c3.59,0,7.71-.32,12.37-.96l.7,4.85c-4.6.76-9.3,1.14-14.09,1.14h-7.61Zm30.79,16.66h-26.11v-13.97h25.56v5.11h-19.47v3.75h20.02v5.11Zm-.55-15.59h-6.13v-18.93h6.13v18.93Z"/>
      <path class="cls-1" d="m735.74,144.95h6.09v34.52h-6.09v-16.99h-4.53v.88c0,4.04-.95,7.02-2.85,8.93-1.9,1.91-4.37,2.87-7.42,2.87s-5.55-.96-7.45-2.87c-1.9-1.91-2.85-4.89-2.85-8.93v-5.33c0-4.04.95-7.02,2.85-8.93,1.9-1.91,4.38-2.87,7.45-2.87s5.35.89,7.24,2.68c1.89,1.79,2.89,4.57,3.02,8.35h4.53v-12.32Zm-10.62,13.09c0-2.38-.38-4.08-1.15-5.09-.77-1.02-1.78-1.53-3.02-1.53s-2.26.51-3.04,1.53c-.78,1.02-1.17,2.71-1.17,5.09v5.33c0,2.38.39,4.08,1.17,5.09.78,1.02,1.79,1.53,3.04,1.53s2.26-.51,3.02-1.53c.77-1.02,1.15-2.71,1.15-5.09v-5.33Z"/>
      <path class="cls-1" d="m767,166.57v5.48h14.28v5.22h-34.66v-5.22h14.28v-5.48h-10.46v-19.85h6.09v4.96h14.83v-4.96h6.09v19.85h-10.46Zm4.37-9.74h-14.83v4.6h14.83v-4.6Z"/>
      <path class="cls-1" d="m795.33,151.61c0,2.92-.25,5.66-.74,8.24l7.14,11.73-4.92,3.05-4.49-7.32c-1.15,2.67-2.65,5.22-4.53,7.65l-4.64-3.24c2.21-3.04,3.82-6.21,4.82-9.5,1-3.3,1.5-6.83,1.5-10.61v-4.85h5.85v4.85Zm2.77,4.23h4.57v-10.37h5.74v33.13h-5.74v-17.54h-4.57v-5.22Zm12.57,23.64v-34.52h5.89v34.52h-5.89Z"/>
      <path class="cls-1" d="m847.39,167.45v4.6h7.88v5.22h-34.66v-5.22h7.92v-4.6h5.89v4.6h7.06v-4.6h5.89Zm-12.8-1.8c-2.11,0-3.98-.42-5.62-1.27-1.64-.85-2.91-2-3.82-3.47-.91-1.47-1.37-3.11-1.37-4.93s.46-3.45,1.37-4.91c.91-1.46,2.19-2.61,3.84-3.46,1.65-.85,3.52-1.27,5.6-1.27h6.71c2.08,0,3.95.42,5.6,1.27,1.65.85,2.94,2,3.86,3.47s1.39,3.1,1.39,4.89-.46,3.46-1.39,4.93-2.21,2.63-3.84,3.47c-1.64.85-3.51,1.27-5.62,1.27h-6.71Zm1.17-14.19c-1.79,0-3.23.41-4.29,1.23-1.07.82-1.6,1.93-1.6,3.33s.53,2.55,1.6,3.38c1.07.83,2.5,1.25,4.29,1.25h4.37c1.8,0,3.23-.42,4.31-1.25,1.08-.83,1.62-1.96,1.62-3.38s-.54-2.51-1.62-3.33c-1.08-.82-2.52-1.23-4.31-1.23h-4.37Z"/>
      <path class="cls-1" d="m860.25,176.96c-.72-.67-1.07-1.49-1.07-2.44s.36-1.77,1.07-2.45,1.58-1.01,2.6-1.01,1.88.34,2.59,1.01,1.07,1.49,1.07,2.45-.36,1.77-1.07,2.44-1.58,1.01-2.59,1.01-1.88-.34-2.6-1.01Zm5.41-9.25h-5.62l-.62-21.44h6.87l-.62,21.44Z"/>
    </g>
  </g>
</svg>