<?xml version="1.0" encoding="utf-8"?>
<!-- Generator: Adobe Illustrator 27.4.0, SVG Export Plug-In . SVG Version: 6.00 Build 0)  -->
<svg version="1.1" id="레이어_1" xmlns="http://www.w3.org/2000/svg" xmlns:xlink="http://www.w3.org/1999/xlink" x="0px"
	 y="0px" viewBox="0 0 928.5 260" style="enable-background:new 0 0 928.5 260;" xml:space="preserve">
<style type="text/css">
	.st0{fill:#F2CA4E;}
	.st1{fill:#FFFFFF;}
	.st2{fill:#FDF8E0;}
	.st3{fill:#534578;}
	.st4{fill:#B499C7;}
	.st5{fill:none;stroke:#BFBEBE;stroke-width:0.5;stroke-miterlimit:8;}
	
		.st6{clip-path:url(#SVGID_00000114034785443613059330000017695107278570375568_);fill-rule:evenodd;clip-rule:evenodd;fill:#FFFFFF;}
	.st7{clip-path:url(#SVGID_00000114034785443613059330000017695107278570375568_);}
	.st8{clip-path:url(#SVGID_00000083772645848000432210000015360140194760378549_);}
	
		.st9{clip-path:url(#SVGID_00000039093110095644293360000010819907768082253994_);fill-rule:evenodd;clip-rule:evenodd;fill:#B499C7;}
	.st10{clip-path:url(#SVGID_00000039093110095644293360000010819907768082253994_);}
	.st11{clip-path:url(#SVGID_00000029015151286401167850000012290982641155271820_);}
	
		.st12{clip-path:url(#SVGID_00000074400244865795490270000004546479873294921134_);fill-rule:evenodd;clip-rule:evenodd;fill:#FDF8E0;}
	.st13{clip-path:url(#SVGID_00000074400244865795490270000004546479873294921134_);}
	.st14{clip-path:url(#SVGID_00000071531309572377240230000012802063696584858046_);}
	
		.st15{clip-path:url(#SVGID_00000173134177715215954800000011819851188742565007_);fill-rule:evenodd;clip-rule:evenodd;fill:#F2CA4E;}
	.st16{clip-path:url(#SVGID_00000173134177715215954800000011819851188742565007_);}
	.st17{clip-path:url(#SVGID_00000020387991634659945890000016881535649009862591_);}
	
		.st18{clip-path:url(#SVGID_00000156546179507416659040000002071975618289405867_);fill-rule:evenodd;clip-rule:evenodd;fill:#534578;}
	.st19{clip-path:url(#SVGID_00000156546179507416659040000002071975618289405867_);}
	.st20{clip-path:url(#SVGID_00000151529969697116515210000017166418873771918010_);}
	
		.st21{clip-path:url(#SVGID_00000017476827769015199380000009250156196453617591_);fill-rule:evenodd;clip-rule:evenodd;fill:#FFFFFF;}
	.st22{clip-path:url(#SVGID_00000017476827769015199380000009250156196453617591_);}
	.st23{clip-path:url(#SVGID_00000166670971248796024910000011644284822475460224_);}
</style>
<path class="st3" d="M913.37,260.06H15.13c-8.13,0-14.72-6.59-14.72-14.72V14.67C0.41,6.53,7-0.06,15.13-0.06h898.24
	c8.13,0,14.72,6.59,14.72,14.72v230.67C928.09,253.47,921.5,260.06,913.37,260.06z"/>
<g>
	<g>
		<path class="st1" d="M403.23,124.67v6.38h-7.2l-1.39,7.01h6.38v6.38h-7.63l-1.97,9.84h-6.96l1.92-9.84h-6.53l-1.92,9.84h-7.01
			l1.97-9.84h-5.47v-6.38h6.72l1.39-7.01h-5.9v-6.38h7.15l1.97-9.84h6.96l-1.92,9.84h6.53l1.92-9.84h7.01l-1.97,9.84H403.23z
			 M381.15,138.06h6.53l1.34-7.01h-6.53L381.15,138.06z"/>
		<path class="st1" d="M444.25,125.54h5.33v-11.28h6.72v35.71h-18.77v-35.71h6.72V125.54z M444.25,132.21v11.04h5.33v-11.04H444.25z
			 M469.78,127.55V111.9h7.3v45.07h-7.3v-22.66h-3.26v21.5h-7.01v-43.25h7.01v14.98H469.78z"/>
		<path class="st1" d="M495.22,143.15c4.61,0,9.62-0.43,15.02-1.3l0.91,6.62c-5.76,0.99-11.49,1.49-17.18,1.49h-9.5v-35.23h7.58
			v28.42H495.22z M514.14,124.72V111.9h7.49v45.07h-7.49v-25.44h-12.62v-6.82H514.14z"/>
		<path class="st1" d="M557.96,154.29h-7.54v-29.52l-7.2,5.52l-4.18-5.57l12.82-9.89h6.1V154.29z"/>
	</g>
</g>
</svg>
