<?xml version="1.0" encoding="utf-8"?>
<!-- Generator: Adobe Illustrator 27.4.0, SVG Export Plug-In . SVG Version: 6.00 Build 0)  -->
<svg version="1.1" id="레이어_1" xmlns="http://www.w3.org/2000/svg" xmlns:xlink="http://www.w3.org/1999/xlink" x="0px"
	 y="0px" viewBox="0 0 928.5 260" style="enable-background:new 0 0 928.5 260;" xml:space="preserve">
<style type="text/css">
	.st0{fill:#F2CA4E;}
	.st1{fill:#FFFFFF;}
	.st2{fill:#FDF8E0;}
	.st3{fill:#534578;}
	.st4{fill:#B499C7;}
	.st5{fill:none;stroke:#BFBEBE;stroke-width:0.5;stroke-miterlimit:8;}
	
		.st6{clip-path:url(#SVGID_00000165236754365668804120000012442203750330094506_);fill-rule:evenodd;clip-rule:evenodd;fill:#FFFFFF;}
	.st7{clip-path:url(#SVGID_00000165236754365668804120000012442203750330094506_);}
	.st8{clip-path:url(#SVGID_00000098925834935765673110000005138900771660353202_);}
	
		.st9{clip-path:url(#SVGID_00000147193911094590387080000005631846088382903209_);fill-rule:evenodd;clip-rule:evenodd;fill:#B499C7;}
	.st10{clip-path:url(#SVGID_00000147193911094590387080000005631846088382903209_);}
	.st11{clip-path:url(#SVGID_00000054257612328983681220000004486883356420211588_);}
	
		.st12{clip-path:url(#SVGID_00000119809705234926345590000013072685640805945279_);fill-rule:evenodd;clip-rule:evenodd;fill:#FDF8E0;}
	.st13{clip-path:url(#SVGID_00000119809705234926345590000013072685640805945279_);}
	.st14{clip-path:url(#SVGID_00000151532854397278367490000006004479687392862100_);}
	
		.st15{clip-path:url(#SVGID_00000024721735475637480940000000767575806606643334_);fill-rule:evenodd;clip-rule:evenodd;fill:#F2CA4E;}
	.st16{clip-path:url(#SVGID_00000024721735475637480940000000767575806606643334_);}
	.st17{clip-path:url(#SVGID_00000062910494322741503930000018313510322214841019_);}
	
		.st18{clip-path:url(#SVGID_00000085223271972420861090000007095147120947872654_);fill-rule:evenodd;clip-rule:evenodd;fill:#534578;}
	.st19{clip-path:url(#SVGID_00000085223271972420861090000007095147120947872654_);}
	.st20{clip-path:url(#SVGID_00000031196759216993564130000015019170488032884643_);}
	
		.st21{clip-path:url(#SVGID_00000075144241662592793300000006628415658702593958_);fill-rule:evenodd;clip-rule:evenodd;fill:#FFFFFF;}
	.st22{clip-path:url(#SVGID_00000075144241662592793300000006628415658702593958_);}
	.st23{clip-path:url(#SVGID_00000126300663375210890880000017803860965707862414_);}
</style>
<path class="st0" d="M913.37,260.06H15.13c-8.13,0-14.72-6.59-14.72-14.72V14.67C0.41,6.53,7-0.06,15.13-0.06h898.24
	c8.13,0,14.72,6.59,14.72,14.72v230.67C928.09,253.47,921.5,260.06,913.37,260.06z"/>
<g>
	<g>
		<path class="st1" d="M395.96,124.67v6.38h-7.2l-1.39,7.01h6.38v6.38h-7.63l-1.97,9.84h-6.96l1.92-9.84h-6.53l-1.92,9.84h-7.01
			l1.97-9.84h-5.47v-6.38h6.72l1.39-7.01h-5.9v-6.38h7.15l1.97-9.84h6.96l-1.92,9.84h6.53l1.92-9.84h7.01l-1.97,9.84H395.96z
			 M373.88,138.06h6.53l1.34-7.01h-6.53L373.88,138.06z"/>
		<path class="st1" d="M441.82,125.54h5.33v-11.28h6.72v35.71H435.1v-35.71h6.72V125.54z M441.82,132.21v11.04h5.33v-11.04H441.82z
			 M467.36,127.55V111.9h7.3v45.07h-7.3v-22.66h-3.26v21.5h-7.01v-43.25h7.01v14.98H467.36z"/>
		<path class="st1" d="M492.8,143.15c4.61,0,9.62-0.43,15.02-1.3l0.91,6.62c-5.76,0.99-11.49,1.49-17.18,1.49h-9.5v-35.23h7.58
			v28.42H492.8z M511.71,124.72V111.9h7.49v45.07h-7.49v-25.44h-12.62v-6.82H511.71z"/>
		<path class="st1" d="M563.7,140.46h4.9v6.86h-4.9v7.68h-7.44v-7.68h-18.67v-5.9l16.22-26.59h9.89V140.46z M556.26,124.14
			l-9.6,16.32h9.6V124.14z"/>
	</g>
</g>
</svg>
