<?xml version="1.0" encoding="UTF-8"?>
<svg id="_레이어_1" data-name="레이어 1" xmlns="http://www.w3.org/2000/svg" xmlns:xlink="http://www.w3.org/1999/xlink" viewBox="0 0 928.5 260">
  <defs>
    <style>
      .cls-1 {
        fill: #fff;
      }

      .cls-2 {
        fill: #f5f5f5;
      }

      .cls-3 {
        fill: #455a64;
      }

      .cls-4 {
        fill: #ae7461;
      }

      .cls-5 {
        fill: #ffbf9d;
      }

      .cls-6 {
        fill: #e0e0e0;
      }

      .cls-7 {
        fill: #ff9a6c;
      }

      .cls-8 {
        fill: #6f4439;
      }

      .cls-9 {
        opacity: .3;
      }

      .cls-10 {
        fill: url(#_무제_그라디언트_23);
        opacity: .09;
      }

      .cls-11 {
        clip-path: url(#clippath);
      }

      .cls-12 {
        fill: #ebebeb;
      }

      .cls-13 {
        fill: none;
      }

      .cls-14, .cls-15 {
        fill: #7e57c2;
      }

      .cls-15 {
        font-family: NanumSquareNeoTTF-dEb, 'NanumSquare Neo';
        font-size: 14.02px;
      }

      .cls-16 {
        fill: #263238;
      }
    </style>
    <linearGradient id="_무제_그라디언트_23" data-name="무제 그라디언트 23" x1="1158.28" y1="130.15" x2="230.55" y2="129.95" gradientUnits="userSpaceOnUse">
      <stop offset="0" stop-color="#7e57c2"/>
      <stop offset="1" stop-color="#c59df1"/>
    </linearGradient>
    <clipPath id="clippath">
      <rect class="cls-13" x="13.21" y="37.45" width="250.79" height="223.79" rx="12.79" ry="12.79"/>
    </clipPath>
  </defs>
  <rect class="cls-10" x=".41" y="-.06" width="927.68" height="260.12" rx="14.72" ry="14.72"/>
  <g>
    <rect class="cls-14" x="428.32" y="84.6" width="425.68" height="55.66" rx="9.66" ry="9.66"/>
    <g>
      <path class="cls-14" d="m350.85,111.72c-3.73.67-7.66,1-11.77,1h-6.43v-15.2h16.1v4.57h-10.84v6.07h2.07c2.91,0,6.35-.28,10.3-.83l.57,4.4Zm.1,2.77c1.47,0,2.78.27,3.95.82,1.17.54,2.08,1.33,2.75,2.35s1,2.22,1,3.6-.33,2.54-1,3.57c-.67,1.02-1.58,1.81-2.75,2.35-1.17.54-2.48.82-3.95.82h-7.1c-1.47,0-2.78-.27-3.95-.82-1.17-.54-2.08-1.33-2.75-2.35-.67-1.02-1-2.21-1-3.57s.33-2.58,1-3.6,1.58-1.81,2.75-2.35,2.48-.82,3.95-.82h7.1Zm-.67,8.87c1,0,1.77-.19,2.32-.57.54-.38.82-.9.82-1.57s-.27-1.19-.82-1.57c-.54-.38-1.32-.57-2.32-.57h-5.77c-1,0-1.77.19-2.32.57-.54.38-.82.9-.82,1.57s.27,1.19.82,1.57c.54.38,1.32.57,2.32.57h5.77Zm7.7-27.01v5.67h4.2v4.7h-4.2v6.63h-5.2v-17h5.2Z"/>
      <path class="cls-14" d="m373.82,109.32c-1.56,2.18-3.8,4.21-6.73,6.1l-3.03-4.1c2.73-1.8,4.67-3.62,5.8-5.47,1.13-1.84,1.7-3.86,1.7-6.03v-2.47h5.27v2.47c0,1.76-.23,3.4-.7,4.93l8.07,5.97-3.03,4.07-7.33-5.47Zm.93,7.93v5.7h17.57v4.7h-22.8v-10.4h5.23Zm11.4-20.9h5.2v22.87h-5.2v-22.87Z"/>
      <path class="cls-14" d="m396.03,123.36l-.27-4.7h5.63c1.89,0,4.16-.08,6.8-.25,2.64-.17,5.19-.39,7.63-.68l.6,4.63c-2.38.33-4.96.58-7.75.75-2.79.17-5.41.25-7.85.25h-4.8Zm5.1-8.99c-1.33-.63-2.39-1.6-3.17-2.9-.78-1.3-1.17-2.91-1.17-4.82v-.43c0-2.87.83-5.04,2.48-6.5s3.79-2.2,6.42-2.2c1.69,0,3.2.32,4.52.95s2.37,1.6,3.15,2.9c.78,1.3,1.17,2.92,1.17,4.85v.43c0,1.91-.39,3.52-1.17,4.82-.78,1.3-1.83,2.27-3.15,2.9s-2.83.95-4.52.95-3.23-.32-4.57-.95Zm7.17-4.77c.69-.68,1.03-1.68,1.03-3.02v-.37c0-1.33-.35-2.34-1.03-3.02-.69-.68-1.56-1.02-2.6-1.02s-1.95.34-2.63,1.02c-.69.68-1.03,1.68-1.03,3.02v.37c0,1.33.34,2.34,1.03,3.02.69.68,1.57,1.02,2.63,1.02s1.91-.34,2.6-1.02Zm14.67,18.05h-5.2v-31.31h5.2v31.31Z"/>
      <path class="cls-1" d="m451.74,108.99c-.78.73-1.75,1.29-2.9,1.68-1.16.39-2.43.58-3.83.58-2.6,0-4.71-.62-6.32-1.85s-2.42-3.01-2.42-5.32v-.37c0-2.33.81-4.11,2.42-5.33s3.72-1.83,6.32-1.83c1.47,0,2.78.2,3.95.6,1.17.4,2.14.99,2.92,1.77h5.83v-2.57h5.2v15.2h-5.2v-2.57h-5.97Zm-5.43,13.17v1.7h17.44v3.97h-22.64v-9.43h16.6v-1.53h-16.77v-3.83h21.97v9.14h-16.6Zm-4.83-18.14c0,.91.32,1.6.97,2.05.64.46,1.5.68,2.57.68s1.88-.23,2.52-.68c.63-.46.95-1.14.95-2.05v-.27c0-.91-.32-1.6-.97-2.07-.64-.47-1.48-.7-2.5-.7s-1.9.23-2.55.7c-.66.47-.98,1.16-.98,2.07v.27Zm16.24-1.03h-4.07c.02.16.03.4.03.73v.37c0,.38-.01.66-.03.83h4.07v-1.93Z"/>
      <path class="cls-1" d="m476.64,109.06c-1.53,1.8-3.88,3.45-7.04,4.93l-2.53-4.3c2.36-1.16,4.09-2.35,5.2-3.58s1.76-2.58,1.93-4.05h-5.87v-4.53h17.27v4.53h-6.17c-.07,1.07-.22,1.99-.47,2.77l7.8,4.27-2.6,4.4-7.53-4.43Zm10.44,5.43c1.49,0,2.82.27,4,.82,1.18.54,2.1,1.33,2.77,2.35s1,2.22,1,3.6-.33,2.54-1,3.57c-.67,1.02-1.59,1.81-2.77,2.35-1.18.54-2.51.82-4,.82h-7.33c-1.49,0-2.82-.27-3.98-.82-1.17-.54-2.08-1.33-2.73-2.35-.66-1.02-.98-2.21-.98-3.57s.33-2.58.98-3.6c.66-1.02,1.57-1.81,2.73-2.35s2.5-.82,3.98-.82h7.33Zm-.67,8.87c1.04,0,1.84-.19,2.4-.57s.83-.9.83-1.57-.28-1.19-.83-1.57-1.36-.57-2.4-.57h-6c-1.02,0-1.81.19-2.35.57-.54.38-.82.9-.82,1.57s.27,1.19.82,1.57c.54.38,1.33.57,2.35.57h6Zm-2-16.47v-4.4h4.9v-6.13h5.2v17h-5.2v-6.47h-4.9Z"/>
      <path class="cls-1" d="m507.88,118.56c3.53-.2,6.76-.47,9.67-.8l.57,4.6c-2.29.33-4.8.58-7.52.75-2.72.17-5.27.25-7.65.25h-4.57l-.27-4.7h4.57v-10.17h5.2v10.07Zm2.13-3.93c.76-4.96,1.14-8.76,1.17-11.4h-11.37v-4.73h16.6v2.5c0,4.36-.42,9.15-1.27,14.37l-5.13-.73Zm14.67-7.1h3.87v4.73h-3.87v15.4h-5.23v-31.31h5.23v11.17Z"/>
      <path class="cls-1" d="m558.06,115.46c-2.31.33-4.83.59-7.57.77-2.73.18-5.27.27-7.6.27h-4.57l-.27-4.6h4.93v-6.17h5.2v6.04c3.18-.13,6.29-.39,9.33-.77l.53,4.47Zm-7.5-6.17c.47-3.13.71-5.54.73-7.23h-11.54v-4.37h16.6v1.57c0,3.8-.28,7.33-.83,10.6l-4.97-.57Zm-7.44,9.27h5.2v4.4h17.6v4.7h-22.8v-9.1Zm21.5-22.2v8.57h3.87v4.73h-3.87v10.54h-5.23v-23.84h5.23Z"/>
      <path class="cls-1" d="m580.06,108.02c-1.62,1.98-3.91,3.8-6.87,5.47l-2.87-4.3c2.78-1.53,4.73-3.12,5.87-4.75,1.13-1.63,1.7-3.38,1.7-5.25v-2h5.27v2c0,1.53-.22,3-.67,4.4l8,5.03-2.87,4.23-7.57-4.83Zm17.6,19.64h-21.84v-13h21.84v13Zm-5.2-8.44h-11.44v3.8h11.44v-3.8Zm0-6.03v-16.84h5.2v16.84h-5.2Z"/>
      <path class="cls-1" d="m631.37,112.32h-29.61v-4.07h29.61v4.07Zm-17.9-5.47c-2.6,0-4.68-.43-6.25-1.3-1.57-.87-2.35-2.2-2.35-4s.78-3.06,2.35-3.92c1.57-.85,3.65-1.28,6.25-1.28h6.2c2.6,0,4.68.43,6.25,1.28,1.57.86,2.35,2.16,2.35,3.92s-.78,3.13-2.35,4c-1.57.87-3.65,1.3-6.25,1.3h-6.2Zm15.47,20.97h-23.9v-8.83h17.87v-1.43h-18.04v-3.63h23.24v8.63h-17.87v1.5h18.7v3.77Zm-10.37-24.74c3,0,4.5-.49,4.5-1.47,0-.51-.38-.88-1.13-1.1-.76-.22-1.88-.33-3.37-.33h-4c-1.49,0-2.61.11-3.37.33-.76.22-1.13.59-1.13,1.1,0,.98,1.5,1.47,4.5,1.47h4Z"/>
      <path class="cls-1" d="m662.68,118.46c-2.18.31-4.87.57-8.07.77-.29,3.13-.6,6-.93,8.6l-5.07-.63c.4-3.38.67-5.97.8-7.77-.53.02-1.31.03-2.33.03h-4.8l-.27-4.7h5.63c1.89,0,4.16-.08,6.8-.25,2.64-.17,5.19-.39,7.63-.68l.6,4.63Zm-17.17-8.12c-1.64-1.26-2.47-3.07-2.47-5.45v-.33c0-2.42.82-4.26,2.47-5.5,1.64-1.24,3.79-1.87,6.43-1.87s4.75.62,6.38,1.87c1.63,1.25,2.45,3.08,2.45,5.5v.33c0,2.38-.82,4.2-2.45,5.45s-3.76,1.88-6.38,1.88-4.79-.63-6.43-1.88Zm2.77-5.52c0,.98.33,1.71,1,2.18.67.48,1.56.72,2.67.72s1.94-.24,2.62-.72c.68-.48,1.02-1.21,1.02-2.18v-.23c0-.98-.34-1.71-1.02-2.18-.68-.48-1.55-.72-2.62-.72s-2,.24-2.67.72c-.67.48-1,1.21-1,2.18v.23Zm15.74,22.84v-31.31h5.2v31.31h-5.2Z"/>
      <path class="cls-1" d="m685.12,98.75h6.63v4.2h-18.54v-4.2h6.63v-2.7h5.27v2.7Zm5.43,11.77c0,1.93-.75,3.42-2.25,4.47-1.5,1.05-3.43,1.57-5.78,1.57s-4.29-.52-5.8-1.57c-1.51-1.04-2.27-2.53-2.27-4.47v-.4c0-1.93.75-3.42,2.27-4.45,1.51-1.03,3.44-1.55,5.8-1.55s4.28.52,5.78,1.55c1.5,1.03,2.25,2.52,2.25,4.45v.4Zm-12.67,8.03h5.2v4.4h17.27v4.7h-22.47v-9.1Zm1.63-8.07c0,.62.28,1.11.83,1.45.55.34,1.28.52,2.17.52s1.61-.17,2.17-.52.83-.83.83-1.45v-.33c0-.62-.28-1.1-.83-1.43s-1.28-.5-2.17-.5-1.61.17-2.17.5c-.56.33-.83.81-.83,1.43v.33Zm19.54-14.14v8.24h4.2v4.73h-4.2v10.2h-5.2v-23.17h5.2Z"/>
      <path class="cls-1" d="m713.25,112.96v-4.03h29.61v4.03h-29.61Zm22.21-9.33h4.3v3.9h-23.41v-3.9h4.3v-3.07h-4.3v-3.87h23.41v3.87h-4.3v3.07Zm4.13,19.07h-17.87v1.43h18.7v3.7h-23.9v-8.63h17.87v-1.37h-18.04v-3.57h23.24v8.44Zm-9.17-22.14h-4.73v3.07h4.73v-3.07Z"/>
      <path class="cls-1" d="m752.63,118.79c2.02,0,4.04-.18,6.07-.53l.53,4.5c-1.89.44-4.41.67-7.57.67h-5.93v-15h6.67v-5.47h-6.67v-4.63h11.57v14.64h-6.67v5.83h2Zm5.93-11.27h2.6v-10.7h4.87v30.04h-4.87v-14.6h-2.6v-4.73Zm9.43,20.14v-31.31h5.04v31.31h-5.04Z"/>
      <path class="cls-1" d="m779.77,121.16c-1.62-1.73-2.43-4.43-2.43-8.1v-4.83c0-3.67.81-6.37,2.43-8.1,1.62-1.73,3.75-2.6,6.37-2.6s4.71.87,6.33,2.6c1.62,1.73,2.43,4.43,2.43,8.1v4.83c0,3.67-.81,6.37-2.43,8.1-1.62,1.73-3.73,2.6-6.33,2.6s-4.75-.87-6.37-2.6Zm8.95-3.48c.66-.92.98-2.46.98-4.62v-4.83c0-2.16-.33-3.7-.98-4.62-.66-.92-1.52-1.38-2.58-1.38s-1.93.46-2.6,1.38c-.67.92-1,2.46-1,4.62v4.83c0,2.16.33,3.7,1,4.62s1.53,1.38,2.6,1.38,1.93-.46,2.58-1.38Zm15.25,9.99h-5.2v-31.31h5.2v31.31Z"/>
      <path class="cls-1" d="m808.07,125.66v-4.73h29.61v4.73h-29.61Zm14.17-16.84c-2.38,2.76-5.97,5.19-10.77,7.3l-2.4-4.5c4.11-1.87,7.04-3.77,8.77-5.7,1.73-1.93,2.6-3.96,2.6-6.07v-2.23h5.2v2.23c0,1.58-.27,3.1-.8,4.57l11.83,7.33-2.8,4.37-11.64-7.3Z"/>
      <path class="cls-1" d="m844.78,131.46h-4.27l.73-11.1h5.37l-1.83,11.1Z"/>
      <path class="cls-14" d="m332.25,169.63h29.61v4.73h-12.2v8.17h-5.2v-8.17h-12.2v-4.73Zm11.87-2.87c-1.73,0-3.28-.32-4.65-.95-1.37-.63-2.43-1.53-3.2-2.68-.77-1.16-1.15-2.49-1.15-4s.38-2.81,1.15-3.97c.77-1.16,1.83-2.04,3.2-2.67,1.37-.62,2.92-.93,4.65-.93h5.87c1.75,0,3.32.31,4.68.93,1.37.62,2.43,1.51,3.2,2.67.77,1.16,1.15,2.48,1.15,3.97s-.38,2.84-1.15,4c-.77,1.16-1.84,2.05-3.22,2.68-1.38.63-2.93.95-4.67.95h-5.87Zm1-10.74c-1.49,0-2.66.27-3.52.82-.86.54-1.28,1.32-1.28,2.32s.43,1.78,1.28,2.35c.85.57,2.03.85,3.52.85h3.87c1.49,0,2.67-.28,3.53-.85.87-.57,1.3-1.35,1.3-2.35s-.43-1.77-1.3-2.32c-.87-.54-2.04-.82-3.53-.82h-3.87Z"/>
      <path class="cls-14" d="m365.22,177.97v-15h10.74v-5.47h-10.74v-4.63h15.94v14.64h-10.74v5.83h2.8c3.22,0,6.63-.28,10.24-.83l.63,4.47c-3.6.67-7.53,1-11.8,1h-7.07Zm26.14,4.23h-5.2v-31.31h5.2v31.31Z"/>
      <path class="cls-14" d="m421.2,169.83v5.63h12.2v4.73h-29.61v-4.73h12.2v-5.63h-8.94v-17.17h23.07v17.17h-8.94Zm3.73-12.5h-12.67v7.87h12.67v-7.87Z"/>
      <path class="cls-14" d="m452.8,169.83v5.63h12.2v4.73h-29.61v-4.73h12.2v-5.63h-8.94v-17.17h22.77v4.67h-17.57v7.87h17.87v4.63h-8.94Z"/>
      <path class="cls-14" d="m483.28,162.06v-10.7h4.9v30.04h-4.9v-14.6h-2.23v.8c0,3.67-.62,6.37-1.87,8.1-1.25,1.73-2.89,2.6-4.93,2.6s-3.76-.86-5-2.58c-1.25-1.72-1.87-4.43-1.87-8.12v-4.83c0-3.69.62-6.4,1.87-8.12,1.24-1.72,2.91-2.58,5-2.58,1.98,0,3.58.81,4.82,2.42,1.23,1.61,1.89,4.14,1.98,7.58h2.23Zm-7.1.7c0-4-.65-6-1.93-6s-1.97,2-1.97,6v4.83c0,4,.66,6,1.97,6s1.93-2,1.93-6v-4.83Zm13.94,19.44v-31.31h5.07v31.31h-5.07Z"/>
      <path class="cls-14" d="m511.15,157c0,2.45-.27,4.79-.8,7.03l8.33,10.4-4.03,3.37-6.37-8c-1.51,3-3.52,5.77-6.04,8.3l-3.8-3.5c2.67-2.78,4.58-5.56,5.73-8.33,1.16-2.78,1.73-5.87,1.73-9.27v-4.47h5.23v4.47Zm9.77,3.77v-9.87h5.2v31.31h-5.2v-16.7h-6.2v-4.73h6.2Z"/>
      <path class="cls-14" d="m538.79,152.23h16.27v16.47h-16.27v-16.47Zm4.33,19.57h5.2v5.7h17.27v4.7h-22.47v-10.4Zm.7-7.63h6.2v-7.4h-6.2v7.4Zm20.47-13.27v6.97h4.2v4.7h-4.2v11.2h-5.2v-22.87h5.2Z"/>
      <path class="cls-14" d="m578,172.6c3.04,0,6.45-.29,10.2-.87l.57,4.6c-4,.67-7.89,1-11.67,1h-6.53v-24.47h5.27v19.74h2.17Zm17.9-10.83h4.2v4.7h-4.2v15.74h-5.2v-31.31h5.2v10.87Z"/>
      <path class="cls-14" d="m624.64,171.3v4.17h6.74v4.73h-29.61v-4.73h6.77v-4.17h5.03v4.17h6.03v-4.17h5.03Zm-10.94-1.63c-1.8,0-3.4-.38-4.8-1.15s-2.49-1.82-3.27-3.15c-.78-1.33-1.17-2.82-1.17-4.47s.39-3.13,1.17-4.45c.78-1.32,1.87-2.37,3.28-3.13s3.01-1.15,4.78-1.15h5.73c1.78,0,3.37.38,4.79,1.15,1.41.77,2.51,1.82,3.3,3.15.79,1.33,1.18,2.81,1.18,4.43s-.39,3.13-1.18,4.47-1.88,2.38-3.28,3.15-3,1.15-4.8,1.15h-5.73Zm1-12.87c-1.53,0-2.76.37-3.67,1.12-.91.74-1.37,1.75-1.37,3.02s.46,2.31,1.37,3.07c.91.76,2.13,1.13,3.67,1.13h3.73c1.53,0,2.76-.38,3.68-1.13.92-.75,1.38-1.78,1.38-3.07s-.46-2.27-1.38-3.02c-.92-.75-2.15-1.12-3.68-1.12h-3.73Z"/>
      <path class="cls-14" d="m635.62,179.92c-.61-.61-.92-1.35-.92-2.22s.3-1.61.92-2.22,1.35-.92,2.22-.92,1.61.31,2.22.92c.61.61.92,1.35.92,2.22s-.31,1.61-.92,2.22-1.35.92-2.22.92-1.61-.31-2.22-.92Zm4.62-8.38h-4.8l-.53-19.44h5.87l-.53,19.44Z"/>
    </g>
  </g>
  <g class="cls-11">
    <g>
      <g id="freepik--background-complete--inject-109">
        <path class="cls-12" d="m213.54,77.34c6.24-2.43,9.33-9.46,6.89-15.7-2.43-6.24-9.46-9.33-15.7-6.89-6.24,2.43-9.33,9.46-6.89,15.7,1.23,3.16,3.73,5.66,6.89,6.89-18.64,2.64-17.78,21.66-17.78,21.66l44.07.19s1-19.22-17.48-21.85Z"/>
        <circle class="cls-6" cx="228.65" cy="96.03" r="12.93"/>
        <path class="cls-1" d="m241.49,97.42c0-.07,0-.14,0-.21v-1.61c-.01-.45-.05-.91-.13-1.35-.18-1.23-.54-2.43-1.08-3.56-.69-1.49-1.66-2.84-2.86-3.97-3.16-2.99-7.63-4.17-11.86-3.12-.59.14-1.17.32-1.74.54-.58.24-1.13.52-1.67.84-1.12.64-2.12,1.45-2.98,2.41-.9.98-1.65,2.1-2.2,3.31-1.15,2.51-1.46,5.33-.87,8.03.28,1.3.76,2.55,1.44,3.7.32.56.68,1.1,1.08,1.62.41.49.84.95,1.31,1.38.45.42.94.81,1.45,1.17.5.34,1.03.64,1.58.91,2.06,1.01,4.34,1.45,6.63,1.28,1.99-.15,3.92-.76,5.63-1.79,1.41-.85,2.65-1.95,3.65-3.27.76-.98,1.36-2.07,1.79-3.23.17-.42.31-.85.41-1.29.05-.19.11-.37.14-.54s.06-.31.08-.45c.05-.25.08-.45.11-.6,0-.07.02-.14.04-.2,0,.07,0,.14,0,.21l-.09.61-.06.45c-.03.16-.08.34-.13.54-.1.45-.23.89-.39,1.31-.42,1.18-1.01,2.3-1.77,3.3-2.24,3-5.65,4.89-9.38,5.2-2.32.17-4.65-.28-6.74-1.3-.56-.27-1.1-.58-1.62-.92-.52-.36-1.02-.76-1.48-1.2-.48-.44-.93-.91-1.34-1.41-.4-.51-.78-1.05-1.11-1.62-.69-1.17-1.19-2.44-1.48-3.77-.61-2.76-.29-5.64.89-8.2.56-1.24,1.32-2.38,2.25-3.38.45-.49.93-.94,1.43-1.37.52-.39,1.06-.75,1.62-1.08,1.08-.64,2.26-1.12,3.48-1.41,2.27-.55,4.64-.48,6.88.19,3.58,1.09,6.51,3.67,8.05,7.08.53,1.14.87,2.36,1.03,3.61.07.45.1.91.1,1.36v.54c0,.16,0,.32-.03.45-.02.26-.04.46-.05.61,0,.06-.01.12-.03.18Z"/>
        <polygon class="cls-1" points="227.71 102.04 221 96.42 222.97 94.09 227.46 97.85 234.36 90.52 236.58 92.61 227.71 102.04"/>
        <path class="cls-6" d="m247.3,75.86c-.99,1.2-2.05,2.33-3.17,3.4-1.06,1.15-2.18,2.23-3.37,3.23.99-1.2,2.05-2.33,3.17-3.4,1.06-1.14,2.19-2.22,3.37-3.23Z"/>
        <path class="cls-6" d="m258.84,85.52c-.17.11-.35.19-.54.26-.36.16-.88.36-1.53.6-1.3.48-3.11,1.08-5.15,1.65s-3.91.98-5.28,1.23c-.68.12-1.23.22-1.62.27-.2.04-.4.06-.6.06.19-.08.38-.14.58-.17l1.62-.36c1.35-.31,3.21-.75,5.24-1.31s3.85-1.14,5.16-1.57l1.56-.54c.18-.07.37-.11.56-.13Z"/>
        <path class="cls-6" d="m252.26,103.38c-1.37-.6-2.7-1.3-3.98-2.07-1.33-.69-2.61-1.47-3.85-2.32,1.37.61,2.7,1.3,3.99,2.07,1.33.69,2.61,1.46,3.84,2.31Z"/>
        <path class="cls-12" d="m232.59,69.21c2.15-.84,3.21-3.26,2.37-5.4-.84-2.15-3.26-3.21-5.4-2.37-2.15.84-3.21,3.26-2.37,5.4.42,1.09,1.28,1.94,2.37,2.37-6.41.91-6.13,7.44-6.13,7.44l15.15.06s.36-6.61-5.99-7.51Z"/>
        <path class="cls-12" d="m26.64,160.39s-4.97.92-1.62,11.58c3.35,10.66,5.98,16.11,5.98,16.11,0,0,.5,2.42-1.51,2.45s-6.16-1.39-7.44.8.05,4.85,3.33,7.51c3.28,2.66,10.24,8.66,10.85,9.2s1.12,1.71-.25,1.95-11.15-.44-11.2,4.16,10.3,10.45,11.41,11.12,1.31,1.21,1.08,1.84-3.49.1-6.28.03-6.05.32-5.85,2.97c.2,2.65,5.79,9.12,21.41,13.39l7.37,1.51,5.14-5.47c10.24-12.39,11.03-20.83,9.63-23.12s-4.28-.75-6.51.91-4.59,3.94-5.14,3.55-.71-.95-.18-2.16,5.53-11.86,2.81-15.57-10.34,2.39-11.58,2.98-1.52-.66-1.34-1.44,2.33-9.7,3.46-13.7.73-6.92-1.68-8.02c-2.33-1.08-4.9,2.46-6.55,3.58-1.65,1.13-2.67-1.14-2.67-1.14,0,0-1.03-5.94-4.56-16.56-3.53-10.62-8.23-8.45-8.23-8.45"/>
        <path class="cls-6" d="m54.01,246.78c-2.56-7.79-6.87-21.72-10.63-33.66s-7.18-22.73-9.7-30.54l-2.99-9.24c-.35-1.08-.62-1.93-.81-2.51l-.2-.66c-.04-.15-.06-.23-.06-.23,0,0,.03.08.09.22l.23.65.85,2.5c.74,2.16,1.79,5.32,3.07,9.22,2.56,7.79,6,18.59,9.76,30.53,3.76,11.94,8.05,25.87,10.57,33.68"/>
        <path class="cls-6" d="m27.77,193.53c.17.06.34.13.49.23.31.16.75.4,1.29.71,1.08.61,2.55,1.5,4.16,2.52l4.11,2.6,1.24.78c.16.09.31.19.45.31-.17-.06-.34-.14-.5-.23-.31-.16-.75-.41-1.29-.72-1.08-.63-2.54-1.54-4.14-2.54l-4.12-2.57-1.25-.78c-.16-.08-.31-.19-.45-.31Z"/>
        <path class="cls-6" d="m40.1,200.29c-.05-.03,1.67-3.1,3.86-6.86,2.19-3.76,4.01-6.78,4.07-6.75s-1.68,3.1-3.86,6.86-4.01,6.78-4.06,6.75Z"/>
        <path class="cls-6" d="m45.06,218.88c.11-.15.24-.28.38-.4l1.08-1.03c.92-.87,2.16-2.08,3.52-3.46s2.52-2.69,3.36-3.62l.99-1.11c.11-.15.24-.28.39-.39-.09.16-.2.31-.32.45-.22.28-.54.68-.94,1.17-.81.97-1.97,2.28-3.32,3.67-1.35,1.38-2.63,2.59-3.58,3.43-.47.42-.86.76-1.14.98-.13.12-.27.23-.42.33Z"/>
        <path class="cls-6" d="m32.52,215.18c.17.02.34.05.5.1l1.35.34c1.14.3,2.69.73,4.44,1.21,1.75.48,3.29.94,4.41,1.28l1.34.41c.17.04.33.1.48.18-.17-.01-.34-.05-.51-.1l-1.35-.34c-1.14-.3-2.69-.73-4.43-1.22s-3.29-.94-4.42-1.28l-1.33-.41c-.17-.04-.33-.1-.48-.18Z"/>
        <path class="cls-6" d="m34.77,232.14c.22.02.43.07.64.13l1.74.43c1.46.38,3.48.91,5.7,1.51s4.23,1.16,5.69,1.58l1.71.5c.21.05.42.12.62.22-.22-.02-.44-.07-.65-.13l-1.74-.43c-1.46-.38-3.48-.91-5.7-1.51s-4.23-1.16-5.68-1.58l-1.74-.5c-.21-.05-.41-.13-.6-.22Z"/>
        <path class="cls-6" d="m50.5,236.3c.14-.19.3-.37.47-.54l1.33-1.36c1.13-1.15,2.67-2.74,4.31-4.54s3.11-3.47,4.16-4.68l1.24-1.44c.14-.19.3-.36.47-.51-.12.19-.26.37-.4.54-.27.36-.68.87-1.19,1.49-1.01,1.24-2.45,2.93-4.12,4.74s-3.23,3.38-4.38,4.5c-.58.54-1.08,1.01-1.38,1.31-.16.18-.33.35-.52.5Z"/>
        <path class="cls-2" d="m43.45,56.54l2.92-1.3,2.41-11.71-2.6-5.83s4.39-2.29,7.26,5.58c2.87,7.87,2.58,5.66,2.58,5.66,0,0,9.59-4.24,10.78-3.77.85.35,5.35,9.75,7.75,14.86,1.21,2.58.7,5.7-1.45,7.39-.3.24-.62.44-.97.6-2.39,1.08-15.46,4.56-15.46,4.56l-5.04,2.25-8.19-18.29Z"/>
        <polygon class="cls-2" points="34.38 58.67 45.08 77.83 50.08 75.6 41.35 56.04 34.38 58.67"/>
        <path class="cls-2" d="m30.61,118.61c2.37-.92,3.53-3.59,2.61-5.95-.92-2.37-3.59-3.53-5.95-2.61s-3.53,3.59-2.61,5.95c.47,1.2,1.41,2.14,2.61,2.61-7.07,1-6.75,8.19-6.75,8.19l16.7.07s.39-7.27-6.62-8.26Z"/>
      </g>
      <path class="cls-16" d="m134.18,275.57l-72.92-.04c-8.77,0-15.88-7.11-15.88-15.89l.04-182.82c0-8.77,7.12-15.88,15.89-15.88,0,0,0,0,0,0l72.92.04c8.77,0,15.88,7.12,15.88,15.89l-.03,182.82c0,8.77-7.12,15.88-15.9,15.88h0Z"/>
      <path class="cls-1" d="m134.15,67.45h-14.14c-1.94.04-3.47,1.65-3.43,3.59v2.57c.04,1.94-1.49,3.54-3.43,3.59h-27.56c-1.94-.05-3.47-1.65-3.43-3.59v-2.59c.04-1.94-1.5-3.54-3.44-3.59h-17.34c-6.14,0-11.12,4.97-11.13,11.12h0s-.04,178.45-.04,178.45c0,6.14,4.98,11.12,11.12,11.13l72.78.04c6.14,0,11.13-4.98,11.13-11.12l.05-178.46c0-6.15-4.98-11.13-11.13-11.13,0,0,0,0-.01,0Z"/>
      <path class="cls-6" d="m128.85,256.25h-62.23c-1.55,0-2.8-1.26-2.8-2.81v-17.01c0-1.55,1.25-2.8,2.8-2.81h62.23c1.55,0,2.8,1.26,2.8,2.81v17.01c0,1.55-1.25,2.8-2.8,2.81Zm-62.23-22.09c-1.25,0-2.26,1.02-2.26,2.27v17.01c0,1.25,1.01,2.27,2.26,2.27h62.23c1.25,0,2.26-1.02,2.26-2.27v-17.01c0-1.25-1.01-2.27-2.26-2.27h-62.23Z"/>
      <path class="cls-14" d="m80.96,243.6c0-2.78-2.25-5.04-5.03-5.04-2.78,0-5.04,2.25-5.04,5.03,0,.9.24,1.78.7,2.56h0c.19.33.44.54.68.9l2.93,3.88c.31.4.88.48,1.28.17.06-.05.12-.11.17-.17l2.88-3.82c.26-.31.5-.63.73-.97h0c.46-.77.71-1.65.72-2.54Zm-5.04,2.2c-1.23,0-2.22-.99-2.23-2.21,0-1.23.99-2.22,2.21-2.23,1.23,0,2.22.99,2.23,2.21,0,0,0,0,0,0,0,1.22-.99,2.21-2.21,2.22h0Z"/>
      <rect class="cls-6" x="88.7" y="242.14" width="36.52" height="5.98" rx="2.67" ry="2.67"/>
      <rect class="cls-6" x="71.7" y="221.65" width="52.09" height="5.16" rx="2.3" ry="2.3"/>
      <path class="cls-16" d="m67.3,85.68h-6.78c-.3,0-.54-.24-.54-.54h0c0-.3.24-.54.54-.54h6.78c.3,0,.54.24.54.54h0c0,.3-.24.54-.54.54h0Z"/>
      <path class="cls-16" d="m67.24,87.89h-6.78c-.3,0-.54-.24-.54-.54h0c0-.3.24-.54.54-.54h6.78c.3,0,.54.24.54.54h0c0,.3-.24.54-.54.54Z"/>
      <path class="cls-16" d="m67.16,90.09h-6.76c-.3,0-.54-.24-.54-.54h0c0-.3.24-.54.54-.54h6.76c.3,0,.54.24.54.54h0c0,.3-.24.54-.54.54Z"/>
      <g id="freepik--Calendar--inject-109">
        <path class="cls-1" d="m172.67,52.23l-38.89-6.26c-1.96-.3-3.8,1.03-4.12,3l-6.24,38.89c-.32,1.97,1.02,3.82,2.98,4.13,0,0,0,0,0,0l1.16.18,10.8,1.76,26.91,4.31c1.96.32,3.81-1.02,4.13-2.98,0,0,0,0,0,0l6.25-38.89c.32-1.97-1.01-3.82-2.98-4.14,0,0,0,0,0,0Z"/>
        <path class="cls-14" d="m173.9,67.32l-46.01-7.39h0l1.86-11.56c.26-1.64,1.81-2.76,3.45-2.49l39.94,6.41c1.71.27,2.87,1.88,2.6,3.59h0s-1.83,11.43-1.83,11.43h0Z"/>
        <path class="cls-16" d="m146.91,69.04l-2.51,15.63-3.62-.58,2.05-12.74-3.13-.5.47-2.9,6.75,1.09Z"/>
        <path class="cls-16" d="m161.87,71.44l-.38,2.34-7.94,12.36-3.93-.63,7.65-11.79-5.18-.81-.41,2.55-3.23-.54.88-5.5,12.55,2.01Z"/>
        <path class="cls-16" d="m145.48,56.32c0,.08,3.14.66,7.04,1.28,3.9.63,7.07,1.08,7.08.99s-3.14-.66-7.03-1.28-7.07-1.09-7.09-.99Z"/>
        <path class="cls-16" d="m172.67,52.23c.15.02.3.05.45.09.44.12.86.33,1.22.61.59.46,1.03,1.1,1.24,1.82.14.46.19.94.13,1.41-.06.51-.16,1.03-.24,1.62-.72,4.51-1.75,11.02-3.02,19.07-.65,4.03-1.35,8.43-2.1,13.16-.19,1.19-.38,2.39-.58,3.61-.1.61-.18,1.22-.31,1.85-.14.64-.44,1.23-.88,1.72-.45.49-1.03.85-1.67,1.05-.65.19-1.33.21-1.99.06l-3.94-.63-34.62-5.56c-1.63-.28-2.9-1.59-3.11-3.23-.05-.39-.04-.79.03-1.18l.18-1.13c.12-.75.24-1.5.36-2.25.48-2.99.96-5.93,1.42-8.83.93-5.79,1.83-11.38,2.69-16.7.43-2.66.85-5.25,1.26-7.78.1-.63.2-1.26.3-1.88.05-.32.12-.63.23-.93.11-.3.27-.58.46-.84.37-.52.87-.93,1.44-1.2.57-.26,1.19-.37,1.82-.33,4.75.73,9.16,1.47,13.18,2.11l19.05,3.1,5.17.87,1.35.23c.3.05.46.09.46.09,0,0-.16,0-.46-.06l-1.35-.2-5.18-.81-19.07-3.02c-4-.63-8.44-1.35-13.16-2.07-1.21-.08-2.37.47-3.07,1.45-.17.25-.32.51-.43.79-.1.29-.17.59-.22.89-.1.62-.2,1.24-.3,1.88l-1.24,7.78-2.69,16.7c-.46,2.9-.93,5.84-1.41,8.84-.12.74-.24,1.5-.36,2.25-.17.73-.25,1.49-.22,2.24.2,1.53,1.38,2.75,2.9,3l34.62,5.57,3.94.64c.62.14,1.27.13,1.89-.05.6-.18,1.14-.52,1.56-.98.42-.45.71-1.01.84-1.62.12-.6.2-1.23.31-1.84.2-1.23.4-2.43.59-3.61.77-4.73,1.48-9.16,2.13-13.16,1.3-8.05,2.37-14.55,3.1-19.06.09-.54.19-1.08.25-1.62.06-.46.01-.94-.12-1.38-.34-1.16-1.24-2.08-2.39-2.43-.15-.05-.26-.06-.33-.09h-.09Z"/>
        <rect class="cls-6" x="141.02" y="47.18" width="10.52" height="3.03" rx="1.47" ry="1.47" transform="translate(75.02 185.42) rotate(-80.88)"/>
        <path class="cls-16" d="m145.42,53.89c-.3-.09-.58-.26-.8-.48-.24-.27-.37-.63-.35-.99.04-.41.16-.92.24-1.47l.65-3.85c.12-.73.24-1.49.37-2.28.05-.37.24-.71.54-.93.31-.22.7-.3,1.08-.22.38.06.71.29.91.61.2.32.25.71.16,1.08-.12.79-.24,1.55-.36,2.28-.22,1.44-.42,2.75-.59,3.86-.04.27-.08.54-.11.79-.03.23-.07.46-.13.68-.13.34-.38.62-.7.78-.29.13-.61.18-.92.15.08.04.16.06.24.06.25.03.5,0,.73-.11.37-.16.66-.46.81-.83.07-.23.13-.47.16-.71.04-.25.09-.51.14-.78.18-1.11.4-2.41.65-3.85.12-.73.25-1.49.38-2.28.11-.43.04-.89-.19-1.28-.25-.4-.65-.67-1.12-.74-.87-.19-1.73.36-1.93,1.23-.01.06-.02.11-.03.17-.12.79-.24,1.55-.36,2.28-.22,1.44-.41,2.75-.59,3.87-.08.54-.17,1.03-.2,1.5,0,.4.15.79.44,1.08.17.18.39.31.63.37.17.04.26.04.26.03Z"/>
        <rect class="cls-6" x="155.07" y="49.43" width="10.52" height="3.03" rx="1.47" ry="1.47" transform="translate(84.62 201.18) rotate(-80.88)"/>
        <path class="cls-16" d="m159.46,56.14c-.3-.09-.57-.26-.79-.48-.24-.27-.37-.63-.36-.99.04-.41.16-.93.24-1.47.19-1.12.41-2.41.65-3.85l.37-2.28c.08-.73.74-1.26,1.47-1.17.05,0,.1.01.14.02.38.06.71.28.92.61.19.32.25.71.16,1.08-.12.79-.25,1.55-.36,2.28-.22,1.44-.41,2.75-.59,3.87-.04.27-.08.54-.11.78-.02.23-.07.46-.13.68-.13.34-.38.62-.7.78-.29.13-.61.18-.92.16.08.04.16.06.25.06.25.03.49,0,.72-.11.37-.16.66-.46.81-.83.08-.23.13-.47.16-.71.05-.25.09-.54.14-.78.19-1.12.4-2.42.65-3.86l.36-2.28c.11-.43.04-.89-.19-1.28-.25-.4-.65-.67-1.12-.75-.45-.1-.93,0-1.3.27-.35.27-.58.68-.62,1.13-.12.79-.24,1.55-.36,2.28-.22,1.44-.42,2.75-.59,3.86-.07.54-.17,1.03-.2,1.5,0,.4.15.79.44,1.08.17.18.39.31.63.38.08.03.16.03.24.03Z"/>
      </g>
      <g id="freepik--character-4--inject-109">
        <rect class="cls-1" x="162.99" y="216.1" width="89.5" height="36.01" rx="5.4" ry="5.4"/>
        <path class="cls-16" d="m247.1,252.1h.16c.1,0,.26,0,.46-.04.61-.08,1.19-.26,1.74-.54.89-.44,1.63-1.12,2.16-1.96.34-.53.58-1.12.71-1.74.12-.71.15-1.44.11-2.16v-23.88c.02-.67-.07-1.33-.27-1.97-.68-2.03-2.51-3.46-4.65-3.62-.71-.04-1.47,0-2.2,0h-76.88c-2.08,0-3.96,1.23-4.81,3.12-.2.46-.34.94-.4,1.44-.05.51-.07,1.01-.05,1.52v23.79c-.07.94.09,1.87.45,2.74.76,1.7,2.37,2.88,4.22,3.09.45.04.91.04,1.37.04h4.11l38.42.03,25.9.04,7.04.03h2.46-2.46l-7.04.03-25.9.04-38.42.03h-4.11c-.47.01-.93,0-1.4-.03-1.95-.22-3.63-1.45-4.44-3.23-.38-.9-.54-1.87-.48-2.85v-23.74c-.02-.52,0-1.04.05-1.55.07-.52.22-1.04.43-1.52.89-2,2.87-3.29,5.06-3.29h79.1c2.22.16,4.13,1.65,4.82,3.77.21.65.3,1.34.28,2.03v23.88c.03.72-.01,1.44-.13,2.16-.13.63-.38,1.23-.73,1.76-.54.85-1.3,1.53-2.21,1.97-.55.27-1.15.44-1.76.5-.49.09-.7.09-.7.09Z"/>
        <path class="cls-14" d="m239.78,241.88c-3.65,0-6.62-2.96-6.62-6.62s2.96-6.62,6.62-6.62,6.62,2.96,6.62,6.62h0c0,3.65-2.97,6.61-6.62,6.62Zm0-12.16c-3.06,0-5.54,2.48-5.54,5.54s2.48,5.54,5.54,5.54,5.54-2.48,5.54-5.54h0c0-3.05-2.49-5.53-5.54-5.53h0Z"/>
        <path class="cls-6" d="m225.74,239.77h-22.86c-2.02,0-3.66-1.63-3.66-3.65h0c0-2.03,1.63-3.67,3.65-3.67h22.87c2.02,0,3.66,1.64,3.66,3.66h0c0,2.02-1.64,3.66-3.66,3.66Z"/>
        <circle class="cls-1" cx="182.11" cy="235.13" r="13.74"/>
        <path class="cls-16" d="m195.81,236.03v-1.36c0-.18-.03-.37-.05-.58-.03-.48-.09-.96-.19-1.43-.24-1.3-.67-2.56-1.29-3.73-1.79-3.48-4.99-6.03-8.78-7.01-.56-.14-1.14-.25-1.71-.31-.29-.03-.58-.08-.88-.09h-1.36l-.46.04c-.31.03-.62.04-.93.09-1.27.2-2.5.56-3.68,1.08-.3.13-.59.3-.88.45-.3.15-.59.32-.86.51-.56.37-1.1.78-1.62,1.21-.51.47-.99.96-1.43,1.49-.92,1.08-1.66,2.3-2.19,3.62-1.11,2.73-1.3,5.74-.54,8.58.36,1.37.93,2.68,1.7,3.87.38.58.79,1.14,1.23,1.67.45.5.94.97,1.45,1.41.25.22.51.43.79.62.27.19.54.39.81.54.55.34,1.13.64,1.72.89.58.25,1.17.47,1.78.65.3.09.61.14.91.21l.45.1c.15.03.3.05.45.06l.89.11h.89c.58.01,1.16-.02,1.74-.09,3.89-.47,7.39-2.59,9.62-5.81.76-1.08,1.35-2.27,1.76-3.53.16-.45.29-.92.38-1.4.05-.2.1-.39.12-.57s.04-.33.06-.47c.04-.28.06-.5.09-.65s.03-.22.03-.22v.22c0,.15-.04.37-.06.65,0,.15-.03.3-.05.48s-.07.37-.11.57c-.09.48-.21.95-.36,1.41-.39,1.27-.98,2.48-1.74,3.58-2.23,3.27-5.77,5.43-9.7,5.93-.58.07-1.17.1-1.76.09h-.9l-.91-.1c-.15,0-.31-.03-.46-.06l-.46-.1c-.3-.08-.61-.13-.92-.21-.62-.18-1.22-.4-1.81-.66-.6-.26-1.19-.57-1.75-.91-.28-.18-.54-.38-.82-.57-.28-.19-.55-.4-.8-.63-1.08-.88-2-1.94-2.73-3.12-.79-1.21-1.37-2.54-1.73-3.93-.37-1.44-.51-2.93-.43-4.41.12-1.48.45-2.93,1-4.31.54-1.34,1.29-2.58,2.23-3.68.45-.54.94-1.04,1.46-1.51.52-.45,1.08-.86,1.65-1.23.28-.2.57-.38.87-.54.3-.15.59-.32.89-.45.6-.27,1.22-.49,1.85-.67.62-.18,1.25-.32,1.88-.41.31-.04.63-.06.94-.09l.46-.04h1.38c.3,0,.6.06.9.1.58.07,1.16.17,1.73.32,3.83,1,7.05,3.59,8.85,7.12.61,1.18,1.04,2.46,1.26,3.77.09.48.15.96.18,1.44,0,.21.03.4.04.58v1.14c0,.16-.1.26-.1.26Z"/>
        <path class="cls-14" d="m170.5,242.25l6.05-1.83,9.83,1.51,6.6,1.47c-2.58,3.4-6.62,5.39-10.89,5.35-3.21-.02-6.31-1.17-8.77-3.23-1.12-.92-2.07-2.03-2.81-3.27Z"/>
        <path class="cls-5" d="m189.89,234.85c-.03-1.85-.4-5.64-.78-9.07-.41-3.69-3.58-6.45-7.29-6.34h-.37c-3.97.34-5.89,3.91-5.43,7.87l.86,13.74,5.5,3.5,3.81-1.62-.04-3.58s3.8-.67,3.74-4.49Z"/>
        <path class="cls-16" d="m187.78,229.48c.02.3-.21.55-.51.57-.29.02-.55-.19-.58-.48-.02-.3.21-.55.51-.57.29-.02.55.19.58.48Z"/>
        <path class="cls-16" d="m188.4,227.47c-.06.07-.48-.22-1.08-.2s-1.01.32-1.08.25.03-.16.22-.3c.25-.18.55-.28.86-.29.3,0,.6.08.86.25.18.13.22.26.22.3Z"/>
        <path class="cls-16" d="m182.37,229.48c.02.3-.21.55-.51.57-.29.02-.55-.19-.58-.48-.02-.3.21-.55.51-.57.29-.02.55.19.58.48Z"/>
        <path class="cls-16" d="m182.53,227.47c-.05.08-.51-.16-1.08-.08s-.97.43-1.04.37,0-.16.18-.32c.22-.21.5-.35.8-.4.3-.04.61.01.88.16.2.13.29.25.26.28Z"/>
        <path class="cls-16" d="m184.83,232.24c.31-.11.63-.17.95-.2.15,0,.29-.05.31-.16,0-.16-.03-.31-.11-.44l-.47-1.13c-.44-.96-.8-1.95-1.08-2.96.51.92.95,1.87,1.31,2.86l.46,1.14c.1.18.14.39.1.59-.04.11-.13.19-.24.23-.08.03-.17.04-.25.04-.32.05-.65.06-.97.03Z"/>
        <path class="cls-16" d="m182.55,224.94c-.05.16-.65.1-1.33.2s-1.24.31-1.34.17.05-.22.27-.38c.29-.2.63-.33.98-.38.35-.05.71-.02,1.05.1.25.09.39.23.37.29Z"/>
        <path class="cls-16" d="m188.23,225.2c-.1.13-.51,0-.99,0s-.9.11-1,0,0-.2.19-.33c.24-.16.52-.25.8-.24.29,0,.56.08.8.25.18.12.24.26.19.33Z"/>
        <path class="cls-5" d="m176.41,230.14c-.06-.03-2.65-.7-2.49,1.91s2.75,1.91,2.75,1.84-.26-3.75-.26-3.75Z"/>
        <path class="cls-7" d="m175.81,232.96s-.05.03-.12.08c-.11.05-.23.06-.34.03-.36-.2-.58-.57-.58-.98-.02-.22,0-.45.09-.66.04-.17.16-.31.32-.37.11-.03.22.01.27.11.04.08,0,.12.04.13s.05-.05.03-.15c-.02-.06-.06-.12-.11-.16-.08-.05-.17-.06-.26-.05-.21.06-.38.22-.45.43-.1.23-.14.49-.11.74,0,.47.29.9.73,1.08.14.03.3,0,.41-.1.08-.08.09-.12.08-.12Z"/>
        <path class="cls-16" d="m189.4,221.31c-.11-.52-.51-.93-1.03-1.03.03-.08-.54-.35-.98-.66s-.54-1.03-.93-.67c-.05-.67-.63-1.18-1.3-1.14-.13,0-.26.04-.39.09,0-.46-.67-.61-1.12-.73s-.62-.18-.83.23c-.57-.8-1.68-.98-2.48-.41-.11.08-.21.17-.29.26-1.1-.31-2.27.24-2.72,1.3-.87.09-1.61.69-1.85,1.54-.54.06-.67.49-.89,1s-.54,1.08-.2,1.5c-.55.34-.72,1.06-.38,1.61.05.09.12.17.2.24-.15.08-.27.19-.37.32-.56.38-.7,1.14-.32,1.69,0,0,0,.01.01.02-.52.42-.6,1.18-.18,1.7.24.3.62.47,1,.45-.42.61.12,1.43.44,1.62,0,0,1.08-.45,1.25.33h0c-.02.27.18.5.45.52.07,0,.14,0,.21-.03.29-.18.52-.45.65-.77.23-.32.41-.67.54-1.05.11-.39-.05-.8-.39-1.01.44-.2.75-.62.8-1.1.05-.47,0-.95-.12-1.41-.15-.68-.29-1.37-.43-2.06.97-.07,1.82-.66,2.21-1.55.69.45,1.62.25,2.07-.44.03-.05.06-.1.08-.15.38.95,1.43,1.45,2.4,1.13-.09.54.89,1.02,1.43,1.15.42.04.83-.05,1.19-.27,0,0,.93.54,1.43.3s1.13-.86.79-1.37c.11-.37.13-.77.06-1.15Z"/>
        <path class="cls-3" d="m184.43,217.83c-.09-.07-.19-.13-.3-.16-.13-.03-.26-.02-.38.03-.15.08-.27.22-.31.39l-.03.15-.09-.13c-.18-.27-.49-.43-.81-.43-.4.02-.74.29-.85.68l-.04.17-.11-.14c-.23-.27-.57-.41-.92-.4-.38,0-.72.21-.91.54-.08.13-.14.27-.16.43v.11h-.1c-.5-.1-1.01.15-1.23.61-.17.41-.09.89.22,1.22l.1.1-.15.03c-.32.07-.59.26-.77.54-.14.21-.21.45-.2.7,0,.22.06.43.16.63,0,0-.05-.04-.11-.14-.08-.15-.13-.32-.14-.48-.02-.27.04-.54.18-.77.19-.31.49-.53.84-.61l-.04.13c-.51-.48-.54-1.28-.06-1.79.31-.33.78-.47,1.22-.37l-.12.09c.02-.18.08-.35.18-.51.23-.38.63-.62,1.08-.64.42-.01.81.16,1.08.48l-.16.04c.17-.57.77-.89,1.34-.72.25.07.46.23.6.45h-.11c.05-.2.2-.37.39-.45.14-.05.3-.05.44,0,.09.03.17.08.23.15.01.02.02.04.02.06Z"/>
        <path class="cls-16" d="m189.78,232.77c-.38-.25-.88-.14-1.13.24-.03.05-.06.1-.08.16-.23-.32-.62-.48-1-.41-.38.09-.68.38-.79.75-.18-.43-.67-.63-1.09-.45-.11.05-.21.12-.3.21-.53-.01-.97-.41-1.05-.93-.23-.12-.51-.09-.72.08-.33-.5-1-.63-1.49-.3-.02.01-.04.03-.06.05-.09-.31-.42-.48-.72-.39-.2.06-.36.23-.4.43-.26-.32-.69-.44-1.08-.29-.02-.35-.32-.62-.67-.6-.04,0-.08,0-.12.02.09-.32-.38-.46-.63-.7-.09-.13-.19-.25-.3-.36-.11-.1-.32-.11-.39,0,.1-.28-.05-.59-.33-.69-.28-.1-.59.05-.69.33-.05.15-.08.31-.09.46-.07.5-.36,1.08,0,1.44.06.06.15.12.17.2s-.09.29-.1.44.15.31.22.47c.06.25.06.52,0,.78,0,.26.13.6.39.57-.19.4-.07.88.29,1.14-.18.47.05.99.52,1.17,0,0,.02,0,.02,0-.16.16-.17.42-.03.6.14.17.33.31.54.39-.17.12-.22.36-.1.53,0,0,0,0,0,0,.14.17.33.28.54.31.09.01.17.05.23.12.09.13-.03.32,0,.48.04.25.39.32.5.54s-.03.49.13.65.27.08.41.13c.24.09.35.36.51.57.33.37.78.61,1.27.68.24.06.48.11.73.16.49.09.98.15,1.48.21.25.03.54.03.67-.18.33.34.87.35,1.21.02.06-.05.11-.12.15-.19.46.07.92-.02,1.32-.25l.43-.19c.43-.19.92-.43,1.04-.88.52-.11.85-.61.74-1.13-.01-.06-.03-.12-.05-.18.19.06.39-.14.41-.34,0-.2-.02-.41-.08-.6-.15-.82.29-1.65.17-2.48-.08-.58-.43-1.15-.26-1.7.05-.11.07-.23.08-.35,0-.12-.12-.24-.23-.21.09-.28-.06-.59-.34-.68-.06-.02-.13-.03-.19-.03"/>
        <path class="cls-1" d="m182.89,232.83c.09,0,.11.63.67,1.08s1.23.35,1.24.44-.15.13-.43.15c-.37.01-.74-.1-1.04-.33-.29-.22-.48-.54-.54-.89-.02-.27.05-.44.1-.44Z"/>
        <path class="cls-3" d="m179.39,237.19c-.14-.44-.22-.89-.25-1.35,0-.46.07-.92.19-1.36-.08.12-.13.24-.16.38-.09.32-.14.65-.13.99,0,.33.07.66.17.98.04.13.1.26.18.37Z"/>
        <path class="cls-3" d="m178.78,236.27s-.08-.1-.15-.29c-.07-.25-.1-.52-.06-.78.05-.61.22-1.08.19-1.1-.17.33-.27.7-.29,1.08-.03.27,0,.55.1.81.09.21.2.29.21.28Z"/>
        <path class="cls-3" d="m178.16,235.74c-.15-.36-.24-.75-.27-1.14,0-.39.06-.78.18-1.16-.08.09-.13.2-.16.32-.09.27-.13.56-.12.85.01.29.08.57.19.83.04.11.1.22.18.3Z"/>
        <path class="cls-3" d="m188.78,239.64c.14-.03.27-.12.36-.23.23-.27.39-.59.46-.94.08-.34.11-.69.09-1.03,0-.14-.03-.29-.09-.42.03.48,0,.96-.1,1.43-.07.33-.21.64-.41.91-.1.1-.2.19-.31.28Z"/>
        <path class="cls-3" d="m188.22,239.5c.11-.05.21-.12.3-.2.21-.2.37-.45.48-.72.11-.27.16-.56.14-.86,0-.12-.02-.24-.08-.36,0,.12,0,.24,0,.36,0,.28-.06.56-.16.82-.11.26-.25.5-.44.71-.15.18-.25.24-.24.26Z"/>
        <path class="cls-3" d="m189.19,223.48c-.63-.89-1.54-1.55-2.58-1.88-3.16-.94-7.6-1.29-12.28,3.32l-.68.31c-.08-.91-.04-1.83.1-2.74.16-.78,1.58-5.31,6.64-5.78,0,0,7.74-1.26,8.81,6.76Z"/>
        <g class="cls-9">
          <path d="m189.19,223.48c-.63-.89-1.54-1.55-2.58-1.88-3.16-.94-7.6-1.29-12.28,3.32l-.68.31c-.08-.91-.04-1.83.1-2.74.16-.78,1.58-5.31,6.64-5.78,0,0,7.74-1.26,8.81,6.76Z"/>
        </g>
        <path class="cls-3" d="m174.33,224.93c1.92-2.11,4.4-3.31,7.01-4.31s6.7-1.62,9.47-1.76c.83-.1,1.67-.02,2.47.24.81.28,1.38.99,1.49,1.83.04,1.05-2.03,2.21-2.97,2.64s-2.89,1.19-2.89,1.19c0,0-.54-2.37-2.39-3.04-3.89-1.36-12.33,3.28-12.18,3.21Z"/>
        <path class="cls-16" d="m189.43,221.95c-.25-.65-.93-1.04-1.62-.93.15-.2.15-.48,0-.68-.16-.19-.38-.31-.62-.36-.86-.18-1.74.27-2.1,1.08-.45-.44-1.09-.61-1.69-.46-.61.1-1.09.59-1.16,1.21,0,.45.27.86.68,1.04.51.19,1.08.13,1.54-.17.3.82,1.21,1.24,2.03.94.17-.06.33-.16.47-.27.5.62,1.41.71,2.02.2.48-.39.65-1.04.44-1.62h0Z"/>
      </g>
      <g id="freepik--character-3--inject-109">
        <rect class="cls-1" x="161.09" y="166.73" width="91.41" height="36.77" rx="5.4" ry="5.4"/>
        <path class="cls-16" d="m247.1,203.5h.16c.1,0,.26,0,.47-.04.62-.08,1.22-.26,1.77-.54.9-.47,1.64-1.17,2.16-2.04.33-.55.56-1.16.67-1.79.09-.73.12-1.46.08-2.2v-24.41c.02-.68-.07-1.36-.28-2.01-.45-1.35-1.42-2.46-2.69-3.08-.65-.32-1.36-.5-2.09-.54h-80.84c-.52.01-1.03.09-1.53.23-.49.16-.96.38-1.4.66-.86.58-1.53,1.4-1.93,2.35-.19.48-.32.97-.38,1.48-.03.51,0,1.03-.03,1.56v24.32c-.07.96.09,1.92.46,2.8.79,1.74,2.45,2.92,4.35,3.08,1.87.04,3.77,0,5.6,0l39.27.03,26.48.04h9.71-2.51l-7.19.03-26.48.04-39.27.03c-1.85,0-3.71.03-5.63,0-2-.17-3.75-1.41-4.57-3.23-.39-.92-.56-1.91-.5-2.9v-24.22c0-.54,0-1.04.03-1.58.17-1.64,1.06-3.12,2.42-4.04.46-.3.95-.53,1.47-.7.53-.15,1.07-.23,1.62-.24h80.85c2.28.1,4.26,1.6,4.97,3.77.21.67.31,1.37.29,2.07v24.41c.03.74,0,1.48-.1,2.21-.31,1.67-1.4,3.1-2.92,3.86-.56.28-1.17.46-1.79.54-.23.03-.47.05-.7.05Z"/>
        <path class="cls-14" d="m239.06,192.49h0c-3.42-.24-5.99-3.21-5.75-6.63,0,0,0,0,0-.01h0c.24-3.42,3.21-5.99,6.63-5.75,0,0,0,0,0,0h0c3.42.25,5.99,3.22,5.74,6.64h0c-.24,3.42-3.21,5.99-6.63,5.75,0,0,0,0,0,0Z"/>
        <polygon class="cls-1" points="239.13 189.56 235.4 186.66 236.42 185.36 238.92 187.31 242.49 183.23 243.73 184.31 239.13 189.56"/>
        <path class="cls-6" d="m225.16,190.93h-23.35c-2.07,0-3.74-1.67-3.74-3.74h0c0-2.07,1.67-3.74,3.74-3.74h23.35c2.07,0,3.74,1.67,3.74,3.74h0c0,2.07-1.67,3.74-3.74,3.74h0Z"/>
        <circle class="cls-1" cx="180.56" cy="185.09" r="14.03"/>
        <path class="cls-16" d="m168.11,191.36c.04.06.09.13.12.19.08.14.19.33.33.58l.24.43c.1.15.22.31.34.48.28.41.58.81.91,1.18.88,1.04,1.91,1.93,3.05,2.66,3.38,2.18,7.54,2.81,11.41,1.74.57-.16,1.14-.36,1.68-.6.27-.12.54-.24.84-.37l.81-.46c.13-.08.27-.15.4-.23l.39-.27c.26-.18.54-.36.78-.54.51-.41.98-.85,1.43-1.31.46-.48.89-.99,1.29-1.53.19-.27.37-.57.54-.85.19-.29.36-.58.5-.89.66-1.24,1.12-2.59,1.34-3.98.27-1.43.3-2.9.09-4.34-.21-1.49-.65-2.93-1.3-4.28-.68-1.34-1.56-2.57-2.6-3.65l-.8-.76-.86-.68c-.14-.12-.29-.22-.45-.31l-.46-.29-.45-.29-.48-.24c-.63-.33-1.28-.61-1.95-.85-.66-.21-1.34-.39-2.02-.51-.34-.07-.68-.12-1.02-.15-.34-.03-.67-.07-1.01-.09-.67-.02-1.33.02-1.99.09-.65.07-1.29.18-1.92.33-.31.08-.61.19-.91.28l-.45.14c-.15.05-.29.12-.43.18l-.86.37c-.27.13-.54.29-.8.43-.52.29-1.02.61-1.5.97-3.22,2.42-5.25,6.09-5.59,10.1-.12,1.35-.04,2.71.25,4.04.09.49.22.97.38,1.44.06.2.12.39.18.54l.19.45c.11.27.19.47.25.62.03.07.06.14.08.22-.04-.07-.07-.13-.1-.2l-.27-.61-.2-.45c-.06-.17-.12-.36-.19-.57-.17-.47-.3-.95-.4-1.44-.3-1.33-.4-2.71-.29-4.07.31-4.06,2.35-7.79,5.6-10.24.48-.36.99-.69,1.51-.99.27-.15.54-.31.81-.44l.86-.37c.15-.06.29-.13.44-.18l.45-.15c.31-.09.61-.2.93-.29.64-.16,1.29-.27,1.95-.34.67-.08,1.35-.11,2.02-.09.34,0,.68.05,1.02.08.35.02.69.07,1.03.15.7.12,1.38.29,2.05.51.68.24,1.34.53,1.98.86l.48.25.46.29.46.3c.16.09.31.2.45.32l.88.68.81.78c2.16,2.17,3.56,5,3.96,8.04.21,1.46.17,2.95-.1,4.41-.13.71-.31,1.41-.54,2.09-.24.67-.52,1.31-.85,1.94-.15.31-.32.62-.51.91-.19.29-.37.58-.54.86-.4.54-.84,1.06-1.3,1.55-.46.47-.95.92-1.46,1.33-.25.2-.54.37-.79.54l-.39.27c-.13.09-.27.16-.41.23l-.82.46c-.27.14-.57.25-.85.38-2.59,1.12-5.46,1.42-8.22.87-1.78-.35-3.48-1.04-5-2.04-1.15-.74-2.18-1.65-3.06-2.69-.33-.37-.63-.77-.89-1.19-.12-.18-.24-.34-.33-.5l-.24-.44-.32-.59-.1-.21Z"/>
        <path class="cls-14" d="m171.94,196.04s.67-.22,2.97-.93,9.88.35,9.88.35l4.34.89s-3.08,3.17-9,2.77c-5.92-.4-8.19-3.08-8.19-3.08Z"/>
        <path class="cls-16" d="m188.1,178c.98.07,1.83-.66,1.9-1.64.06-.83-.47-1.6-1.27-1.83.69-.75.63-1.92-.12-2.6-.43-.39-1.03-.56-1.6-.45-.1-1.22-1.16-2.12-2.38-2.03-.36.03-.71.15-1.01.34-.91-.68-2.17-.66-3.06.05-.97-.14-1.86.53-2,1.5-.08.58.12,1.16.55,1.55"/>
        <path class="cls-4" d="m185.23,195.75l-.07-3.11s4.17-.77,4.08-4.81c-.05-1.95-.46-5.96-.88-9.58-.46-3.88-3.82-6.77-7.73-6.64h-.39c-4.19.39-6.2,4.17-5.69,8.34l.6,15.16s5.3,2.81,6.47,2.4c1.24-.51,2.44-1.1,3.61-1.76Z"/>
        <path class="cls-8" d="m185.17,192.64c-1.81.05-3.6-.43-5.15-1.37,0,0,1.14,2.95,5.15,2.45v-1.08Z"/>
        <path class="cls-16" d="m186.73,182.27c.02.31-.22.58-.54.6-.29.04-.57-.16-.61-.46,0-.01,0-.03,0-.04-.01-.31.23-.58.54-.6.29-.04.57.16.61.46,0,.01,0,.03,0,.04Z"/>
        <path class="cls-16" d="m187.56,180.26c-.07.08-.54-.23-1.14-.21s-1.08.35-1.13.27.03-.17.23-.32c.26-.2.58-.31.91-.31.32-.02.64.08.91.26.2.13.26.27.23.31Z"/>
        <path class="cls-16" d="m181.14,182.36c.01.31-.23.58-.54.6-.3.04-.57-.17-.61-.46,0-.01,0-.03,0-.04-.02-.31.23-.58.54-.6.29-.04.57.17.61.46,0,.01,0,.02,0,.03Z"/>
        <path class="cls-16" d="m181.47,180.59c-.07.08-.54-.23-1.14-.21s-1.08.35-1.13.27.03-.17.23-.32c.26-.2.58-.31.91-.32.32,0,.64.08.91.26.19.14.26.27.23.31Z"/>
        <path class="cls-16" d="m183.88,185.11c.32-.11.66-.18,1-.22.16,0,.31-.06.33-.17,0-.17-.04-.33-.12-.47l-.51-1.19c-.47-1.01-.86-2.05-1.16-3.12.55.97,1.02,1.98,1.41,3.02l.49,1.2c.11.19.14.41.1.62-.04.12-.14.2-.25.24-.09.03-.17.04-.26.04-.34.06-.68.07-1.02.04Z"/>
        <path class="cls-16" d="m181.59,178.47c-.08.16-.61,0-1.27,0s-1.2.13-1.27-.03c0-.08.08-.23.31-.36.3-.17.63-.25.98-.24.34,0,.67.09.96.26.22.15.32.3.29.37Z"/>
        <path class="cls-16" d="m187.56,178.06c-.13.15-.64,0-1.26.03s-1.13.13-1.26,0,0-.21.24-.36c.31-.18.66-.27,1.02-.26.35,0,.7.08,1.01.25.22.12.3.27.24.34Z"/>
        <path class="cls-4" d="m175.34,183.87c-.03-.59-.54-1.05-1.13-1.02-.03,0-.06,0-.09,0-.75.1-1.57.54-1.47,2.11.19,2.75,2.92,2,2.92,1.92s-.14-1.88-.23-3.01Z"/>
        <path class="cls-8" d="m174.89,185.88s-.05.04-.12.08c-.11.06-.24.07-.36.03-.38-.21-.61-.6-.62-1.03-.02-.24,0-.47.09-.7.04-.18.17-.33.34-.39.11-.04.23,0,.29.11.04.08.03.13.04.13s.05-.05,0-.16c-.02-.07-.06-.13-.12-.17-.08-.05-.18-.07-.27-.05-.23.06-.4.24-.47.46-.1.24-.14.51-.12.78,0,.5.32.95.78,1.14.15.04.31,0,.44-.1.11-.07.11-.13.11-.14Z"/>
        <path class="cls-16" d="m185.87,172.61c-.03-.07-.06-.13-.1-.19-.33-.45-.85-.72-1.4-.73-.32-.15-.65-.27-.98-.37-.7-1.13-2.18-1.49-3.31-.79-.31.19-.58.45-.77.76l-.33.07c-1.12-.76-2.65-.47-3.41.65-.11.17-.21.35-.28.54-.96-.22-1.91.38-2.13,1.33-.1.45-.03.93.21,1.32-.51.28-.85.8-.88,1.38,0,.54.46.98,1,.97.01,0,.02,0,.03,0,0,1.42.09,2.83.26,4.24.09.96,1.34,1.5,1.44,2.16.54,3.33,1.57,1.44,1.75-5.5l.2-.18c.14-.13.17-.3.29-.46s.43-.13.66-.12c.83.04,1.58-.52,1.78-1.33.26.27.7.3.99.06.28-.24.52-.52.72-.83.21-.31.56-.5.93-.51.2.06.4.1.6.11.36-.05.54-.47.57-.84,0-.31.09-.61.25-.88.22-.11.45-.19.7-.22.14,0,.28.03.41.05h.2c.09.03.17.06.25.09,1.23.54,2.39,3.03,2.39,3.03-.04-1.52-.8-2.94-2.04-3.82Z"/>
        <path class="cls-1" d="m177.63,172.18l.03-.08c.03-.07.07-.14.11-.2.16-.24.37-.44.61-.59.37-.23.81-.34,1.24-.31.55.05,1.06.31,1.42.72h-.08c.19-.21.4-.39.64-.54.55-.35,1.21-.46,1.84-.31.52.12.96.46,1.21.94.16.31.22.67.16,1.02-.02.09-.04.18-.08.27l-.04.09c.04-.12.06-.24.08-.37.04-.34-.03-.68-.19-.99-.24-.44-.67-.76-1.16-.87-.6-.14-1.24-.03-1.76.3-.23.14-.43.3-.61.5l-.04.05-.04-.05c-.34-.39-.83-.64-1.35-.7-.42-.04-.84.06-1.2.27-.24.14-.45.32-.62.54-.15.17-.18.29-.18.28Z"/>
        <path class="cls-1" d="m173,175.34l.03-.04.08-.11c.12-.13.26-.24.42-.32.25-.13.53-.2.81-.2.37,0,.74.11,1.03.34l-.08.03c.14-.6.54-1.12,1.08-1.42.3-.17.64-.28.98-.33.36-.05.72-.03,1.08.04.67.15,1.31.42,1.88.81l-.08.03c.21-.59.64-1.07,1.2-1.35.44-.22.93-.29,1.41-.22.31.05.61.15.88.32.07.04.14.09.2.15.04.04.06.05.06.06s-.1-.07-.29-.17c-.27-.15-.57-.25-.87-.29-.47-.06-.94.02-1.36.24-.53.27-.93.74-1.14,1.3v.06l-.06-.04c-.56-.37-1.19-.64-1.84-.78-.35-.07-.7-.08-1.05-.04-.33.05-.65.15-.94.32-.53.27-.93.76-1.08,1.34v.08l-.06-.05c-.28-.22-.62-.35-.98-.34-.27,0-.54.06-.79.18-.21.11-.39.26-.54.44Z"/>
        <path class="cls-3" d="m183.98,173.28s0,.04-.04.11c-.04.1-.07.21-.09.32-.03.15-.06.32-.1.54-.03.24-.11.48-.24.69-.09.12-.23.2-.38.22-.16.02-.31.02-.47,0-.16-.02-.32,0-.47.05-.15.08-.28.19-.39.32-.12.13-.23.29-.34.44-.11.17-.24.32-.4.45-.18.12-.38.2-.6.23-.11.02-.22.02-.33,0-.12-.02-.23-.09-.3-.19h.1c-.03.16-.09.32-.17.47-.08.15-.19.29-.32.4-.27.23-.6.38-.95.44-.15.02-.29.03-.44.03-.13-.03-.27-.03-.4,0-.12.04-.23.13-.29.24-.08.11-.17.22-.27.32-.36.4-.86.66-1.4.71-.48-.02-.94-.22-1.29-.55-.31-.27-.53-.63-.64-1.02h.05c-.31.07-.64,0-.91-.18-.19-.14-.33-.35-.38-.59-.03-.14-.03-.29,0-.44l.03-.11v-.04c-.04.19-.04.38,0,.57.06.22.19.41.37.54.25.18.56.23.85.16h.04v.04c.11.38.32.72.63.98.34.31.79.48,1.24.48.51-.06.98-.3,1.32-.69.1-.1.18-.2.26-.31.08-.13.2-.23.34-.29.07-.03.15-.04.23-.04h.22c.14,0,.28,0,.41-.03.33-.05.64-.19.9-.41.12-.11.22-.23.3-.37.08-.14.13-.28.16-.44l.03-.13.07.11c.14.15.34.21.54.16.19-.02.38-.09.54-.2.15-.12.28-.27.38-.43.12-.15.23-.3.35-.44.12-.14.26-.26.43-.34.16-.06.34-.08.51-.05.15.02.3.02.45,0,.13-.02.25-.08.33-.19.13-.2.21-.42.25-.66.05-.2.08-.38.12-.54.03-.11.07-.22.11-.32.02-.01.04-.02.06-.03Z"/>
        <path class="cls-8" d="m181.99,186.26c-.26.69,0,1.46.64,1.84.53.27,1.18.05,1.45-.48,0,0,0-.01,0-.02.13-.29.18-.61.16-.93-.64-.13-1.63-.27-2.26-.41Z"/>
        <path class="cls-16" d="m183.99,187.78c-.04.07-.09.13-.16.17-.17.13-.37.21-.59.23-.32.03-.64-.07-.89-.27-.31-.25-.51-.61-.54-1.01-.01-.2,0-.41.05-.61v-.05h.05c.65.11,1.22.22,1.62.3.22.04.43.09.65.15-.21,0-.42-.03-.63-.07-.41-.06-.98-.16-1.62-.27l.06-.04c-.05.19-.06.38-.05.57.03.37.2.71.48.94.23.19.53.29.82.27.2-.01.4-.08.57-.18.1-.07.16-.13.16-.12Z"/>
      </g>
      <g id="freepik--character-2--inject-109">
        <rect class="cls-1" x="161.85" y="118.83" width="89.44" height="35.98" rx="5.4" ry="5.4"/>
        <path class="cls-16" d="m245.89,154.83h.16c.11,0,.26,0,.46-.04.61-.08,1.19-.26,1.74-.54.88-.44,1.63-1.12,2.16-1.96.34-.53.58-1.12.71-1.74.12-.71.16-1.43.12-2.16,0-3.06,0-6.8-.03-11.14v-12.72c.02-.67-.07-1.33-.27-1.97-.67-2.03-2.5-3.46-4.64-3.62-.72-.04-1.47,0-2.21,0h-76.82c-2.08,0-3.96,1.22-4.8,3.11-.2.46-.34.94-.41,1.44-.05.5-.07,1.01-.05,1.51v23.78c-.06.93.09,1.87.46,2.73.76,1.7,2.36,2.88,4.21,3.09.45.04.91.04,1.37.04h4.1l38.39.03,25.87.04h9.49-2.45l-7.04.03-25.87.04-38.39.03h-4.1c-.47.01-.93,0-1.4-.03-1.94-.22-3.63-1.45-4.43-3.23-.38-.9-.54-1.87-.48-2.84v-23.71c-.01-.52,0-1.04.06-1.55.07-.52.21-1.03.43-1.51.89-1.99,2.87-3.28,5.06-3.28l46.99.04h32.03c2.22.16,4.13,1.65,4.82,3.77.2.66.3,1.34.27,2.03v23.86c.03.72,0,1.44-.13,2.16-.13.63-.38,1.23-.73,1.76-.54.85-1.3,1.53-2.21,1.96-.55.27-1.15.44-1.76.51-.46.06-.67.06-.67.06Z"/>
        <path class="cls-14" d="m238.82,144.55h0c-3.35-.24-5.86-3.15-5.63-6.5h0c.24-3.35,3.15-5.86,6.5-5.62h0c3.33.24,5.85,3.13,5.62,6.47h0c-.22,3.35-3.12,5.88-6.46,5.65,0,0-.02,0-.03,0Z"/>
        <polygon class="cls-1" points="238.89 141.68 235.25 138.84 236.23 137.57 238.68 139.47 242.18 135.48 243.39 136.54 238.89 141.68"/>
        <rect class="cls-6" x="198.72" y="135.68" width="30.17" height="7.32" rx="3.66" ry="3.66"/>
        <circle class="cls-1" cx="181.59" cy="137.28" r="13.72"/>
        <path class="cls-16" d="m169.4,143.44s.04.06.12.19l.33.57.24.41c.1.15.22.31.33.48.27.4.56.79.88,1.15.86,1.01,1.87,1.89,2.99,2.6,3.31,2.13,7.37,2.75,11.17,1.7.55-.16,1.09-.36,1.62-.59.27-.12.54-.23.82-.36l.79-.44c.13-.08.27-.15.4-.23l.38-.26c.25-.18.54-.35.77-.54.49-.4.96-.83,1.4-1.29.45-.47.87-.97,1.26-1.49.19-.27.36-.54.54-.84.19-.28.35-.57.49-.88.31-.6.59-1.23.81-1.87.21-.66.38-1.34.5-2.02.26-1.4.29-2.84.09-4.25-.39-2.93-1.74-5.66-3.82-7.76l-.78-.75-.84-.66c-.14-.11-.28-.22-.44-.31l-.45-.29-.45-.29-.47-.24c-.62-.32-1.25-.6-1.91-.83-.65-.21-1.31-.38-1.98-.5-.33-.07-.66-.12-1-.15-.33-.03-.66-.07-.99-.08-.65-.02-1.3.01-1.95.08-.63.07-1.26.18-1.88.33-.3.08-.6.18-.89.27l-.44.13c-.15.05-.28.12-.42.18l-.84.36c-.27.12-.54.29-.79.42-.51.28-1,.6-1.47.95-3.15,2.37-5.14,5.96-5.46,9.89-.12,1.32-.03,2.66.25,3.96.09.48.21.94.37,1.4.06.2.12.39.18.54l.19.45.25.61c.05.13.08.21.08.21,0,0-.04-.07-.1-.2s-.16-.34-.27-.6c-.06-.13-.12-.28-.2-.44s-.12-.36-.18-.54c-.16-.46-.3-.93-.39-1.41-.29-1.31-.39-2.65-.27-3.98.3-3.97,2.3-7.62,5.47-10.01.47-.35.97-.67,1.48-.96.26-.15.54-.3.8-.44l.84-.36c.15-.06.29-.13.43-.18l.45-.14c.3-.09.6-.2.91-.28.63-.15,1.26-.26,1.9-.33.66-.07,1.32-.1,1.98-.09.33,0,.67.05,1,.08.34.02.68.07,1.01.15.68.12,1.35.29,2.01.5.66.24,1.31.52,1.93.85l.47.24.45.29.45.29c.16.09.3.2.44.31l.86.67.8.75c2.12,2.13,3.47,4.9,3.87,7.87.2,1.43.17,2.89-.09,4.31-.12.69-.29,1.38-.51,2.05-.23.65-.51,1.28-.82,1.9-.14.31-.31.6-.5.88-.18.29-.36.58-.54.85-.39.53-.81,1.04-1.27,1.51-.45.47-.92.9-1.43,1.3-.25.19-.54.37-.77.54l-.38.27c-.13.09-.27.15-.4.23l-.81.45c-.27.13-.54.24-.82.37-.54.23-1.1.43-1.67.59-3.84,1.06-7.94.41-11.27-1.76-1.13-.73-2.14-1.62-2.99-2.65-.32-.37-.61-.76-.87-1.17-.12-.17-.24-.33-.33-.48l-.23-.43-.31-.58-.08-.2Z"/>
        <path class="cls-14" d="m171.3,146.24l5.27-1.84,8.41-.32,7.73,1.49s-3.77,5.84-10.71,5.64c-4.1-.11-7.97-1.9-10.7-4.96Z"/>
        <path class="cls-16" d="m187.27,125.25c1.77.04,3.29,2.69,3.03,4.16-.13.72-.46,1.55.12,2.09s1.79.48,2.34,1.03c.41.43.64,1.02.63,1.62-.08.91.07,2.12.79,2.45l-3.62,1.28c-.37-.38-.54-.97-.89-1.35.43.39.84,1.8-1.08,1.96l-1.2-1.08c-3.28.84-6.72,1.89-9.33.46"/>
        <path class="cls-16" d="m170.57,133.13c.3-.66.56-1.33.79-2.02.35-1.51-.36-3.23.4-4.58.54-.96,1.67-1.42,2.73-1.72s2.07-.48,2.88-1.24c.59-.54.93-1.33,1.51-1.89.9-.73,2.04-1.11,3.21-1.08,1.19-.09,2.38.13,3.45.63,1.08.52,1.86,1.52,2.09,2.69.01.58.07,1.15.17,1.72.27.58.58,1.13.93,1.65.58,1.26.24,2.75-.83,3.63l-8.32,10.34c-1.71.61-3.58-1.57-4.85-2.86s-4.77-3.56-4.17-5.28Z"/>
        <path class="cls-5" d="m187.72,129.59c-.29-2.39-2.05-5.23-4.42-4.85l-7.34,2.32c-.72.12-1.11.7-1.36.59l2.16,17.09,5.04,3.57,3.13-3.77s-.23-2.34-.23-2.33,3.03-.68,3.44-4.72c.19-1.98-.09-5.23-.41-7.89Z"/>
        <path class="cls-16" d="m181.29,133.22c.02.28-.19.52-.46.54-.27.03-.51-.16-.54-.43,0-.27.2-.5.46-.54.27-.03.51.16.54.43Z"/>
        <path class="cls-16" d="m186.35,132.96c0,.27-.2.5-.46.54-.27.03-.51-.17-.54-.43,0-.27.2-.5.46-.54.27-.03.51.16.54.43,0,0,0,0,0,0Z"/>
        <path class="cls-16" d="m187.25,131.41c-.05.09-.54-.22-1.12-.14s-.99.47-1.08.4,0-.19.18-.38c.22-.24.51-.39.84-.43.32-.04.64.04.91.22.22.14.3.29.27.33Z"/>
        <path class="cls-16" d="m181.79,131.91c-.07.08-.54-.26-1.17-.25s-1.08.37-1.17.29.04-.19.24-.36c.27-.21.6-.32.94-.33.34-.01.67.1.94.3.2.16.27.31.24.34Z"/>
        <path class="cls-16" d="m183.94,135.71c.28-.11.58-.18.88-.22.14,0,.27-.06.29-.16,0-.15-.04-.29-.12-.41l-.48-1.08c-.43-.89-.79-1.81-1.08-2.75.5.87.94,1.77,1.3,2.71.16.37.31.72.46,1.08.1.16.14.35.11.54-.03.1-.12.19-.22.22-.08.03-.16.04-.24.05-.3.04-.6.04-.91.02Z"/>
        <path class="cls-7" d="m184.7,142.21c-1.89.14-3.77-.24-5.45-1.12,0,0,1.51,2.85,5.49,2.24l-.04-1.13Z"/>
        <path class="cls-14" d="m183.78,137.04c-.23-.26-.57-.38-.91-.32-.25.03-.47.17-.61.37-.14.2-.14.46,0,.66.19.19.48.25.73.14.25-.11.49-.26.68-.46.06-.05.11-.11.15-.17.04-.06.04-.14,0-.2"/>
        <path class="cls-16" d="m182.34,136.19c.09,0,.12.59.66.98s1.17.3,1.17.38-.13.12-.4.15c-.35.03-.7-.07-.99-.28-.28-.19-.47-.49-.54-.82-.02-.25.04-.4.09-.4Z"/>
        <path class="cls-16" d="m181.77,130.04c-.04.16-.6.12-1.24.23s-1.16.32-1.25.19.04-.21.24-.37c.27-.2.58-.33.91-.38.33-.06.67-.04.99.06.24.08.37.19.35.26Z"/>
        <path class="cls-16" d="m187.08,129.42c-.1.13-.54,0-1.08.05s-.96.14-1.08,0,0-.19.2-.32c.26-.17.55-.25.86-.26.3-.01.6.06.86.2.22.13.28.26.24.32Z"/>
        <path class="cls-16" d="m168.21,132.36c.38-.7-.35-1.47.23-2.12s1.92-.6,2.41-1.2c.29-.26.44-.64.42-1.03,0-.54.26-2.85,3.63-3.31l.47,2.09c.21-.1.43-.18.64-.26,2.74-1,5.6-1.67,8.5-1.99.28.66.05,1.42-.54,1.82-.59.37-1.23.65-1.91.81-.68.17-1.27.62-1.62,1.23-.3.67-.08,1.48-.33,2.16-.45,1.19-2.13,1.54-2.58,2.73-.34.9.54,1.93.67,2.88.13,1.08.35,2.75-.45,3.49-.6.51-1.23.99-1.89,1.42l-9.93-6.24c-.52-1.24,1.75-1.53,2.27-2.48Z"/>
        <path class="cls-16" d="m175.26,140.04c.27-.05.53-.14.77-.26,1.75-.86,2.59-2.88,1.98-4.73-.09-.3-.2-.6-.28-.91-.08-.31-.09-.64-.03-.96.08-.32.28-.6.57-.77.31-.16.63-.3.96-.41.35-.11.67-.31.91-.58.21-.29.33-.64.34-1,.05-.68-.06-1.35.17-1.91l.04-.1.05-.1c.04-.06.08-.12.13-.18.1-.11.21-.2.33-.27.24-.14.5-.25.77-.32.51-.11.99-.29,1.45-.54.37-.23.68-.53.92-.88.18-.27.32-.56.41-.87.06-.19.1-.4.11-.6,0-.07,0-.14,0-.21-.03.27-.08.53-.16.79-.1.3-.24.59-.43.85-.24.34-.55.63-.91.85-.45.24-.93.41-1.43.51-.28.07-.55.18-.8.33-.13.08-.25.18-.36.3-.05.06-.1.12-.14.19l-.06.1-.05.11c-.25.61-.12,1.29-.18,1.95,0,.33-.12.66-.31.93-.23.25-.53.44-.86.54-.34.11-.67.25-.99.43-.32.18-.55.49-.63.85-.07.34-.06.68.03,1.01.08.32.19.62.29.92.35,1.05.24,2.19-.31,3.15-.37.64-.92,1.17-1.58,1.51-.17.09-.35.17-.54.24l-.21.06Z"/>
        <path class="cls-16" d="m186.87,125.45c.2-.05.4-.09.61-.11.56-.05,1.12.06,1.62.32.73.4,1.25,1.1,1.43,1.92.09.48.1.97.05,1.46,0,.25-.05.51-.08.78-.03.27-.02.55.03.82.05.29.23.54.48.68.25.11.52.16.8.15.25-.01.5,0,.74.06.23.06.44.17.63.31.35.26.59.65.67,1.08.06.38.06.77,0,1.15-.05.32-.09.64-.1.96,0,.25.03.49.09.73.04.15.11.3.19.43.02.03.04.06.07.09l.03.03c-.11-.17-.19-.35-.25-.54-.06-.23-.08-.48-.06-.72.02-.32.05-.64.11-.95.07-.39.08-.79.03-1.18-.08-.46-.34-.87-.71-1.15-.2-.15-.43-.27-.67-.33-.25-.06-.51-.08-.77-.07-.25.02-.5-.03-.73-.13-.22-.13-.38-.35-.41-.6-.05-.52-.04-1.05.04-1.56.05-.5.03-1-.06-1.5-.18-.85-.73-1.57-1.5-1.97-.51-.26-1.09-.36-1.67-.29-.15.02-.31.05-.45.1-.11,0-.16.03-.16.03Z"/>
        <path class="cls-3" d="m170.15,137.38v-.06c-.02-.06-.04-.12-.06-.18-.07-.23-.08-.48-.03-.72.07-.38.26-.73.54-1,.18-.16.39-.28.63-.34.25-.06.54-.09.8-.18.14-.05.28-.13.39-.23.11-.11.2-.24.26-.39.11-.32.15-.66.11-1-.03-.34-.03-.69,0-1.03.02-.18.08-.35.17-.5.1-.16.23-.29.38-.39.34-.19.7-.31,1.08-.38.4-.07.79-.22,1.15-.43.18-.12.33-.28.44-.46.1-.19.17-.4.21-.61.08-.43.08-.86.16-1.29.17-.84.76-1.54,1.56-1.84.38-.12.78-.18,1.18-.19.2-.02.4-.05.59-.11.19-.06.36-.16.51-.3.24-.29.41-.63.5-1,.12-.33.3-.63.54-.88.42-.46,1-.75,1.62-.82.51-.06,1.03.05,1.47.32.33.2.62.47.84.79.14.2.25.42.32.65.02.06.04.12.05.19v.06c-.01-.08-.03-.17-.06-.25-.07-.24-.17-.47-.31-.67-.22-.32-.51-.6-.85-.8-.45-.27-.98-.39-1.5-.34-.64.07-1.22.37-1.66.84-.24.26-.42.57-.54.91-.09.35-.26.68-.48.96-.29.25-.67.38-1.05.38-.41.01-.82.08-1.21.2-.83.31-1.44,1.03-1.62,1.9-.09.44-.09.87-.16,1.29-.04.2-.11.4-.2.58-.1.18-.24.33-.41.44-.69.44-1.56.39-2.23.81-.16.1-.3.24-.4.41-.1.16-.16.35-.18.54-.04.36-.04.72,0,1.08.03.32,0,.64-.11.95-.06.14-.14.26-.24.37-.11.09-.23.17-.37.22-.27.09-.54.12-.8.19-.24.07-.45.19-.64.36-.29.27-.48.64-.54,1.03-.05.24-.03.5.04.73.02.06.04.12.07.18l.04.04Z"/>
      </g>
      <g id="freepik--character-1--inject-109">
        <circle class="cls-2" cx="96.3" cy="142.4" r="37.84"/>
        <path class="cls-5" d="m129.09,135.09l.44,16.12-5.75-8.85-13.47-.13,3.01,5.33c3.15,4.67,5.05,8.59,9.19,13.06,2.06,2.24,3.98,5.35,4.92,6,2.24,1.57,5.61,2.83,8.54.3,4.08-3.53,3.6-10.34,2.31-17.28-1.43-7.71-2.18-15.15-2.18-15.15l-6.99.59Z"/>
        <path class="cls-5" d="m130.68,125.33s-1.24-2.4-2.23-2.16-2.32,1.08-2.48,1.9.05,1.53.43,1.5c.52-.18,1.01-.43,1.46-.75l1.26,1.77-.54,2.24-1.31.67-.75-1.56.31-1.77s-.89-.75-1.39.66-1.08,3.97.36,5.2c1.31,1.05,2.69,2.02,4.12,2.9l6.47-.54,1.55-7.59s2.52-2.63,2.69-3.71.31-4.31.31-4.31c-.33-.27-.82-.22-1.09.11-.05.07-.1.14-.13.22-.45.91-.88,3.53-.88,3.53l-2.15,2.06.85-9.3s-1.29-.84-1.82,1.25-1.11,7.25-1.37,7.25-1.05,0-.93-1.08-.24-9.37-.24-9.37c0,0-1.86.41-1.75,2.16s.04,7.23,0,7.64-.72,1.05-.72,1.05Z"/>
        <path class="cls-7" d="m130.68,159.14c-.4-1.28-.66-2.61-.79-3.94-.23-1.34-.33-2.69-.3-4.05.09,0,.3,1.78.6,3.99.23,1.33.4,2.66.49,4Z"/>
        <path class="cls-7" d="m132.5,133.27s-.14-.26-.37-.64c-.6-1-1.58-1.71-2.72-1.98-.44-.1-.72-.1-.72-.15s.28-.11.75-.06c1.26.15,2.35.94,2.88,2.09.13.23.19.48.17.74Z"/>
        <polygon class="cls-5" points="82.43 133.56 91.1 132.68 105.84 133.33 112.55 135.64 103.22 145.09 90.88 143.56 85.35 140.42 82.43 133.56"/>
        <path class="cls-16" d="m101.9,96.82c1.52-.96,1.89-3.2,1.08-4.8s-2.57-2.57-4.34-2.86c-2.62-.4-5.27.48-7.13,2.37-.98,1.01-1.78,2.32-3.1,2.79-1.17.41-2.46.04-3.69.2-1.66.3-3.09,1.34-3.9,2.81-.78,1.47-1.26,3.08-1.38,4.74-.18,1.51-.3,3.17-1.35,4.27s-2.64,1.3-3.91,2.07c-2.44,1.59-3.16,4.84-1.63,7.31.5.73,1.22,1.41,1.28,2.3.05.81-.47,1.53-.72,2.31-.49,1.93.67,3.9,2.6,4.39.16.04.33.07.49.09,1.08.06,2.16-.35,3.13.12s1.29,1.62,1.89,2.46c1.27,1.71,3.57,2.31,5.51,1.42.78-.38,1.51-1.01,2.37-.95s1.54.79,2.39.96c1.11.21,2.16-.6,2.82-1.52s1.12-2,1.96-2.75c1.1-.98,2.66-1.22,4.05-1.71,5.97-2.05,9.15-8.56,7.1-14.53-.17-.51-.39-1.01-.63-1.48"/>
        <path class="cls-3" d="m85.83,116.69c-.34-.36-.76-.64-1.23-.81h.09c-.09-.02-.17-.04-.26-.05-.32-.09-.67-.05-.96.12h0c-.54.19-.98.58-1.24,1.08-.42.91-.3,1.99.32,2.78.61.96,1.88,1.25,2.85.64.48-.3.82-.8.93-1.36.26-.83.08-1.74-.48-2.41Z"/>
        <path class="cls-5" d="m105.84,133.33l1.62-29.64c.07-1.3-.87-2.43-2.16-2.61l-13.25-3.77c-4.26-.58-7.25,4.61-7.64,8.89-.44,4.76-.78,10.58-.32,14.15.91,7.21,6.77,8.3,6.77,8.3,0,0,.04,7.31,0,9.91l4.41,9.54,10.57-14.76Z"/>
        <path class="cls-16" d="m87.1,111.6c-.02.5.36.92.86.95.48.05.91-.29.96-.76,0-.01,0-.02,0-.04.02-.5-.36-.92-.86-.95-.49-.05-.92.3-.97.79,0,0,0,0,0,.01Z"/>
        <path class="cls-16" d="m85.6,108.8c.11.12.82-.37,1.81-.34s1.69.54,1.81.43-.05-.27-.37-.51c-.42-.31-.92-.48-1.44-.49-.51-.01-1.02.13-1.44.43-.31.22-.42.44-.36.49Z"/>
        <path class="cls-16" d="m95.95,111.84c-.03.5.35.92.84.96.48.05.91-.29.96-.76,0-.01,0-.02,0-.04.02-.5-.36-.92-.86-.95-.48-.05-.9.3-.95.78,0,0,0,0,0,0Z"/>
        <path class="cls-16" d="m95.29,109.26c.11.12.82-.37,1.81-.34s1.7.54,1.81.43-.05-.27-.36-.51c-.42-.31-.92-.48-1.44-.49-.51-.02-1.02.13-1.44.42-.31.22-.42.44-.37.49Z"/>
        <path class="cls-16" d="m91.5,116.48c-.52-.18-1.07-.29-1.62-.33-.25-.03-.48-.09-.54-.26-.01-.26.05-.52.19-.74.25-.6.54-1.23.8-1.9,1.12-2.69,1.93-4.93,1.82-4.97s-1.08,2.11-2.21,4.81c-.27.67-.54,1.3-.77,1.91-.17.3-.22.65-.16.99.07.18.22.33.4.38.14.04.28.06.43.07.55.09,1.11.1,1.66.05Z"/>
        <path class="cls-7" d="m90.92,128.61c3.23.12,6.42-.68,9.21-2.3,0,0-2.07,5.32-9.2,4.45v-2.14Z"/>
        <path class="cls-7" d="m91.58,118.83c.47-.65,1.23-1.02,2.03-1,.52.02,1.01.3,1.28.74.41.69.19,1.58-.5,1.99-.36.21-.79.26-1.18.14-.54-.19-1.03-.52-1.43-.94-.13-.1-.23-.24-.3-.38-.07-.16-.05-.35.05-.5"/>
        <path class="cls-16" d="m94.39,117.24c-.16,0-.19,1.08-1.13,1.79s-2.07.59-2.09.73.25.22.73.24c.63.03,1.24-.16,1.74-.54.48-.37.79-.91.88-1.5.05-.46-.06-.73-.13-.72Z"/>
        <path class="cls-16" d="m94.97,105.19c.09.27,1.08.17,2.23.34s2.08.51,2.24.28c.07-.11-.09-.37-.45-.64-.49-.34-1.06-.55-1.65-.63-.59-.09-1.19-.04-1.76.16-.4.16-.65.36-.61.49Z"/>
        <path class="cls-16" d="m86.04,105.42c.17.23.85,0,1.67.03s1.5.19,1.67-.04c.08-.11-.03-.34-.32-.54-.4-.27-.87-.41-1.35-.4-.48,0-.95.14-1.35.41-.3.2-.4.43-.32.54Z"/>
        <path class="cls-16" d="m79.61,104.23c.29-1.09.96-2.04,1.88-2.69.56-.28,1.09-.59,1.62-.93,1.03-.84,1.27-2.28,1.91-3.45.85-1.52,2.38-2.54,4.11-2.73,1.42-.15,2.88.28,4.26-.06,1.02-.26,1.91-.92,2.95-1.12,2.02-.38,3.89,1.08,5.35,2.5,0,1.44-1.14,2.4-2.25,3.33-1.13.93-2.61,1.33-4.05,1.08-1.08-.2-2.31-.75-3.26-.17s-1.04,2.13-1.93,2.9c-1.27,1.08-3.29.07-4.9.54-1.24.37-2.02,1.56-2.85,2.56s-2.06,1.96-3.31,1.58c.03-1.13.19-2.25.47-3.34Z"/>
        <path class="cls-16" d="m94.72,98.14c.91-.26,2.75-.84,3.23-1.62,1.08-1.7,2.9-2.86,4.8-2.76,2.01.16,3.68,1.62,4.1,3.6,2.4.09,4.56,1.48,5.63,3.63.14.27.25.55.36.84.72,1.28.85,2.81.33,4.18-.31.81-.85,1.72-.43,2.49s1.51.8,2.35,1.08c1.5.56,2.37,2.12,2.08,3.69-.19.52-.28,1.07-.26,1.62.21.54.54,1.02.98,1.41,1.48,1.73,1.28,4.33-.45,5.81-.56.48-1.24.8-1.96.93-.64.11-1.34.09-1.89.43-.64.39-.92,1.16-1.37,1.76-.91,1.16-2.44,1.64-3.85,1.21-.27-.1-.53-.23-.78-.39-.53.7-1.38,1.08-2.26,1l.26-15.09c-.17.37-.51.64-.91.72-2.42.54-2.78-4.44-2.24-5.79-.91-.75-1.72-1.61-2.42-2.55-.67-.99-1.26-3.68-1.12-4.89-.87.05-4.59-1.19-4.19-1.29Z"/>
        <path class="cls-5" d="m104.94,113.17c.08-1.54,1.95-1.86,3.28-1.08.73.42,1.29,1.27,1.22,2.89-.18,4.34-4.49,3.27-4.49,3.14s-.09-3.18,0-4.96Z"/>
        <path class="cls-7" d="m106.33,116.52s.08.05.2.12c.18.09.38.1.57.04.46-.15.88-.86.93-1.64.02-.37-.03-.74-.17-1.08-.07-.28-.27-.5-.54-.6-.18-.06-.37.02-.45.19-.06.12-.04.2-.06.21s-.09-.08-.05-.25c.03-.11.09-.2.18-.26.12-.08.27-.12.42-.1.36.09.65.35.77.71.17.38.24.8.21,1.22-.06.87-.54,1.67-1.18,1.83-.24.06-.49,0-.68-.15-.13-.13-.16-.23-.14-.23Z"/>
        <path class="cls-3" d="m100.7,96.97c.34.17.63.42.86.72.43.59.59,1.72.32,3l-.03.11h.11c1.26.34,2.3,1.25,2.8,2.46.13.34.21.71.22,1.08,0,.39-.05.77-.13,1.15-.09.41-.14.82-.16,1.23-.03.45.09.9.34,1.28.57.72,1.31,1.27,2.16,1.62.74.32,1.42.77,2.01,1.31.98.96,1.56,2.26,1.62,3.64.04.93-.16,1.86-.57,2.69-.29.59-.54.88-.51.89s.07-.06.19-.19c.16-.2.3-.42.43-.65,1.18-2.16.79-4.84-.96-6.57-.61-.57-1.31-1.04-2.07-1.38-.79-.33-1.49-.85-2.03-1.51-.48-.66-.26-1.52-.14-2.3.08-.4.13-.8.13-1.21-.02-.4-.1-.79-.25-1.16-.54-1.29-1.65-2.24-3.01-2.58l.09.13c.25-1.34.05-2.51-.44-3.13-.18-.23-.41-.42-.68-.54-.09-.05-.18-.09-.28-.12Z"/>
        <path class="cls-3" d="m107.95,118.15c-.34-.36-.76-.64-1.23-.81h.09c-.09-.02-.17-.04-.26-.05-.32-.09-.67-.05-.96.12h0c-.54.19-.98.58-1.24,1.08-.42.91-.3,1.99.32,2.78.61.96,1.88,1.25,2.85.64.48-.3.82-.8.93-1.36.26-.83.08-1.74-.48-2.41Z"/>
        <path class="cls-3" d="m116.12,174.23l.08-18.23,1.7,3.37,10.6-10.54s-5.13-9.33-7.51-11.14-11.66-3.69-12.25-4.04c0,0-2.4,4.05-9.89,6.3-7.49,2.25-13.77-7.42-13.77-7.42l-8.52.38s-.72,12.79-.85,21.55c-.04,2.58.11,4.82.17,6.27.29,6.36,6.7,17.3,6.7,17.3,0,0,9.11,3.23,18.74,2.05,9.63-1.18,14.8-5.85,14.8-5.85Z"/>
        <path class="cls-3" d="m76.56,132.89c-4.45.92-8.42,6.53-13.17,17.49l12.93,9.67.24-27.15Z"/>
        <path class="cls-16" d="m116.76,144.83c.05.19.08.38.08.57.03.37.06.91.08,1.57.04,1.33.04,3.16-.09,5.19s-.33,3.84-.54,5.16c-.1.66-.19,1.19-.27,1.55-.02.19-.07.37-.15.54.02-.72.08-1.44.19-2.16.15-1.31.32-3.13.45-5.15s.16-3.84.18-5.16c-.02-.7,0-1.41.06-2.11Z"/>
        <path class="cls-16" d="m76.96,141.97c0,.24-.02.48-.06.72-.08.54-.17,1.17-.28,1.93-.24,1.62-.54,3.88-.74,6.37-.16,2.13-.2,4.27-.12,6.41.04.77.07,1.42.09,1.95.03.24.03.48,0,.72-.07-.23-.12-.47-.13-.71-.06-.46-.13-1.12-.19-1.95-.15-2.15-.15-4.31,0-6.47.18-2.13.47-4.26.87-6.36.15-.81.28-1.47.38-1.91.03-.24.09-.48.19-.71Z"/>
        <path class="cls-16" d="m97.25,148.65l.43,17.41c.02.88-.68,1.62-1.57,1.64l-7.33.17c-.85,0-1.55-.65-1.62-1.5l-1.19-17.24c-.05-.89.62-1.66,1.51-1.71,0,0,.01,0,.02,0l8.08-.36c.89-.02,1.63.69,1.65,1.58,0,0,0,.01,0,.02Z"/>
        <path class="cls-1" d="m90.87,150.62c.02.37.33.67.71.65.37-.02.67-.33.65-.71-.02-.37-.33-.67-.71-.65,0,0,0,0,0,0-.37.02-.66.33-.65.71Z"/>
        <path class="cls-5" d="m86.31,153.12s-1.99,2.58-2.69,3.72-.84,4.74-.84,4.74v2.51l-3.97,1.76,3.07,8.55,6.02-5.21,6.08-1.14s2.81-2.89,3.23-4.18c.26-.73.37-1.5.34-2.28.56-1.34,1.05-2.71,1.48-4.1.14-.97.19-1.96.15-2.94,0,0-.78-.19-1.39,1.11l.95-2.2s-.63-1.62-1.99.03-3.62,4.47-3.62,4.47l-2.58,2.25-.35-.37s4.54-6.06,4.39-7.11-1.15-1.05-2.16.1-5.05,6.86-5.6,6.94-.75-.68-.75-.68l.29-2.12.2-.45-.26-3.4Z"/>
        <path class="cls-7" d="m94.14,161.52c.07-.06.13-.14.18-.22.11-.15.27-.36.46-.62.38-.54.88-1.27,1.41-2.11s.96-1.62,1.27-2.2c.15-.29.27-.54.34-.68.05-.08.08-.17.11-.26-.06.07-.12.15-.16.24l-.38.66c-.33.54-.78,1.34-1.3,2.16s-1.01,1.62-1.37,2.16c-.17.25-.31.47-.43.64-.05.08-.1.16-.14.24Z"/>
        <path class="cls-7" d="m95.56,164.22c.44-.56.85-1.14,1.23-1.75.41-.59.78-1.2,1.12-1.83-.44.56-.85,1.14-1.23,1.75-.41.59-.78,1.2-1.12,1.83Z"/>
        <path class="cls-5" d="m65.22,151.76s-6.72,17.6-7.03,23.71c-.29,5.55,4.52,8.9,8.14,8.37,8.51-1.23,21.59-14.64,21.59-14.64l-4.91-5.22-11.48,5.15,3.57-10-9.86-7.38Z"/>
        <g class="cls-9">
          <path d="m128.32,168.35c1.43-3.48.36-7.69-2.16-10.45s-6.34-4.18-10.1-4.31c-9.97-.35-18.33,7.45-18.68,17.42-.11,3.21.63,6.39,2.16,9.22,1.83-.11,3.63-.55,5.31-1.3,2.24-1.15,23.47-10.57,23.47-10.57Z"/>
        </g>
        <circle class="cls-14" cx="115.03" cy="171.11" r="14.33"/>
        <polygon class="cls-1" points="114 177.79 106.57 171.56 108.75 168.97 113.73 173.14 121.37 165.02 123.84 167.34 114 177.79"/>
      </g>
      <text class="cls-15" transform="translate(70.88 211.51)"><tspan x="0" y="0">모임참여</tspan></text>
    </g>
  </g>
</svg>