<?xml version="1.0" encoding="utf-8"?>
<!-- Generator: Adobe Illustrator 27.4.0, SVG Export Plug-In . SVG Version: 6.00 Build 0)  -->
<svg version="1.1" id="레이어_1" xmlns="http://www.w3.org/2000/svg" xmlns:xlink="http://www.w3.org/1999/xlink" x="0px"
	 y="0px" viewBox="0 0 928.5 260" style="enable-background:new 0 0 928.5 260;" xml:space="preserve">
<style type="text/css">
	.st0{fill:#F2CA4E;}
	.st1{fill:#FFFFFF;}
	.st2{fill:#FDF8E0;}
	.st3{fill:#534578;}
	.st4{fill:#B499C7;}
	.st5{fill:none;stroke:#BFBEBE;stroke-width:0.5;stroke-miterlimit:8;}
	
		.st6{clip-path:url(#SVGID_00000029734647404000092580000015963887058306982584_);fill-rule:evenodd;clip-rule:evenodd;fill:#FFFFFF;}
	.st7{clip-path:url(#SVGID_00000029734647404000092580000015963887058306982584_);}
	.st8{clip-path:url(#SVGID_00000154398435597609011420000014155682314484274353_);}
	
		.st9{clip-path:url(#SVGID_00000128448995739208957920000000867042940587045256_);fill-rule:evenodd;clip-rule:evenodd;fill:#B499C7;}
	.st10{clip-path:url(#SVGID_00000128448995739208957920000000867042940587045256_);}
	.st11{clip-path:url(#SVGID_00000086681256218638757340000014161714510787866506_);}
	
		.st12{clip-path:url(#SVGID_00000053514648646559900850000006254865169971169678_);fill-rule:evenodd;clip-rule:evenodd;fill:#FDF8E0;}
	.st13{clip-path:url(#SVGID_00000053514648646559900850000006254865169971169678_);}
	.st14{clip-path:url(#SVGID_00000067226423882216852780000009229641218206092468_);}
	
		.st15{clip-path:url(#SVGID_00000133516031573656464430000009905958355659462562_);fill-rule:evenodd;clip-rule:evenodd;fill:#F2CA4E;}
	.st16{clip-path:url(#SVGID_00000133516031573656464430000009905958355659462562_);}
	.st17{clip-path:url(#SVGID_00000174572520357732507000000003716293458294186393_);}
	
		.st18{clip-path:url(#SVGID_00000009562190469712815250000017055865745156954029_);fill-rule:evenodd;clip-rule:evenodd;fill:#534578;}
	.st19{clip-path:url(#SVGID_00000009562190469712815250000017055865745156954029_);}
	.st20{clip-path:url(#SVGID_00000067196615412671252820000001824351826568071556_);}
	
		.st21{clip-path:url(#SVGID_00000083056636231653488950000001504776162734118549_);fill-rule:evenodd;clip-rule:evenodd;fill:#FFFFFF;}
	.st22{clip-path:url(#SVGID_00000083056636231653488950000001504776162734118549_);}
	.st23{clip-path:url(#SVGID_00000038374694118740760930000008084262844965111717_);}
</style>
<path class="st4" d="M913.37,260.06H15.13c-8.13,0-14.72-6.59-14.72-14.72V14.67C0.41,6.53,7-0.06,15.13-0.06h898.24
	c8.13,0,14.72,6.59,14.72,14.72v230.67C928.09,253.47,921.5,260.06,913.37,260.06z"/>
<g>
	<g>
		<path class="st1" d="M396.57,124.67v6.38h-7.2l-1.39,7.01h6.38v6.38h-7.63l-1.97,9.84h-6.96l1.92-9.84h-6.53l-1.92,9.84h-7.01
			l1.97-9.84h-5.47v-6.38h6.72l1.39-7.01h-5.9v-6.38h7.15l1.97-9.84h6.96l-1.92,9.84h6.53l1.92-9.84h7.01l-1.97,9.84H396.57z
			 M374.49,138.06h6.53l1.34-7.01h-6.53L374.49,138.06z"/>
		<path class="st1" d="M442.03,125.54h5.33v-11.28h6.72v35.71h-18.77v-35.71h6.72V125.54z M442.03,132.21v11.04h5.33v-11.04H442.03z
			 M467.56,127.55V111.9h7.3v45.07h-7.3v-22.66h-3.26v21.5h-7.01v-43.25h7.01v14.98H467.56z"/>
		<path class="st1" d="M493,143.15c4.61,0,9.62-0.43,15.02-1.3l0.91,6.62c-5.76,0.99-11.49,1.49-17.18,1.49h-9.5v-35.23h7.58v28.42
			H493z M511.92,124.72V111.9h7.49v45.07h-7.49v-25.44h-12.62v-6.82H511.92z"/>
		<path class="st1" d="M539.04,154.29v-5.81l14.06-13.92c1.89-1.89,3.24-3.48,4.06-4.78c0.82-1.3,1.22-2.63,1.22-4.01
			c0-1.47-0.51-2.66-1.54-3.58c-1.02-0.91-2.51-1.37-4.46-1.37c-1.82,0-3.31,0.59-4.46,1.78c-1.15,1.18-2,2.8-2.54,4.85l-7.1-1.73
			c0.9-3.33,2.55-6.1,4.97-8.3s5.46-3.31,9.14-3.31c4.06,0,7.31,1,9.74,3s3.65,4.78,3.65,8.33c0,2.43-0.54,4.61-1.63,6.53
			c-1.09,1.92-2.78,4.03-5.09,6.34l-9.31,9.12h16.8v6.86H539.04z"/>
	</g>
</g>
</svg>
