<?xml version="1.0" encoding="UTF-8"?>
<svg id="_레이어_1" data-name="레이어 1" xmlns="http://www.w3.org/2000/svg" xmlns:xlink="http://www.w3.org/1999/xlink" viewBox="0 0 928.5 260">
  <defs>
    <style>
      .cls-1 {
        fill: #fff;
      }

      .cls-2 {
        fill: #37474f;
      }

      .cls-3 {
        fill: #455a64;
      }

      .cls-4 {
        fill: #c7c7c7;
      }

      .cls-5 {
        fill: url(#_무제_그라디언트_4);
        stroke: url(#_무제_그라디언트_3);
        stroke-miterlimit: 10;
        stroke-width: .3px;
      }

      .cls-6 {
        fill: #ff9bbc;
      }

      .cls-7 {
        fill: #f7a9a0;
      }

      .cls-8 {
        fill: #7e57c2;
      }

      .cls-9 {
        isolation: isolate;
        opacity: .1;
      }

      .cls-10 {
        fill: #6a60a9;
      }

      .cls-11 {
        fill: #263238;
      }
    </style>
    <linearGradient id="_무제_그라디언트_4" data-name="무제 그라디언트 4" x1=".41" y1="130" x2="928.09" y2="130" gradientUnits="userSpaceOnUse">
      <stop offset="0" stop-color="#56477d"/>
      <stop offset=".13" stop-color="#594980"/>
      <stop offset=".33" stop-color="#63518a"/>
      <stop offset=".47" stop-color="#735e9c"/>
      <stop offset=".66" stop-color="#8b70b4"/>
      <stop offset=".79" stop-color="#a987d4"/>
      <stop offset="1" stop-color="#c59df1"/>
    </linearGradient>
    <linearGradient id="_무제_그라디언트_3" data-name="무제 그라디언트 3" x1=".26" y1="130" x2="928.24" y2="130" gradientUnits="userSpaceOnUse">
      <stop offset="0" stop-color="#56477d"/>
      <stop offset=".15" stop-color="#5e4d85"/>
      <stop offset=".39" stop-color="#745e9c"/>
      <stop offset=".68" stop-color="#987ac2"/>
      <stop offset="1" stop-color="#c59df1"/>
    </linearGradient>
  </defs>
  <rect class="cls-5" x=".41" y="-.06" width="927.68" height="260.12" rx="14.72" ry="14.72"/>
  <g>
    <g id="freepik--Lines--inject-67">
      <path class="cls-11" d="m800,121.36c3.62-2.24,7.28-4.42,10.94-6.6l11.01-6.47,11.08-6.34,5.57-3.13,5.6-3.08-5.45,3.32-5.48,3.27-11.02,6.47-11.07,6.34c-3.73,2.09-7.44,4.18-11.18,6.21Z"/>
      <path class="cls-11" d="m764.5,49.74c1.53-1.03,3.1-2,4.67-2.94s3.16-1.9,4.75-2.84,3.19-1.84,4.82-2.71l2.44-1.34c.82-.42,1.63-.85,2.47-1.26-.76.52-1.55,1.01-2.32,1.51l-2.35,1.46c-1.57.97-3.16,1.9-4.75,2.83s-3.19,1.84-4.82,2.71-3.24,1.76-4.89,2.58Z"/>
      <path class="cls-11" d="m788,123.57c1.62-1.08,3.28-2.11,4.94-3.12s3.34-2.01,5.02-2.99,3.38-1.94,5.09-2.87l2.57-1.39c.86-.45,1.72-.91,2.59-1.34-.81.55-1.64,1.06-2.45,1.59l-2.48,1.54c-1.66,1.02-3.34,2.01-5.02,2.99s-3.38,1.94-5.09,2.87-3.42,1.85-5.17,2.74Z"/>
      <path class="cls-11" d="m751.59,51.48c1.62-1.08,3.28-2.11,4.94-3.12s3.34-2.01,5.02-2.99,3.38-1.94,5.09-2.87l2.57-1.39c.86-.45,1.72-.91,2.6-1.34-.81.55-1.64,1.06-2.45,1.59l-2.49,1.54c-1.66,1.02-3.34,2.01-5.02,2.99s-3.38,1.94-5.09,2.87-3.42,1.87-5.17,2.74Z"/>
      <path class="cls-11" d="m818.54,212.23c1.18-.82,2.35-1.58,3.56-2.32s2.42-1.47,3.64-2.19,2.45-1.41,3.71-2.07l1.88-.99c.64-.31,1.26-.64,1.91-.94-.59.41-1.18.79-1.77,1.18l-1.79,1.14c-1.18.76-2.42,1.47-3.64,2.19s-2.45,1.41-3.71,2.07-2.5,1.34-3.78,1.95Z"/>
      <path class="cls-11" d="m800.76,108.24c1.97-1.28,3.97-2.51,5.98-3.72s4.04-2.39,6.06-3.59,4.07-2.35,6.12-3.47l3.09-1.69c1.04-.55,2.07-1.11,3.12-1.64-.98.65-1.98,1.26-2.98,1.89l-3.01,1.84c-2.01,1.22-4.04,2.39-6.05,3.59s-4.07,2.35-6.12,3.47-4.12,2.27-6.21,3.34Z"/>
      <path class="cls-11" d="m818.08,207.94c1.62-1.08,3.28-2.11,4.94-3.12s3.34-2.01,5.02-2.99,3.38-1.94,5.09-2.87l2.57-1.39c.86-.44,1.72-.91,2.6-1.34-.81.54-1.64,1.06-2.46,1.59l-2.48,1.54c-1.66,1.02-3.34,2.01-5.02,2.99s-3.38,1.94-5.09,2.87-3.42,1.86-5.17,2.73Z"/>
      <path class="cls-11" d="m754.55,252.21c2.55-1.62,5.12-3.18,7.71-4.71s5.2-3.06,7.79-4.6,5.23-3.01,7.86-4.48l3.95-2.19c1.33-.71,2.65-1.44,3.98-2.14-1.27.81-2.56,1.59-3.84,2.39l-3.87,2.35c-2.59,1.55-5.2,3.06-7.8,4.6-2.6,1.54-5.22,3.01-7.85,4.47s-5.27,2.89-7.94,4.3Z"/>
      <path class="cls-11" d="m763.04,240.83c1.62-1.08,3.28-2.11,4.94-3.12s3.34-2.01,5.02-2.99,3.38-1.94,5.09-2.87l2.57-1.39c.87-.45,1.72-.91,2.6-1.34-.81.55-1.64,1.06-2.45,1.59l-2.49,1.54c-1.65,1.02-3.34,2-5.02,2.98s-3.38,1.94-5.09,2.87-3.42,1.87-5.17,2.74Z"/>
    </g>
    <g id="freepik--Character--inject-67">
      <path class="cls-8" d="m700.71,248.6l-6.43-1.28h0l3.21-16.1h0l6.43,1.28c2.96.59,4.88,3.46,4.29,6.42l-1.07,5.35c-.57,2.96-3.43,4.9-6.4,4.33-.01,0-.03,0-.04,0Z"/>
      <path class="cls-9" d="m700.71,248.6l-6.43-1.28h0l3.21-16.1h0l6.43,1.28c2.96.59,4.88,3.46,4.29,6.42l-1.07,5.35c-.57,2.96-3.43,4.9-6.4,4.33-.01,0-.03,0-.04,0Z"/>
      <path class="cls-8" d="m701.14,248.69l-9.62-1.92c-3.58-.72-5.89-4.19-5.18-7.76l.63-3.16c.72-3.57,4.2-5.88,7.78-5.16l9.61,1.91c-3.59-.71-6.63,1.69-7.33,5.26l-.64,3.17c-.72,3.57,1.16,6.95,4.75,7.67Z"/>
      <path class="cls-9" d="m704.63,240.87c-.43,2.15-1.61,3.73-2.64,3.52s-1.52-2.11-1.09-4.26,1.61-3.73,2.64-3.51,1.52,2.11,1.09,4.25Z"/>
      <polygon class="cls-4" points="703.07 238.95 702.51 241.79 723.73 246.02 724.3 243.19 716.08 239.83 717.03 235.12 712.73 234.26 711.81 238.86 703.07 238.95"/>
      <path class="cls-8" d="m734.85,255.37l-5.36-1.07h0l3.2-16.05h0l5.36,1.07c3.58.71,5.9,4.19,5.19,7.76h0l-.63,3.16c-.74,3.55-4.2,5.84-7.77,5.13Z"/>
      <path class="cls-9" d="m734.85,255.37l-5.36-1.07h0l3.2-16.05h0l5.36,1.07c3.58.71,5.9,4.19,5.19,7.76h0l-.63,3.16c-.74,3.55-4.2,5.84-7.77,5.13Z"/>
      <path class="cls-8" d="m736.34,255.7l-9.62-1.92c-3.58-.72-5.89-4.19-5.18-7.76l.63-3.16c.72-3.57,4.19-5.88,7.77-5.16l9.61,1.91c-3.59-.71-6.63,1.69-7.33,5.26l-.64,3.17c-.72,3.57,1.16,6.95,4.75,7.67Z"/>
      <path class="cls-9" d="m739.83,247.89c-.43,2.15-1.61,3.72-2.64,3.51s-1.52-2.11-1.09-4.26,1.61-3.73,2.64-3.51,1.52,2.1,1.09,4.26Z"/>
      <path class="cls-8" d="m769.36,224.24l-5.36-1.07h0l3.21-16.1h0l5.36,1.07c3.58.7,5.92,4.17,5.22,7.74,0,0,0,.01,0,.02l-.63,3.14c-.71,3.57-4.19,5.89-7.77,5.18h0l-.03.02Z"/>
      <path class="cls-9" d="m769.36,224.24l-5.36-1.07h0l3.21-16.1h0l5.36,1.07c3.58.7,5.92,4.17,5.22,7.74,0,0,0,.01,0,.02l-.63,3.14c-.71,3.57-4.19,5.89-7.77,5.18h0l-.03.02Z"/>
      <path class="cls-8" d="m770.85,224.55l-9.61-1.92c-3.57-.72-5.89-4.19-5.18-7.76l.63-3.16c.72-3.57,4.19-5.88,7.77-5.16l9.62,1.91c-3.59-.71-6.63,1.69-7.37,5.26l-.63,3.17c-.7,3.57,1.19,6.96,4.77,7.68Z"/>
      <ellipse class="cls-9" cx="772.49" cy="216.37" rx="3.97" ry="1.9" transform="translate(409.01 931.52) rotate(-78.7)"/>
      <polygon class="cls-4" points="772.79 214.81 772.22 217.65 793.46 221.88 794.02 219.05 785.8 215.69 786.74 210.97 782.45 210.12 781.53 214.72 772.79 214.81"/>
      <path class="cls-8" d="m805.66,231.48l-6.43-1.28h0l3.21-16.1h0l5.36,1.07c3.55.74,5.84,4.19,5.14,7.74l-.85,4.25c-.59,2.96-3.47,4.87-6.43,4.28v.03Z"/>
      <path class="cls-9" d="m805.66,231.48l-6.43-1.28h0l3.21-16.1h0l5.36,1.07c3.55.74,5.84,4.19,5.14,7.74l-.85,4.25c-.59,2.96-3.47,4.87-6.43,4.28v.03Z"/>
      <path class="cls-8" d="m806.06,231.56l-9.61-1.92c-3.57-.72-5.89-4.19-5.18-7.76l.64-3.17c.72-3.57,4.19-5.88,7.77-5.16l9.62,1.91c-3.59-.71-6.63,1.69-7.34,5.26l-.63,3.17c-.73,3.56,1.16,6.95,4.74,7.67Z"/>
      <path class="cls-9" d="m809.56,223.75c-.43,2.15-1.61,3.72-2.64,3.51s-1.52-2.11-1.09-4.26,1.62-3.73,2.64-3.51,1.52,2.11,1.09,4.26Z"/>
      <path class="cls-2" d="m790.24,188.06c1.58-.42,26.82,2.49,30.79,3.88.27.09,0,3.17.02,3.39.07,1.35-3.67,7.38-7.36,9.32-3.68,1.94-56.41,23.34-93.99,30.42-8.49,1.6-23.82-.04-24.91-5.31-.17-1.11-.12-2.25.14-3.35.85-1.94,3.27-3.08,8.28-5.71,22.57-11.95,76.45-26.88,77.97-27.18s8.07-5.2,9.06-5.45Z"/>
      <path class="cls-11" d="m790.69,185.82c1.68-.41,29.28,5.29,30.34,6.13s-4.07,9.06-7.75,10.99c-3.68,1.94-55.52,22.82-93.12,29.89-12.21,2.3-39.07-2.44-16.5-14.39,22.57-11.95,76.46-26.87,77.97-27.18s8.06-5.19,9.06-5.44Z"/>
      <path class="cls-11" d="m770.97,75.26c5.2,4.99,10.61,11.85,17.76,14.06,5.61,1.72,11.63.31,16.81-2.08,11.38-5.26,22.47-16.88,19.2-30.4-1.3-5.4-8.07-12.05-14.19-10.35-3.14.88-5.59,3.05-8.25,4.82-3.5,2.34-7.1,2.46-11.18,1.38-7.98-2.1-8.09-4.71-14.57-9.45-1.21-.88-6.07-2.5-7.97-2.23-1.84.13-3.61.76-5.12,1.82-1.51.71-2.82,1.78-3.81,3.12-2.05,2.9-1.84,7.59-2.12,10.99-.28,3.4.52,5.81,2.98,8.26,3.44,3.4,6.98,6.71,10.48,10.05Z"/>
      <path class="cls-11" d="m772.94,78.17c-4.48-4.88-8.86-9.84-13.26-14.78,0,0,0-.07.04-.04,3.75,3.95,7.54,7.85,11.24,11.86,3.7,4.01,7.08,8.19,11.03,11.81,8.87,8.07,20.69,2.03,26.98-6.02.29-.37.84.13.55.49-5.73,6.89-15.12,12.9-24.24,8.52-5-2.4-8.69-7.83-12.35-11.85Z"/>
      <path class="cls-11" d="m772.14,42.33s-.05-.1-.01-.14c.04-.04.1-.05.14-.01h0c5.17,4.12,10.8,9.41,17.6,10.38,3.35.47,6.76-.08,9.79-1.58,2.4-1.19,4.2-3.11,6.29-4.73,8.18-6.29,18.53,2.65,17.69,11.68-.02.19-.35.17-.33-.04.31-6.61-4.21-12.83-11.14-13.29-5.56-.36-8.8,5.44-13.65,7.35-10.05,3.96-19.31-3.15-26.38-9.61Z"/>
      <path class="cls-7" d="m757.58,84.41c-1.3,11.77.71,36.49,3.97,46.44,1.41,4.29,10.48,21.74,18.82,28.2,3.12,2.41,18.62-14.73,15.53-17.71-2.1-2.03-13.54-18.7-14.62-20.71-2.03-3.72-11.57-28.28-15.45-39.13-2.25-6.16-7.39-4.93-8.24,2.91Z"/>
      <path class="cls-7" d="m777.25,155.84c.24.36,3.59,5.47,6.02,8.01,1.81,1.89,7.19,7.21,9.48,5.43,1.56-1.22-1.23-4.71-3.15-7.23-1.01-1.34-1.84-3.67-.95-4.29,1.55-1.09,4.11,2.39,5.6,5,2.89,5.05,5.72,15.08,9.67,14.41,1.49-.25,1.55-4.56.7-7.04,1.77,3.34,3.25,7.44,4.92,7.22.96-.12,2.05-1.74,2.13-2.75.7.77,1.48,1.16,2.34.89,1.45-.43,1.82-2.06,1.66-4.07.37.16.79.14,1.13-.06,3.6-1.8-1.12-15.69-3.97-18.38-8.39-7.94-18.9-13.45-18.9-13.45-5.6.87-16.67,16.29-16.67,16.31Z"/>
      <path class="cls-11" d="m796.76,155.18c2.11,1.7,3.83,3.83,5.04,6.25,1.52,3.05,2.06,5.9,3.01,9.01,0,.04-.01.07-.05.08-.03,0-.06,0-.08-.04-.43-1.48-2.56-7.27-3.16-8.65-1.08-2.54-2.72-4.81-4.8-6.62,0,0,0-.05.03-.03Z"/>
      <path class="cls-11" d="m800.96,152.11c2.15,2.17,4.36,4.4,6.04,6.98,1.83,2.82,2.61,6.16,3.41,9.38.48,1.95.91,3.9,1.3,5.85,0,.08-.11.13-.13.04-.78-3.32-1.67-6.61-2.65-9.87-.89-3.03-2.38-5.86-4.37-8.32-1.14-1.4-2.38-2.73-3.63-4.03-.03-.03,0-.07.03-.04Z"/>
      <path class="cls-11" d="m805.79,150.09c2.21,1.95,4.1,3.64,5.53,6.24,1.89,3.45,2.98,8.04,3.36,9.66.39,1.79.79,3.6,1.1,5.4,0,.07-.12.1-.13.03-.82-4.03-1.9-7.99-3.23-11.88-.6-1.86-1.49-3.62-2.64-5.21-1.21-1.52-2.55-2.93-4-4.23,0,0,0-.02.01-.01Z"/>
      <path class="cls-8" d="m756.92,101.08l16.02-3.25s-3.96-12.75-7.42-19.56-7.56-3.3-8.47,7.79c-.91,11.09-.13,15.02-.13,15.02Z"/>
      <path class="cls-11" d="m771.08,94.71c-2.27.34-4.52.74-6.76,1.19-1.1.22-2.22.43-3.31.68s-2.26.58-3.39.81c-.08.02-.07.14.01.13,1.11-.21,2.23-.34,3.34-.53s2.28-.45,3.42-.68c2.25-.46,4.48-.97,6.7-1.53.06,0,.05-.09-.02-.08Z"/>
      <path class="cls-9" d="m770.86,98.26l-13.94,2.82s-.78-3.93.1-15.02c.7-8.71,3.38-12.74,6.17-10.78l7.67,22.98Z"/>
      <polygon class="cls-11" points="774.28 98.23 773.34 96.11 755.94 100.4 756.22 102.58 774.28 98.23"/>
      <path class="cls-8" d="m760.9,110.9l-.99,12.46-41.5-15.78s18.4-26.35,31.99-34.31c7.03-4.12,13.95.26,15.18,6,.31,1.45,3.75,17.98,1.48,24-1.17,3.14-3.33,5.81-6.16,7.62Z"/>
      <path class="cls-11" d="m757.07,105.1c-1.79-.52-3.62-.89-5.47-1.09-.92-.11-1.86-.13-2.79-.16-.47,0-.93-.03-1.39-.07-.48-.02-.96-.1-1.43-.25-.04,0-.07.05,0,.07.41.19.83.35,1.27.48.43.11.87.19,1.31.23.94.11,1.88.16,2.83.25,1.89.19,3.79.37,5.66.69.06.03.11-.13.03-.16Z"/>
      <path class="cls-11" d="m760.57,108.57c-1.34-.74-2.72-1.4-4.14-1.96-.71-.28-1.44-.5-2.17-.71l-1.08-.3c-.39-.09-.8-.13-1.2-.23-.04,0-.07.06,0,.07.37.11.71.29,1.06.42l1.07.4c.71.26,1.42.54,2.14.8,1.44.52,2.86,1.06,4.28,1.63.08.05.13-.08.06-.12Z"/>
      <path class="cls-7" d="m744.84,75.05c-4.3-6.63-17.73-27.8-18.82-31.14-3.87-11.8,12.23-16.13,14.67-13.69,4.55,4.56,8.55,22.01,11.83,36.35,1.49,6.54-.15,20.07-7.68,8.49Z"/>
      <path class="cls-7" d="m766.54,34.66c2.1-2.19-6.97-22.28-11-20.27-14.75,7.37-27.8,18.35-29.33,22.22-1.55,4.28.67,9,4.95,10.55.81.29,1.65.46,2.51.49,8.33.45,30.8-10.79,32.87-12.98Z"/>
      <path class="cls-11" d="m740.09,46.97c9.17-1.58,20.29-8.4,20.31-8.41.17-.05.13-.3.03-.27-1.72.6-13.84,6.59-20.37,8.42-.06.02-.04.27.03.26Z"/>
      <path class="cls-7" d="m754.37,15.02c2.04-1.66,12.22-8.57,15.44-9.82s12.78-4.2,13.99-1.83c1.21,2.37-1.52,3.48-1.52,3.48,0,0,4.23-.6,5.24,1.89,1.01,2.49-3.29,4.05-3.29,4.05,0,0,4.39-.3,5.23,2.26.84,2.56-3.76,3.39-3.76,3.39,0,0,4-.47,3.79,1.93-.26,2.88-7.73,2.9-11.18,4.55-.79.37-15.38,8.73-15.38,8.73l-8.56-18.64Z"/>
      <path class="cls-11" d="m786.11,18.34c-5.51.03-7.89.99-12.45,3.9-.09.06-.19-.06-.11-.13,4.2-3.25,7.03-4.89,12.57-4.04.27.04.25.27,0,.27Z"/>
      <path class="cls-11" d="m784.7,12.77c-5.71.53-8.32,1.55-13.31,4.24-.07.04-.14-.08-.07-.12,4.66-3.06,7.54-4.62,13.31-4.41.26,0,.34.26.08.28Z"/>
      <path class="cls-11" d="m782.06,6.98c-5.48.91-8.39,1.91-12.91,5.15-.05.03-.11.02-.14-.03-.03-.04-.02-.1.02-.14,4.28-3.76,7.9-5.01,12.99-5.14.35-.02.39.1.04.15Z"/>
      <path class="cls-7" d="m760.07,35.55s6.77,1.23,9.87,1.12,14.47-4.77,13.6-7.28c-1.12-3.24-8.22-1.84-11.61-.7,0,0-2.59-7.5-7.9-7.59s-3.95,14.46-3.95,14.46Z"/>
      <path class="cls-11" d="m782.94,28.59c-3.16-2.22-7.51-.44-10.88.42-.17.05-.34-.04-.39-.21-.01-.04-.02-.07-.01-.11-1.3-3.07-4.04-7.03-7.47-7.76-.04,0-.07-.04-.07-.09s.04-.07.09-.07c3.8.28,6.8,3.95,8,7.4,3.44-.93,7.88-2.53,10.76.38l-.02.03Z"/>
      <path class="cls-8" d="m749.29,51.47l-15.78,7.15s7.08,12.24,12.35,18.46,8.62,1.61,6.9-10.06c-1.72-11.67-3.47-15.55-3.47-15.55Z"/>
      <path class="cls-11" d="m736.17,61.42c2.25-.89,4.49-1.85,6.7-2.85,1.09-.48,2.18-.96,3.24-1.49s2.19-1.14,3.31-1.67c.04-.01.05-.05.04-.09s-.05-.05-.09-.04c-1.09.48-2.22.87-3.32,1.34s-2.25,1.01-3.37,1.51c-2.21,1-4.4,2.06-6.57,3.17-.04.07,0,.15.07.12Z"/>
      <path class="cls-11" d="m744.44,75.18c1.03,1.57,1.7,3.45,2.67,5.04.03.04-.01.08-.05.05-.52-.77-1.2-1.83-1.44-2.23.06.17.31,1.4.42,1.95,0,0-.04.04-.04,0-.21-.52-.78-2.54-.87-2.95-.3-.58-.56-1.19-.77-1.82-.04-.01.04-.09.07-.03Z"/>
      <polygon class="cls-11" points="732.37 57.93 733.68 59.85 750 52.45 749.33 50.36 732.37 57.93"/>
      <path class="cls-11" d="m757.86,71.2c-2.28-.19-4.24.84-3.9,3.05.34,2.21,4.42,8.18,7.69,8.26s3.74-4.32,3.64-5.48-1.89-5.37-7.43-5.83Z"/>
      <path class="cls-7" d="m755.67,73.17c-.06.83,2.98,6.75,6.68,7.14,1.49.18,2.11-5.19,2.11-5.19l.25-.43,3.51-6.06-6.14-7.33-.9-1s-.85,1.73-1.89,3.87l-.15.31c-.06.12-.13.24-.18.35-.16.32-.32.64-.47.97s-.24.49-.35.76-.24.53-.36.79c-.84,1.88-1.55,3.82-2.12,5.8Z"/>
      <path class="cls-11" d="m768.23,68.64l-1.76,3.04c-3.67,1.14-8.11-1.55-9.44-2.43.24-.61.5-1.24.77-1.87l.35-.79c.12-.27.23-.52.35-.76s.32-.66.47-.97c.06-.12.11-.23.18-.35l.15-.31c1.04-2.16,1.89-3.87,1.89-3.87l.91,1,6.13,7.33Z"/>
      <path class="cls-7" d="m754.07,53.11c-4.86,11.3,1.37,15.48,3.81,16.53,2.22.95,9.89,3.9,15.89-6.84,6-10.74,2.27-16.56-2.68-19s-12.17-1.98-17.03,9.31Z"/>
      <path class="cls-11" d="m764.93,44.35s-1,1.71-.77,3.24c.5,3.11,3.95,3.3,4.75,4.7s-.23,3.33.43,4.61c.9,1.78,2.85,1.73,2.77,2.74s-.31,4.24.77,4.94,12.3-17.89-3.39-21.62c0,0-1.87-1.49-5.66-.69-4.18.85-7.52,6.53-7.52,6.53,0,0,.11-.06.77-.39.95-.5,1.41-1.01,2.08-1.29,1.06-.45,1.46-.06,2.54-.47,1.21-.56,2.31-1.34,3.24-2.29Z"/>
      <path class="cls-11" d="m765.42,43.56c-.47.72-.86,1.49-1.15,2.3-.33.77-.45,1.61-.35,2.44.21.79.7,1.47,1.38,1.92.66.48,1.45.79,2.15,1.34.36.28.64.66.81,1.09.12.44.16.89.11,1.34-.14.82-.06,1.66.23,2.43.35.74,1.02,1.28,1.82,1.48.78.22,1.71.21,2.35.8-.7-.51-1.59-.44-2.42-.61-.88-.18-1.64-.75-2.05-1.55-.35-.82-.45-1.72-.3-2.6.04-.4,0-.81-.11-1.2-.15-.36-.39-.67-.7-.9-.62-.51-1.42-.84-2.11-1.36-.36-.26-.67-.57-.93-.93-.28-.36-.46-.78-.53-1.22-.08-.89.08-1.78.47-2.58.36-.78.8-1.51,1.33-2.2Z"/>
      <path class="cls-11" d="m764.91,44.17c-.37.72-.83,1.38-1.37,1.98-.54.63-1.26,1.08-2.06,1.31-.39.08-.79.12-1.2.12-.36.02-.71.13-1,.34-.29.28-.6.53-.94.75-.36.19-.75.3-1.15.31.38-.09.73-.26,1.05-.48.31-.24.59-.52.85-.81.33-.28.74-.44,1.17-.47.38-.01.76-.06,1.13-.14.73-.21,1.39-.61,1.92-1.15.58-.54,1.11-1.13,1.6-1.75Z"/>
      <path class="cls-7" d="m770.81,62.08s3.62-2.98,5.04-1.59-2.01,6.21-4.19,6.39c-1.14.17-2.21-.61-2.38-1.75,0-.03,0-.05-.01-.08l1.54-2.98Z"/>
      <path class="cls-11" d="m774.84,61.84s.02.05,0,.05c-1.54.17-2.6,1.26-3.5,2.44.45-.44,1.17-.43,1.62.02.04.05.09.09.12.15.03.03,0,.08-.06.06-.45-.3-1.04-.28-1.48.05-.35.27-.67.58-.96.92-.1.1-.31-.04-.22-.15v-.04c.48-1.77,2.53-3.85,4.48-3.5Z"/>
      <path class="cls-11" d="m757.64,52.51c.28.07.55.07.84.14.29.09.6.08.89-.03.17-.11.25-.31.2-.5-.17-.36-.52-.59-.92-.62-.39-.09-.8-.03-1.15.16-.22.14-.28.44-.14.65.06.1.16.17.27.2Z"/>
      <path class="cls-11" d="m765.12,56.68c-.28-.07-.55-.15-.81-.26-.3-.05-.58-.19-.78-.42-.1-.17-.08-.39.07-.54.31-.24.73-.3,1.1-.15.39.1.72.34.95.66.13.22.06.51-.16.64-.11.06-.23.08-.36.05Z"/>
      <path class="cls-11" d="m762.97,57.5s.05.06.03.09c-.36.77-.63,1.7-.04,2.25,0,0,0,.05,0,.04-.82-.48-.45-1.72.01-2.39Z"/>
      <path class="cls-11" d="m764.02,56.98c1.29.44.32,2.98-.87,2.57s-.21-2.93.87-2.57Z"/>
      <path class="cls-11" d="m764.46,57.3c.17.23.29.57.53.68s.62-.03.94-.21c.03,0,.04,0,.03.05-.18.49-.56.92-1.11.79s-.68-.69-.62-1.21c.03-.08.16-.18.23-.09Z"/>
      <path class="cls-11" d="m758.35,55.53s-.07,0-.09.05c-.23.81-.63,1.7-1.44,1.74v.04c.91.18,1.43-1,1.52-1.83Z"/>
      <path class="cls-11" d="m757.89,54.49c-1.26-.51-2.18,2.04-1.02,2.52s2.07-2.09,1.02-2.52Z"/>
      <path class="cls-11" d="m757.34,54.44c-.28.06-.59.24-.87.17s-.46-.43-.57-.77c0-.04-.04,0-.05,0-.26.45-.12,1.03.32,1.32.46.24.96-.07,1.29-.52.03-.06,0-.23-.12-.2Z"/>
      <path class="cls-11" d="m760.07,63.53c-.25.13-.53.33-.83.25-.3-.1-.57-.26-.8-.48,0,0-.05,0-.05.03.13.4.47.69.88.76.36.02.7-.18.86-.51.03-.04-.02-.08-.07-.06Z"/>
      <path class="cls-11" d="m757.87,59.43c-.3.54-.57,1.1-.81,1.67,0,.05.1.13.29.21h0c.9.55,2.04.55,2.94,0,.03-.01.04-.05.03-.08s-.05-.04-.08-.03h0c-.89.21-1.83.13-2.67-.23.02-.17,1.11-1.87,1.03-1.91-.44-.13-.9-.2-1.37-.2,1.21-2.35,2.79-4.49,3.96-6.85.01-.09-.08-.16-.14-.1-1.81,2.13-3.27,4.8-4.58,7.19-.14.31,1.15.33,1.41.32Z"/>
      <path class="cls-11" d="m757.47,61.12c.13.57.41,1.1.81,1.53.22.23.51.38.82.44.69.12.97-.44,1.07-.97.05-.28.08-.57.06-.86-.91.25-1.88.2-2.76-.14Z"/>
      <path class="cls-6" d="m758.28,62.66c.22.23.51.38.82.44.69.12.97-.44,1.07-.97-.68-.28-1.46-.06-1.89.53Z"/>
      <path class="cls-7" d="m809.64,215.2c-1.82.16-50-11.65-51.56-13.26-.6-.6.72-7.71,2.54-16.25.01-.09.02-.18.06-.27.38-1.79,5.16-16.65,5.16-16.65l30.84,7.84-4.83,16.07-.14.53s16.42,12.75,17.94,14.7,1.83,7.14-.02,7.28Z"/>
      <path class="cls-8" d="m809.91,215.34c-1.85.15-50.54-11.6-52.12-13.22-.6-.61.69-7.79,2.51-16.41l31.42,7.48s16.63,12.82,18.17,14.78,1.85,7.21.01,7.37Z"/>
      <path class="cls-11" d="m809.67,213.23c-8.12-2.17-41.05-10.16-49.24-11.69-.07,0-.08.03,0,.05,8,2.33,41.01,10.05,49.22,11.77.17.03.23-.11.02-.13Z"/>
      <path class="cls-11" d="m807.18,205.47c-1.82-.49-3.77-.2-5.36.81-1.43.89-2.46,2.3-2.88,3.93,0,.05.08.07.1.01,1.37-3.16,4.67-5.05,8.1-4.62.08.01.11-.11.05-.12Z"/>
      <path class="cls-11" d="m790.53,194.18c-3.26-.84-7.33-.6-9.98,1.58-.1.09.02.23.13.2,3.22-.8,6.51-1.26,9.83-1.37.11,0,.21-.08.22-.19,0-.11-.08-.21-.19-.22Z"/>
      <path class="cls-11" d="m792.81,195.77c-3.26-.84-7.33-.6-9.98,1.58-.1.09.02.23.13.2,3.22-.8,6.51-1.26,9.83-1.37.11,0,.21-.08.22-.19,0-.11-.08-.21-.19-.22Z"/>
      <path class="cls-11" d="m795.1,197.36c-3.26-.84-7.33-.6-9.98,1.58-.1.09.02.23.13.2,3.22-.8,6.51-1.26,9.83-1.37.11,0,.21-.08.22-.19,0-.11-.08-.21-.19-.22Z"/>
      <path class="cls-11" d="m797.38,198.94c-3.26-.83-7.33-.6-9.99,1.59-.1.09.02.23.13.2,3.22-.8,6.51-1.26,9.83-1.37.12-.01.2-.11.19-.23,0-.09-.08-.17-.16-.19Z"/>
      <path class="cls-11" d="m764.38,194.3c-3.66-.88-5.03,4.81-1.36,5.69s5.03-4.81,1.36-5.69Z"/>
      <path class="cls-11" d="m796.16,186.33c-1.32-1.77-3.73-.94-5.1.24-2.3,2.06-4.02,4.69-4.98,7.62-.02.04,0,.09.05.11,0,0,.02,0,.03,0,0,.23.18.42.4.42.04,0,.08,0,.12-.02,2.72-1.04,5.73-1.83,8.06-3.67,1.35-1.08,2.66-3.04,1.42-4.71Zm-5.69,5.96c-1.32.55-2.66,1.03-3.97,1.62.92-1.51,1.91-2.98,2.98-4.39.53-.68,1.11-1.32,1.73-1.92.97-.9,4.84-2.85,4.31.77-.27,2-3.47,3.26-5.05,3.91h0Z"/>
      <path class="cls-11" d="m777.67,193.47c2.74,1.12,5.87,1.02,8.77,1.27.23,0,.42-.18.42-.4,0-.05,0-.11-.03-.16.04-.03.05-.08.03-.13,0,0,0,0,0-.01-1.75-2.54-4.14-4.58-6.93-5.92-1.64-.74-4.18-.87-4.96,1.19-.7,1.96,1.12,3.48,2.71,4.16Zm-1.52-2.33c-1.54-3.33,2.73-2.54,3.91-1.97.76.4,1.49.85,2.19,1.35,1.47,1.01,2.79,2.22,4.13,3.37-1.42-.2-2.84-.29-4.23-.44-1.72-.18-5.15-.5-6-2.33v.02Z"/>
      <path class="cls-2" d="m758.69,115.63s-.92,5.13-1.27,6.89c0,0,30.03,3.52,40.13,8.62,3.7,1.87,9.43,11.49,9.02,15.97-1.79,19.42-13.73,43.24-13.73,43.24l-31.59-7.03,7.43-23.96c1.07.33-34.95,9-48.31-19.39-4.35-9.26-1.37-32.25-1.37-32.25l39.68,7.91Z"/>
      <polygon class="cls-3" points="760.09 183.92 761.55 176.69 795.71 185.24 793.16 192.27 760.09 183.92"/>
      <path class="cls-11" d="m774.27,125.02l-15.92,35.82c-11.44.32-29.38-2.63-37.95-20.87-4.35-9.26-1.37-32.25-1.37-32.25l39.66,7.9s-.92,5.13-1.27,6.89c.01,0,7.84.92,16.86,2.5Z"/>
      <path class="cls-11" d="m770.78,151.34c-.35,1-.7,1.99-.98,3.01.08-.94.18-1.87.34-2.79.01-.1-.15-.15-.18-.02-.31,1.24-.45,2.52-.41,3.8v.12c-.38,1.36-.62,2.75-.73,4.15-.01.08.12.12.15.02.46-1.35.75-2.77,1.08-4.14s.57-2.75.87-4.12c-.03-.05-.11-.07-.13-.03Z"/>
      <path class="cls-7" d="m760.59,226.89c-1.82.14-47.5-11.56-49.03-13.19-.6-.6.76-7.7,2.65-16.23l.03-.27c.39-1.79,5.68-22.03,5.68-22.03l30.95,7.24-5.47,22.26-.5,1.2s14.08,12.13,15.58,14.11,1.95,6.77.12,6.9Z"/>
      <path class="cls-8" d="m760.74,227.3c-1.85.14-47.82-11.82-49.37-13.46-.6-.62.78-7.78,2.68-16.39l31.19,7.75s-.36.64-.2.76c2.03,1.61,14.36,12.13,15.77,13.97,1.5,1.98,1.77,7.23-.07,7.36Z"/>
      <path class="cls-11" d="m760.53,225.19c-8.09-2.26-38.34-10.28-46.51-11.9-.07,0-.08.03,0,.05,7.97,2.41,38.29,10.17,46.49,11.98.16.04.18-.09.02-.13Z"/>
      <path class="cls-11" d="m758.08,217.4c-3.48-.95-7.14-.9-9.35-.24s-4.08,1.8-4.41,3.51c0,.05.15.09.18.02,1.66-2.97,7.63-4.44,13.56-3.24.11.07.14-.02.02-.05Z"/>
      <path class="cls-11" d="m743.34,206.28c-3.2-1.04-7.27-1.07-10.08.93-.11.08-.03.22.12.21,3.26-.6,6.57-.84,9.88-.73.12,0,.22-.08.23-.2,0-.09-.05-.18-.14-.21Z"/>
      <path class="cls-11" d="m745.52,208.02c-3.2-1.04-7.27-1.07-10.08.93-.11.08,0,.23.11.21,3.26-.6,6.57-.84,9.88-.74.11.02.22-.05.25-.16.02-.11-.05-.22-.16-.25h0Z"/>
      <path class="cls-11" d="m747.7,209.75c-3.2-1.04-7.27-1.07-10.08.93-.11.08-.03.23.11.21,3.26-.59,6.57-.84,9.88-.73.12,0,.22-.08.23-.2,0-.09-.05-.18-.14-.21Z"/>
      <path class="cls-11" d="m749.87,211.47c-3.19-1.04-7.27-1.07-10.08.93-.11.08-.03.22.12.21,3.26-.6,6.57-.84,9.88-.73.12,0,.22-.09.22-.2,0-.09-.05-.18-.14-.21Z"/>
      <path class="cls-11" d="m718.04,206.09c-3.66-.91-5.08,4.76-1.42,5.67s5.08-4.76,1.42-5.67Z"/>
      <path class="cls-11" d="m749.48,198.81c-1.21-1.84-3.66-1.17-5.1-.09-2.43,1.91-4.32,4.41-5.47,7.28,0,.07-.01.1.07.12-.02.23.15.43.38.45.04,0,.08,0,.12,0,2.78-.88,5.85-1.45,8.28-3.14,1.42-.98,2.86-2.85,1.72-4.6Zm-6.06,5.59c-1.35.45-2.72.85-4.06,1.34,1.02-1.45,2.12-2.85,3.29-4.18.57-.64,1.19-1.24,1.85-1.8,1.03-.84,5.01-2.54,4.24,1.05-.43,1.99-3.7,3.04-5.32,3.59Z"/>
      <path class="cls-11" d="m730.56,204.72c2.66,1.29,5.79,1.4,8.67,1.83.23.01.42-.16.43-.39,0-.04,0-.08-.01-.12.04-.02.05-.08.03-.12,0,0,0-.01-.01-.02-1.57-2.64-3.8-4.83-6.48-6.35-1.59-.85-4.15-1.14-5,.88-.9,1.9.8,3.53,2.37,4.29Zm-1.37-2.43c-1.32-3.42,2.89-2.36,4.03-1.69.73.44,1.44.94,2.1,1.48,1.36,1.14,2.66,2.35,3.9,3.62-1.4-.3-2.81-.47-4.2-.71-1.71-.29-5.11-.83-5.83-2.71Z"/>
      <path class="cls-2" d="m749.27,188.88l-31.13-6.8,6.17-29.02s-9.99-3.45-14.49-8.32c-13.45-14.61,8.58-37.13,8.58-37.13l35.69,7.11-28.85-5.75c1.03-1.62,5.92-6.81,10.72-8.92s18.13-2.24,21.83,1.2c16.43,15.26-8.53,87.64-8.53,87.64Z"/>
      <path class="cls-11" d="m725.61,108.22c-1.94,1.46-3.56,3.54-5.1,5.71-.98,1.38-1.9,2.82-2.79,4.35-1.27,1-2.38,2.17-3.31,3.49,0,.04.02.12.05.09.79-.88,1.65-1.68,2.59-2.4-.26.47-.52.94-.78,1.41-.76,1.44-1.45,2.93-2.05,4.44,0,.05.04.11.06.07,1.37-2.39,2.76-4.77,4.23-7.03s2.98-4.34,4.6-6.36c.9-1.14,1.8-2.29,2.64-3.53.07-.09-.05-.31-.14-.25Z"/>
      <polygon class="cls-3" points="716.57 184.13 717.82 176.87 752.21 184.37 749.88 191.48 716.57 184.13"/>
      <path class="cls-7" d="m761.73,113.23c-1.69-.05-3.39.03-5.08-.16-.81-.14-1.64-.22-2.46-.24-.85.02-1.69.08-2.54.14-1.67.03-3.33.2-4.96.53-1.68.45-3.39.76-5.12.92-.06,0-.06.16-.02.15,1.7-.05,3.4.06,5.08.34,1.17.14,2.34.16,3.52.07-.74.06-1.47.19-2.18.38-1.2.33-2.4.68-3.61.89-.06,0-.07.15-.02.15,1.18,0,2.35.1,3.51.29l.5.06c-.41.04-.83.08-1.24.15-.62.1-1.2.26-1.8.39-.27.05-.55.1-.82.14h-.12c-.24-.12-.53-.05-.7.15-.03.03-.01.1-.01.1,1.15.14,2.28.39,3.43.55,1.17.12,2.34.18,3.51.16,2.3.12,4.61-.12,6.85-.7.2-.06.2-.54,0-.61-.96-.23-1.94-.39-2.93-.45l.18-.02c1.14-.2,2.28-.55,3.43-.85.05,0,.06-.16.02-.17-1.09-.32-2.21-.58-3.34-.76-.36-.04-.73-.06-1.09-.06l.45-.03c.81-.11,1.62-.28,2.41-.5,1.7-.33,3.41-.58,5.14-.73.14,0,.14-.28.02-.28Z"/>
      <path class="cls-7" d="m757.93,109.73c-1.14-.19-2.29-.28-3.42-.48-1.1-.26-2.22-.36-3.35-.3-2.27.23-4.5,1.04-6.77,1.22-.07,0-.07.16-.02.15,2.27-.18,4.5.38,6.77.48,1.13,0,2.25-.14,3.35-.41,1.13-.22,2.29-.27,3.42-.42.13,0,.13-.22.02-.24Z"/>
      <path class="cls-7" d="m754.05,121.94c-2.11-.31-4.17-.95-6.3-1.22-1.02-.12-2.05-.06-3.05.15-1.1.21-2.16.62-3.27.74-.06,0-.07.15-.02.15,1.08.08,2.15.26,3.19.53,1.03.21,2.08.28,3.13.22,2.11-.15,4.19-.52,6.31-.38.1,0,.1-.18.02-.19Z"/>
      <path class="cls-11" d="m733.07,114.9c-1.04,1.97-1.87,4.04-2.49,6.18.15-1.2.26-2.41.37-3.62.01-.1-.15-.14-.17-.02-.38,1.53-.54,3.1-.48,4.68-.57,2.26-.97,4.57-1.36,6.88-.86,5.22-1.84,10.41-2.83,15.6-.56,2.92-1.19,5.82-1.64,8.76,0,.03.02.05.04.05s.05-.02.05-.04c.79-2.48,1.39-5.01,1.97-7.54s1.14-5.19,1.64-7.8c.96-5.01,1.65-10.06,2.64-15.06.47-2.76,1.26-5.45,2.36-8.03,0-.07-.11-.11-.12-.04Z"/>
    </g>
  </g>
  <g>
    <g>
      <path class="cls-1" d="m69.22,155.24c-1.31.23-2.78.42-4.4.55-1.62.13-3.2.2-4.73.2h-3.38v-9.79h10.19v1.53h-8.5v6.74h1.97c1.27,0,2.68-.06,4.24-.19,1.56-.12,3.03-.3,4.43-.52l.19,1.48Zm-.56,2.96c1.03,0,1.93.19,2.7.58.77.38,1.35.91,1.76,1.57.41.67.61,1.41.61,2.22s-.2,1.57-.61,2.23c-.41.66-.99,1.17-1.76,1.55-.77.38-1.67.56-2.7.56h-4.37c-1.03,0-1.93-.19-2.69-.56-.76-.38-1.34-.89-1.75-1.55-.41-.66-.61-1.4-.61-2.23s.2-1.55.61-2.22c.41-.67.99-1.19,1.75-1.57.76-.38,1.66-.58,2.69-.58h4.37Zm-.31,7.21c1.19,0,2.1-.26,2.72-.79.63-.52.94-1.22.94-2.08s-.31-1.51-.94-2.04c-.63-.53-1.54-.8-2.72-.8h-3.73c-1.19,0-2.1.27-2.74.8s-.95,1.21-.95,2.04.31,1.55.94,2.08c.63.52,1.54.79,2.75.79h3.73Zm4.84-20.36v4.84h3.59v1.53h-3.59v5.47h-1.69v-11.83h1.69Z"/>
      <path class="cls-1" d="m84.93,152.75c-1.08,1.89-2.9,3.65-5.45,5.26l-.89-1.31c2.02-1.31,3.52-2.7,4.51-4.16.99-1.46,1.48-3.1,1.48-4.93v-1.69h1.67v1.69c0,1.3-.21,2.52-.63,3.66l6.65,5-.94,1.29-6.39-4.81Zm-.54,7.35v5.05h13.27v1.55h-14.93v-6.6h1.67Zm10.59-15.07h1.67v16.46h-1.67v-16.46Z"/>
      <path class="cls-1" d="m100.87,163.13l-.09-1.55h3.95c1.39,0,3.06-.06,5.01-.19,1.95-.12,3.75-.29,5.41-.49l.19,1.48c-1.61.23-3.39.42-5.34.55-1.95.13-3.74.2-5.37.2h-3.76Zm3.93-5.83c-.85-.42-1.53-1.04-2.03-1.89-.5-.85-.75-1.88-.75-3.1v-.49c0-1.22.25-2.25.75-3.1.5-.85,1.18-1.48,2.03-1.89.85-.41,1.82-.62,2.9-.62s2.02.21,2.88.62c.85.42,1.53,1.04,2.03,1.89.5.85.75,1.88.75,3.1v.49c0,1.22-.25,2.25-.75,3.1-.5.85-1.18,1.48-2.03,1.89-.85.41-1.81.62-2.88.62s-2.05-.21-2.9-.62Zm5.76-1.98c.74-.7,1.1-1.71,1.1-3.03v-.45c0-1.31-.36-2.33-1.09-3.04-.73-.71-1.69-1.07-2.88-1.07s-2.15.36-2.89,1.07c-.74.71-1.1,1.73-1.1,3.04v.45c0,1.31.37,2.32,1.1,3.03.74.7,1.7,1.06,2.89,1.06s2.13-.35,2.87-1.06Zm8.31,11.39h-1.67v-21.67h1.67v21.67Z"/>
      <path class="cls-1" d="m145.23,151.86h-5.12v3.94h-10.36v-9.6h10.36v4.16h5.12v-5.31h1.67v13.64h-1.67v-6.83Zm-13.83,2.42h7.07v-6.55h-7.07v6.55Zm16.88,11.04l-.75,1.5-8.17-4.02c-.72.81-1.7,1.57-2.94,2.27-1.24.7-2.68,1.31-4.34,1.84l-.61-1.46c2.35-.77,4.21-1.68,5.59-2.75s2.07-2.21,2.07-3.43v-1.2h1.71v1.2c0,.77-.19,1.5-.56,2.21l8.01,3.83Z"/>
      <path class="cls-1" d="m157.51,153.18c-1.07,1.89-2.89,3.7-5.47,5.42l-.89-1.31c1.99-1.39,3.47-2.79,4.46-4.19.99-1.4,1.48-2.99,1.48-4.75v-.52h-5.1v-1.5h11.83v1.5h-5.1v.52c0,1.19-.19,2.32-.56,3.38l6.5,5.1-.94,1.31-6.22-4.95Zm-.63,6.93v5.05h13.27v1.55h-14.93v-6.6h1.67Zm10.59-15.07h1.67v16.46h-1.67v-16.46Z"/>
      <path class="cls-1" d="m188.47,147.96c1.01,1.17,1.51,2.98,1.51,5.42v3.24c0,2.44-.5,4.25-1.51,5.42-1.01,1.17-2.32,1.76-3.93,1.76s-2.95-.59-3.96-1.76c-1.01-1.17-1.51-2.98-1.51-5.42v-3.24c0-2.44.5-4.25,1.51-5.42,1.01-1.17,2.33-1.76,3.96-1.76s2.92.59,3.93,1.76Zm-.18,5.42c0-1.93-.34-3.35-1.02-4.26-.68-.92-1.59-1.37-2.74-1.37s-2.08.46-2.77,1.37c-.69.92-1.03,2.34-1.03,4.26v3.22c0,1.93.34,3.35,1.03,4.27.69.92,1.61,1.39,2.77,1.39s2.05-.46,2.74-1.39c.68-.92,1.02-2.35,1.02-4.27v-3.22Zm7.58.12h3.62v1.55h-3.62v11.65h-1.67v-21.67h1.67v8.48Z"/>
      <path class="cls-1" d="m203.54,162.04c-1.03-1.18-1.55-2.99-1.55-5.41v-3.24c0-2.43.52-4.23,1.55-5.41,1.03-1.18,2.37-1.77,4.01-1.77s2.98.59,4.02,1.77c1.03,1.18,1.55,2.99,1.55,5.41v3.24c0,2.43-.52,4.23-1.55,5.41-1.03,1.18-2.37,1.77-4.02,1.77s-2.98-.59-4.01-1.77Zm6.86-1.16c.7-.92,1.06-2.35,1.06-4.27v-3.22c0-1.93-.35-3.35-1.06-4.26-.71-.92-1.65-1.37-2.84-1.37s-2.13.46-2.83,1.37c-.7.92-1.04,2.34-1.04,4.26v3.22c0,1.93.35,3.35,1.04,4.27.7.92,1.64,1.39,2.83,1.39s2.14-.46,2.84-1.39Zm8.97,5.82h-1.69v-21.67h1.69v21.67Z"/>
      <path class="cls-1" d="m224.83,163.09v-16.32h10.43v1.55h-8.76v13.24h2.02c1.28,0,2.72-.07,4.31-.2,1.59-.13,3.1-.31,4.54-.53l.19,1.48c-1.35.23-2.85.42-4.51.56-1.66.14-3.26.21-4.81.21h-3.4Zm16.79,3.62h-1.67v-21.67h1.67v21.67Z"/>
      <path class="cls-1" d="m262.19,145.03h1.69v21.67h-1.69v-11.44h-4.56v1.36c0,2.43-.52,4.23-1.55,5.41-1.03,1.18-2.37,1.77-4.02,1.77s-2.98-.59-4.01-1.77c-1.03-1.18-1.55-2.99-1.55-5.41v-3.24c0-2.43.52-4.23,1.55-5.41,1.03-1.18,2.37-1.77,4.01-1.77s2.98.59,4.02,1.77c1.03,1.18,1.55,2.99,1.55,5.41v.35h4.56v-8.71Zm-6.22,8.36c0-1.93-.35-3.35-1.06-4.26-.71-.92-1.65-1.37-2.84-1.37s-2.13.46-2.83,1.37c-.7.92-1.04,2.34-1.04,4.26v3.22c0,1.93.35,3.35,1.04,4.27.7.92,1.64,1.39,2.83,1.39s2.14-.46,2.84-1.39c.7-.92,1.06-2.35,1.06-4.27v-3.22Z"/>
      <path class="cls-1" d="m278.82,158.77v4.65h9.3v1.55h-20.29v-1.55h9.32v-4.65h-6.69v-6.86h13.36v-3.76h-13.48v-1.53h15.17v6.79h-13.38v3.85h13.85v1.5h-7.16Z"/>
      <path class="cls-1" d="m306.78,157.73v5.68h9.3v1.55h-20.29v-1.55h9.32v-5.68h-6.69v-11.11h15.05v11.11h-6.69Zm5-9.58h-11.69v8.08h11.69v-8.08Z"/>
      <path class="cls-1" d="m320.58,154.63c-1.06-.85-1.58-2.06-1.58-3.64v-.45c0-1.58.53-2.8,1.58-3.65s2.41-1.28,4.05-1.28c1.06,0,2.02.18,2.87.55.85.37,1.51.92,2.01,1.67.49.74.74,1.65.74,2.71v.45c0,1.06-.25,1.96-.74,2.7s-1.16,1.29-2.01,1.66c-.85.37-1.8.55-2.87.55-1.64,0-2.99-.42-4.05-1.27Zm6.9-1.14c.73-.6,1.09-1.45,1.09-2.55v-.35c0-1.1-.36-1.94-1.09-2.55-.73-.6-1.68-.9-2.85-.9s-2.12.3-2.85.9c-.73.6-1.09,1.45-1.09,2.55v.35c0,1.1.36,1.95,1.09,2.55.73.6,1.68.9,2.85.9s2.13-.3,2.85-.9Zm8.89,13.21h-13.92v-8.38h13.92v8.38Zm-12.26-6.88v5.35h10.57v-5.35h-10.57Zm12.26-3.05h-1.69v-11.74h1.69v11.74Z"/>
      <path class="cls-1" d="m360.6,155.5h-20.29v-1.43h20.29v1.43Zm-11.67-3.29c-1.94,0-3.44-.29-4.51-.87-1.07-.58-1.6-1.46-1.6-2.65s.53-2.07,1.6-2.63c1.06-.56,2.57-.85,4.51-.85h3.05c1.96,0,3.47.28,4.53.85,1.06.56,1.6,1.44,1.6,2.63s-.54,2.07-1.61,2.65-2.58.87-4.52.87h-3.05Zm9.65,14.61h-15.64v-5.35h13.36v-2.44h-13.48v-1.41h15.17v5.26h-13.38v2.51h13.97v1.43Zm-6.86-16.04c1.53,0,2.7-.18,3.5-.53.8-.35,1.2-.87,1.2-1.56,0-1.36-1.57-2.04-4.7-2.04h-2.51c-3.15,0-4.72.68-4.72,2.04s1.57,2.09,4.72,2.09h2.51Z"/>
      <path class="cls-1" d="m368.8,146.32h10.14v10.71h-10.14v-10.71Zm1.64,9.2h6.86v-7.7h-6.86v7.7Zm1.46,4.58h1.69v5.05h13.03v1.55h-14.72v-6.6Zm13.5-15.07v5.75h3.59v1.55h-3.59v9.16h-1.69v-16.46h1.69Z"/>
      <path class="cls-1" d="m410.83,155.5h-20.29v-1.43h20.29v1.43Zm-2.02,11.32h-15.64v-5.35h13.36v-2.42h-13.48v-1.43h15.17v5.26h-13.38v2.51h13.97v1.43Zm-15.43-21.37h14.39v1.41h-12.73v3.83h12.96v1.41h-14.63v-6.65Z"/>
      <path class="cls-1" d="m429.43,145.03h1.69v21.67h-1.69v-11.44h-4.56v1.36c0,2.43-.52,4.23-1.55,5.41-1.03,1.18-2.37,1.77-4.02,1.77s-2.98-.59-4.01-1.77c-1.03-1.18-1.55-2.99-1.55-5.41v-3.24c0-2.43.52-4.23,1.55-5.41,1.03-1.18,2.37-1.77,4.01-1.77s2.98.59,4.02,1.77c1.03,1.18,1.55,2.99,1.55,5.41v.35h4.56v-8.71Zm-6.22,8.36c0-1.93-.35-3.35-1.06-4.26-.71-.92-1.65-1.37-2.84-1.37s-2.13.46-2.83,1.37c-.7.92-1.04,2.34-1.04,4.26v3.22c0,1.93.35,3.35,1.04,4.27.7.92,1.64,1.39,2.83,1.39s2.14-.46,2.84-1.39c.7-.92,1.06-2.35,1.06-4.27v-3.22Z"/>
      <path class="cls-1" d="m440.77,158.77h20.29v1.53h-9.3v6.67h-1.67v-6.67h-9.32v-1.53Zm1.69-3.85c5.17-1.94,7.75-4.23,7.75-6.86v-.35h-6.6v-1.53h14.63v1.53h-6.34v.35c0,.91-.2,1.75-.59,2.54l8.03,4.34-.75,1.43-8.12-4.46c-1.39,1.68-3.86,3.16-7.4,4.46l-.61-1.46Z"/>
      <path class="cls-1" d="m469,149.14c0,1.8-.18,3.55-.54,5.26l5.12,8.05-1.36.99-4.37-6.88c-.8,2.46-2.09,4.84-3.87,7.14l-1.25-1.08c1.55-2,2.71-4.09,3.48-6.27.77-2.18,1.15-4.58,1.15-7.21v-2.77h1.64v2.77Zm2.47,3.69h3.83v-7.44h1.62v20.92h-1.62v-11.93h-3.83v-1.55Zm8.5,13.88v-21.67h1.64v21.67h-1.64Z"/>
      <path class="cls-1" d="m500.13,158.93v4.48h5.45v1.53h-20.29v-1.53h5.47v-4.48h1.67v4.48h6.03v-4.48h1.67Zm-6.25-1.31c-1.28,0-2.41-.25-3.37-.74s-1.7-1.17-2.22-2.03c-.52-.86-.78-1.83-.78-2.91s.26-2.05.78-2.9c.52-.85,1.26-1.53,2.22-2.02s2.09-.74,3.37-.74h3.12c1.28,0,2.41.25,3.37.74s1.71,1.17,2.23,2.02c.52.85.79,1.82.79,2.9s-.26,2.05-.79,2.91c-.52.86-1.27,1.54-2.23,2.03s-2.09.74-3.37.74h-3.12Zm.28-9.82c-1.03,0-1.93.18-2.68.54-.75.36-1.32.85-1.71,1.48-.39.63-.59,1.33-.59,2.11s.2,1.51.59,2.15c.39.63.96,1.13,1.71,1.49.75.36,1.64.54,2.68.54h2.56c1.03,0,1.92-.18,2.68-.54.75-.36,1.32-.86,1.71-1.49.39-.63.59-1.35.59-2.15s-.2-1.49-.59-2.11c-.39-.63-.96-1.12-1.71-1.48-.75-.36-1.64-.54-2.68-.54h-2.56Z"/>
      <path class="cls-1" d="m508.86,165.42c-.26-.26-.39-.57-.39-.93s.13-.67.39-.92c.26-.25.57-.38.93-.38s.67.12.93.38c.26.25.39.56.39.92s-.13.67-.39.93c-.26.26-.57.39-.93.39s-.67-.13-.93-.39Zm1.73-5.69h-1.6l-.14-13.74h1.88l-.14,13.74Z"/>
    </g>
    <g>
      <rect class="cls-1" x="225.14" y="83.45" width="185.86" height="43.49" rx="5.4" ry="5.4"/>
      <g>
        <path class="cls-1" d="m71.12,108.76v5.63h12.2v4.73h-29.6v-4.73h12.2v-5.63h-8.93v-17.17h23.07v17.17h-8.93Zm3.73-12.5h-12.67v7.87h12.67v-7.87Z"/>
        <path class="cls-1" d="m103.06,108.76v5.63h12.2v4.73h-29.6v-4.73h12.2v-5.63h-8.93v-17.17h22.77v4.67h-17.57v7.87h17.87v4.63h-8.93Z"/>
        <path class="cls-1" d="m147.2,107.43h-29.6v-3.73h29.6v3.73Zm-2.43,13.87h-23.9v-8.17h17.87v-1.2h-18.04v-3.4h23.24v7.97h-17.87v1.27h18.7v3.53Zm-.5-18.7h-23.1v-7.73h17.24v-1.3h-17.37v-3.4h22.6v7.97h-17.24v1.13h17.87v3.33Z"/>
        <path class="cls-1" d="m175.61,104.23v1.4h12.2v4.07h-29.6v-4.07h12.2v-1.4h-8.63v-13.9h22.47v3.83h-17.24v1.2h17.24v3.7h-17.24v1.4h17.87v3.77h-9.27Zm1.33,6.73c1.62,0,3.03.22,4.23.67,1.2.44,2.12,1.06,2.75,1.85.63.79.95,1.7.95,2.72,0,1.58-.71,2.85-2.13,3.82-1.42.97-3.36,1.45-5.8,1.45h-7.87c-2.45,0-4.38-.48-5.8-1.45-1.42-.97-2.13-2.24-2.13-3.82,0-1.02.32-1.93.95-2.72.63-.79,1.55-1.41,2.75-1.85,1.2-.44,2.61-.67,4.23-.67h7.87Zm-1.23,6.53c1.38,0,2.38-.11,3.02-.33.63-.22.95-.56.95-1,0-.89-1.32-1.33-3.97-1.33h-5.4c-2.64,0-3.97.44-3.97,1.33,0,.44.32.78.95,1,.63.22,1.64.33,3.02.33h5.4Z"/>
        <path class="cls-1" d="m194.81,89.86h5.27v3.9h4.77v4.63h-14.8v-4.63h4.77v-3.9Zm5.95,11.4c.94.62,1.68,1.51,2.22,2.65.53,1.15.8,2.46.8,3.95v1.83c0,1.49-.27,2.81-.8,3.95-.53,1.15-1.27,2.03-2.22,2.65-.94.62-2.04.93-3.28.93s-2.35-.31-3.32-.93c-.97-.62-1.72-1.51-2.25-2.65-.53-1.14-.8-2.46-.8-3.95v-1.83c0-1.49.27-2.81.8-3.95.53-1.14,1.28-2.03,2.25-2.65.97-.62,2.07-.93,3.32-.93s2.34.31,3.28.93Zm-1.68,6.97c0-1.02-.15-1.82-.45-2.4-.3-.58-.69-.87-1.18-.87s-.88.29-1.18.87c-.3.58-.45,1.38-.45,2.4v1.1c0,1.04.15,1.86.45,2.43.3.58.7.87,1.18.87s.88-.29,1.18-.87c.3-.58.45-1.39.45-2.43v-1.1Zm14.17-7.53v-10.87h5.03v31.3h-5.03v-15.74h-2.27v14.94h-4.87v-30.04h4.87v10.4h2.27Z"/>
        <path class="cls-10" d="m239.65,111.53c3.22,0,6.59-.27,10.1-.8l.57,4.6c-3.78.62-7.62.93-11.54.93h-6.33v-24.47h16.1v4.73h-10.83v15h1.93Zm13.4-10.83v-10.87h5.2v31.3h-5.2v-15.74h-7.8v-4.7h7.8Z"/>
        <path class="cls-10" d="m293.69,100.76h-4.53v5.1h-16.57v-14.87h16.57v5.2h4.53v-6.37h5.2v19.6h-5.2v-8.67Zm7,16.07l-1.93,4.47-12-4.77c-2.31,2.02-5.61,3.67-9.9,4.93l-1.83-4.5c6.93-2.22,10.4-4.9,10.4-8.03v-1.13h5.2v1.13c0,1.31-.27,2.53-.8,3.67l10.87,4.23Zm-23.07-15.54h6.5v-5.73h-6.5v5.73Z"/>
        <path class="cls-10" d="m313.33,103.73c-1.6,2.18-4.01,4.18-7.23,6l-2.7-4.13c2.58-1.53,4.44-3.08,5.6-4.65,1.16-1.57,1.79-3.31,1.9-5.22h-6.23v-4.57h17.87v4.57h-6.4c-.07,1.36-.26,2.56-.57,3.6l8.2,5.53-2.87,4.2-7.57-5.33Zm.87,7v5.7h17.57v4.7h-22.8v-10.4h5.23Zm11.4-20.9h5.2v22.87h-5.2v-22.87Z"/>
        <path class="cls-10" d="m347.23,102.88c-1.65-1.23-2.47-3.01-2.47-5.32v-.37c0-2.33.82-4.11,2.45-5.33,1.63-1.22,3.78-1.83,6.45-1.83s4.75.61,6.38,1.83c1.63,1.22,2.45,3,2.45,5.33v.37c0,2.31-.82,4.08-2.45,5.32-1.63,1.23-3.76,1.85-6.38,1.85s-4.79-.62-6.43-1.85Zm25,18.42h-22.64v-9.43h16.6v-1.53h-16.77v-3.83h21.97v9.13h-16.6v1.7h17.44v3.97Zm-15.94-21.75c.67-.46,1-1.14,1-2.05v-.27c0-.91-.33-1.59-1-2.05-.67-.46-1.54-.68-2.63-.68s-1.98.23-2.67.68c-.69.46-1.03,1.14-1.03,2.05v.27c0,.91.34,1.6,1.02,2.05.68.46,1.57.68,2.68.68s1.97-.23,2.63-.68Zm15.1,5.48h-5.2v-15.2h5.2v15.2Z"/>
        <path class="cls-10" d="m384.53,101.66c-1.53,1.98-3.71,3.8-6.53,5.47l-2.93-4.2c2.64-1.56,4.51-3.17,5.58-4.85,1.08-1.68,1.62-3.47,1.62-5.38v-2.03h5.27v2.03c0,1.62-.21,3.13-.63,4.53l7.67,5.1-2.93,4.17-7.1-4.83Zm10,6.3c1.47,0,2.78.27,3.95.82,1.17.54,2.08,1.33,2.73,2.35.66,1.02.98,2.22.98,3.6s-.33,2.54-.98,3.57c-.66,1.02-1.57,1.81-2.73,2.35-1.17.54-2.48.82-3.95.82h-7.13c-1.47,0-2.78-.27-3.93-.82-1.16-.54-2.07-1.33-2.73-2.35-.67-1.02-1-2.21-1-3.57s.33-2.58,1-3.6c.67-1.02,1.58-1.81,2.73-2.35,1.16-.54,2.47-.82,3.93-.82h7.13Zm-.7,8.87c1.02,0,1.8-.19,2.35-.57s.82-.9.82-1.57-.27-1.19-.82-1.57c-.54-.38-1.33-.57-2.35-.57h-5.73c-1.02,0-1.81.19-2.35.57-.54.38-.82.9-.82,1.57s.27,1.19.82,1.57,1.33.57,2.35.57h5.73Zm7.73-27v5.67h4.2v4.7h-4.2v6.63h-5.2v-17h5.2Z"/>
        <path class="cls-1" d="m446.04,105.79h-29.6v-4.07h29.6v4.07Zm-17.9-5.47c-2.6,0-4.68-.43-6.25-1.3-1.57-.87-2.35-2.2-2.35-4s.78-3.06,2.35-3.92c1.57-.86,3.65-1.28,6.25-1.28h6.2c2.6,0,4.68.43,6.25,1.28,1.57.86,2.35,2.16,2.35,3.92s-.78,3.13-2.35,4c-1.57.87-3.65,1.3-6.25,1.3h-6.2Zm15.47,20.97h-23.9v-8.83h17.87v-1.43h-18.04v-3.63h23.24v8.63h-17.87v1.5h18.7v3.77Zm-10.37-24.74c3,0,4.5-.49,4.5-1.47,0-.51-.38-.88-1.13-1.1-.76-.22-1.88-.33-3.37-.33h-4c-1.49,0-2.61.11-3.37.33-.76.22-1.13.59-1.13,1.1,0,.98,1.5,1.47,4.5,1.47h4Z"/>
        <path class="cls-1" d="m457.28,91.16h16.27v16.47h-16.27v-16.47Zm4.33,19.57h5.2v5.7h17.27v4.7h-22.47v-10.4Zm.7-7.63h6.2v-7.4h-6.2v7.4Zm20.47-13.27v6.97h4.2v4.7h-4.2v11.2h-5.2v-22.87h5.2Z"/>
        <path class="cls-1" d="m496.82,111.53c3.04,0,6.44-.29,10.2-.87l.57,4.6c-4,.67-7.89,1-11.67,1h-6.53v-24.47h5.27v19.74h2.17Zm17.9-10.83h4.2v4.7h-4.2v15.74h-5.2v-31.3h5.2v10.87Z"/>
        <path class="cls-1" d="m538.32,109.43v4.97h12.2v4.73h-29.6v-4.73h12.2v-4.97h-8.93v-18h5.2v4.5h12.67v-4.5h5.2v18h-8.93Zm3.73-8.83h-12.67v4.17h12.67v-4.17Z"/>
        <path class="cls-1" d="m562.86,95.86c0,2.65-.21,5.13-.63,7.47l6.1,10.63-4.2,2.77-3.83-6.63c-.98,2.42-2.27,4.73-3.87,6.93l-3.97-2.93c1.89-2.76,3.26-5.63,4.12-8.62.85-2.99,1.28-6.19,1.28-9.62v-4.4h5v4.4Zm2.37,3.83h3.9v-9.4h4.9v30.04h-4.9v-15.9h-3.9v-4.73Zm10.74,21.44v-31.3h5.03v31.3h-5.03Z"/>
        <path class="cls-1" d="m607.67,110.23v4.17h6.73v4.73h-29.6v-4.73h6.77v-4.17h5.03v4.17h6.03v-4.17h5.03Zm-10.93-1.63c-1.8,0-3.4-.38-4.8-1.15-1.4-.77-2.49-1.82-3.27-3.15s-1.17-2.82-1.17-4.47.39-3.13,1.17-4.45c.78-1.32,1.87-2.37,3.28-3.13,1.41-.77,3.01-1.15,4.78-1.15h5.73c1.78,0,3.37.38,4.78,1.15,1.41.77,2.51,1.82,3.3,3.15.79,1.33,1.18,2.81,1.18,4.43s-.4,3.13-1.18,4.47c-.79,1.33-1.88,2.38-3.28,3.15-1.4.77-3,1.15-4.8,1.15h-5.73Zm1-12.87c-1.53,0-2.76.37-3.67,1.12-.91.74-1.37,1.75-1.37,3.02s.46,2.31,1.37,3.07c.91.76,2.13,1.13,3.67,1.13h3.73c1.53,0,2.76-.38,3.68-1.13.92-.76,1.38-1.78,1.38-3.07s-.46-2.27-1.38-3.02c-.92-.74-2.15-1.12-3.68-1.12h-3.73Z"/>
        <path class="cls-1" d="m618.48,118.85c-.61-.61-.92-1.35-.92-2.22s.3-1.6.92-2.22c.61-.61,1.35-.92,2.22-.92s1.61.31,2.22.92c.61.61.92,1.35.92,2.22s-.31,1.61-.92,2.22c-.61.61-1.35.92-2.22.92s-1.61-.31-2.22-.92Z"/>
      </g>
    </g>
  </g>
</svg>