<?xml version="1.0" encoding="utf-8"?>
<!-- Generator: Adobe Illustrator 27.4.0, SVG Export Plug-In . SVG Version: 6.00 Build 0)  -->
<svg version="1.1" id="레이어_1" xmlns="http://www.w3.org/2000/svg" xmlns:xlink="http://www.w3.org/1999/xlink" x="0px"
	 y="0px" viewBox="0 0 928.5 260" style="enable-background:new 0 0 928.5 260;" xml:space="preserve">
<style type="text/css">
	.st0{fill:#F2CA4E;}
	.st1{fill:#FFFFFF;}
	.st2{fill:#FDF8E0;}
	.st3{fill:#534578;}
	.st4{fill:#B499C7;}
	.st5{fill:none;stroke:#BFBEBE;stroke-width:0.5;stroke-miterlimit:8;}
	
		.st6{clip-path:url(#SVGID_00000168817318490781096290000013247300941271434402_);fill-rule:evenodd;clip-rule:evenodd;fill:#FFFFFF;}
	.st7{clip-path:url(#SVGID_00000168817318490781096290000013247300941271434402_);}
	.st8{clip-path:url(#SVGID_00000057851574964744908380000005701308889224236716_);}
	
		.st9{clip-path:url(#SVGID_00000119082340846846164480000001829584725153379222_);fill-rule:evenodd;clip-rule:evenodd;fill:#B499C7;}
	.st10{clip-path:url(#SVGID_00000119082340846846164480000001829584725153379222_);}
	.st11{clip-path:url(#SVGID_00000116913727508168437620000003490375139496636556_);}
	
		.st12{clip-path:url(#SVGID_00000017490643371614143750000013722341320717302420_);fill-rule:evenodd;clip-rule:evenodd;fill:#FDF8E0;}
	.st13{clip-path:url(#SVGID_00000017490643371614143750000013722341320717302420_);}
	.st14{clip-path:url(#SVGID_00000131358414486139648300000013165195714038961572_);}
	
		.st15{clip-path:url(#SVGID_00000056424502029852477230000009242436415544142256_);fill-rule:evenodd;clip-rule:evenodd;fill:#F2CA4E;}
	.st16{clip-path:url(#SVGID_00000056424502029852477230000009242436415544142256_);}
	.st17{clip-path:url(#SVGID_00000017511822901033746570000013931447847695376008_);}
	
		.st18{clip-path:url(#SVGID_00000011016042078688989840000013364565575575578262_);fill-rule:evenodd;clip-rule:evenodd;fill:#534578;}
	.st19{clip-path:url(#SVGID_00000011016042078688989840000013364565575575578262_);}
	.st20{clip-path:url(#SVGID_00000145031199970496523710000017326588140895191430_);}
	
		.st21{clip-path:url(#SVGID_00000025427308155887993190000006076263064017175454_);fill-rule:evenodd;clip-rule:evenodd;fill:#FFFFFF;}
	.st22{clip-path:url(#SVGID_00000025427308155887993190000006076263064017175454_);}
	.st23{clip-path:url(#SVGID_00000106132344823213448310000004191996987058806179_);}
</style>
<path class="st2" d="M913.37,260.06H15.13c-8.13,0-14.72-6.59-14.72-14.72V14.67C0.41,6.53,7-0.06,15.13-0.06h898.24
	c8.13,0,14.72,6.59,14.72,14.72v230.67C928.09,253.47,921.5,260.06,913.37,260.06z"/>
<g>
	<g>
		<path class="st3" d="M395.74,124.67v6.38h-7.2l-1.39,7.01h6.38v6.38h-7.63l-1.97,9.84h-6.96l1.92-9.84h-6.53l-1.92,9.84h-7.01
			l1.97-9.84h-5.47v-6.38h6.72l1.39-7.01h-5.9v-6.38h7.15l1.97-9.84h6.96l-1.92,9.84h6.53l1.92-9.84h7.01l-1.97,9.84H395.74z
			 M373.66,138.06h6.53l1.34-7.01H375L373.66,138.06z"/>
		<path class="st3" d="M441.75,125.54h5.33v-11.28h6.72v35.71h-18.77v-35.71h6.72V125.54z M441.75,132.21v11.04h5.33v-11.04H441.75z
			 M467.29,127.55V111.9h7.3v45.07h-7.3v-22.66h-3.26v21.5h-7.01v-43.25h7.01v14.98H467.29z"/>
		<path class="st3" d="M492.73,143.15c4.61,0,9.62-0.43,15.02-1.3l0.91,6.62c-5.76,0.99-11.49,1.49-17.18,1.49h-9.5v-35.23h7.58
			v28.42H492.73z M511.64,124.72V111.9h7.49v45.07h-7.49v-25.44h-12.62v-6.82H511.64z"/>
		<path class="st3" d="M544.38,142.34c1.57,3.97,4.34,5.95,8.3,5.95c2.3,0,4.1-0.5,5.4-1.51c1.3-1.01,1.94-2.3,1.94-3.86
			c0-1.66-0.69-3.04-2.06-4.13s-3.38-1.63-6-1.63h-5.28v-6.29h5.28c2.34,0,4.1-0.47,5.3-1.42c1.2-0.94,1.8-2.2,1.8-3.77
			c0-1.54-0.58-2.73-1.75-3.58c-1.17-0.85-2.76-1.27-4.78-1.27c-3.36,0-5.71,1.71-7.06,5.14l-6.62-2.5
			c1.06-2.85,2.72-5.12,4.99-6.82s5.17-2.54,8.69-2.54c2.66,0,5.03,0.43,7.13,1.3c2.1,0.86,3.74,2.13,4.94,3.79
			c1.2,1.66,1.8,3.66,1.8,6c0,2.21-0.52,4.01-1.56,5.4c-1.04,1.39-2.42,2.52-4.15,3.38c1.95,0.77,3.55,1.94,4.8,3.53
			s1.87,3.51,1.87,5.78c0,2.37-0.62,4.43-1.87,6.19c-1.25,1.76-2.98,3.12-5.21,4.08c-2.22,0.96-4.76,1.44-7.61,1.44
			c-3.87,0-7.05-0.92-9.53-2.76c-2.48-1.84-4.28-4.33-5.4-7.46L544.38,142.34z"/>
	</g>
</g>
</svg>
