<?xml version="1.0" encoding="UTF-8"?>
<svg id="_레이어_1" data-name="레이어 1" xmlns="http://www.w3.org/2000/svg" viewBox="0 0 928.5 260">
  <defs>
    <style>
      .cls-1 {
        fill: #fff;
      }

      .cls-2 {
        fill: #ff99ba;
      }

      .cls-3 {
        fill: #d3766a;
      }

      .cls-4 {
        fill: #37474f;
      }

      .cls-5 {
        fill: #f7b103;
      }

      .cls-6 {
        isolation: isolate;
        opacity: .2;
      }

      .cls-7 {
        fill: #fdf8e0;
        opacity: .74;
      }

      .cls-8 {
        fill: #ebebeb;
      }

      .cls-9 {
        fill: #ffc727;
      }

      .cls-10 {
        fill: #263238;
      }
    </style>
  </defs>
  <rect class="cls-7" x=".41" y="-.06" width="927.68" height="260.12" rx="14.72" ry="14.72"/>
  <g>
    <path class="cls-10" d="m503,213.96c131.02-.61,277.98-.62,409,0-131.02.62-277.98.61-409,0h0Z"/>
    <path class="cls-10" d="m570.24,237.32c87.93-.61,186.57-.62,274.51,0-87.93.62-186.57.61-274.51,0h0Z"/>
    <path class="cls-10" d="m510.78,248.84c47.62-.65,101.05-.66,148.68,0-47.62.66-101.05.65-148.68,0h0Z"/>
    <path class="cls-10" d="m827.76,227.28c20.8-.66,43.93-.65,64.74,0-20.82.65-43.94.66-64.74,0h0Z"/>
  </g>
  <g>
    <g id="freepik--Lines--inject-18">
      <g>
        <path class="cls-10" d="m818.1,124.47c14.49-.42,29.07-.42,43.56,0-14.49.42-29.07.42-43.56,0h0Z"/>
        <path class="cls-10" d="m713.61,95.87c10.8-.42,21.69-.42,32.5,0-10.81.42-21.69.42-32.5,0h0Z"/>
        <path class="cls-10" d="m755.55,40.43c8.95-.42,17.97-.42,26.92,0-8.95.42-17.97.42-26.92,0h0Z"/>
        <path class="cls-10" d="m744.41,43.53c7.82-.42,15.7-.42,23.52,0-7.82.42-15.7.42-23.52,0h0Z"/>
        <path class="cls-10" d="m840.31,118.88c7.82-.42,15.7-.42,23.52,0-7.82.42-15.7.42-23.52,0h0Z"/>
        <path class="cls-10" d="m679.16,89.87c21.21-.41,44.78-.4,65.99,0-21.22.4-44.79.41-65.99,0h0Z"/>
      </g>
    </g>
    <g id="freepik--character-1--inject-18">
      <g>
        <g>
          <path class="cls-3" d="m783.45,44.01c-17.07,4.34-32.04,10.98-33.75,16.09-2.29,6.88.25,23.82,2.38,32.5.63,2.55,20.36-2.72,19.69-5.45-.81-3.29-5.24-20.26-5.22-20.6.05-.73,16.92-11.81,20.8-14.73,6.46-4.86,3.68-9.73-3.9-7.8h0Z"/>
          <path class="cls-3" d="m787.34,51.81c-3.87,2.91-20.75,14-20.8,14.72-.01.36,4.42,17.32,5.22,20.6.66,2.73-19.07,8-19.69,5.45-.83-3.4-1.74-8.07-2.38-12.89-1-7.51-1.4-15.42,0-19.61,1.71-5.11,16.68-11.74,33.75-16.09.23-.06.45-.11.67-.16,7.07-1.47,9.49,3.24,3.23,7.95h0Z"/>
          <g>
            <path class="cls-3" d="m755.94,105.45c-2.39-3.65-4.36-13.03-3.96-15.47s16.23-6.32,18.22-4.73c1.99,1.58,9.08,14.5,8.65,18.93-.43,4.43-20.44,5.06-22.92,1.28h0Z"/>
            <g>
              <path class="cls-3" d="m778.14,97.22c-2.08-1-2.07,2.03-2.07,2.03,0,0-1.07-4.36-3.62-4.55-2.46-.19-2.31,3.47-2.3,3.73-.06-.23-1.15-4.21-3.73-4.14-2.68.07-1.9,3.72-1.86,3.95-.12-.2-1.8-2.81-3.75-2.32-3.35.85.76,7.65-.02,10.34,0,0-4.7-.81-4.85-.81,0,0,3.78,6.55,7.46,7.4,1.94.45,2.74-1.27,2.74-1.27,0,0,.99,2.25,3.02,2.26,1.04,0,1.98-1.66,1.98-1.66,0,0,.86,1.77,2.67,1.66,1.45-.07,2.16-1.73,2.16-1.73,0,0,1.61,1.31,3.06.76,2.93-1.12,3.56-13.5-.9-15.65h0Z"/>
              <g>
                <path class="cls-10" d="m776.13,111.87s.05.06.06.02c1.2-4.02,1.29-8.81-.11-12.8-.04-.13-.28-.11-.25.04.65,4.39.88,8.33.3,12.74h0Z"/>
                <path class="cls-10" d="m771.16,112.24s.07.06.09.01c1.22-4.15,1.17-9.55-.98-13.95-.07-.15-.29-.21-.22-.03,1.2,3.04,1.66,10.01,1.12,13.98h0Z"/>
                <path class="cls-10" d="m764.31,97.98c1.9,4.31,2.22,8.79,1.9,13.43,0,.06.08.06.1.01.78-2.23.68-5.22.4-7.53-.26-2.22-.95-4.17-2.25-5.98-.05-.07-.19-.02-.15.07h0Z"/>
              </g>
              <path class="cls-10" d="m776.07,99.25c-.29-.82-.64-1.61-1.07-2.36-.43-.73-.96-1.45-1.67-1.82-.35-.19-.74-.25-1.1-.16-.37.1-.74.27-1.01.54-.56.52-.76,1.38-.72,2.13l.1,1.89-.75-1.74c-.33-.76-.78-1.52-1.34-2.13-.55-.61-1.27-1.07-2.01-1.05-.78,0-1.41.43-1.61,1.18-.22.73-.15,1.62.04,2.4l.52,2.18-1.2-1.89c-.32-.51-.74-1.02-1.19-1.43-.45-.41-.98-.75-1.53-.83-.53-.07-1.12.14-1.39.58-.3.45-.35,1.11-.34,1.74.04,1.28.36,2.56.61,3.85.13.65.26,1.29.37,1.94.09.65.19,1.33,0,1.97.12-.65-.05-1.3-.18-1.94-.15-.64-.33-1.27-.51-1.9-.36-1.27-.71-2.54-.83-3.9-.04-.67-.06-1.4.34-2.09.4-.71,1.26-1.04,2.02-.93.78.1,1.4.52,1.92.97.52.47.96.98,1.35,1.58l-.68.3c-.23-.92-.34-1.86-.07-2.84.14-.48.44-.97.89-1.27.45-.31.96-.43,1.48-.43,1.06,0,1.94.64,2.54,1.33.62.71,1.08,1.5,1.43,2.36l-.65.15c-.02-.96.28-1.94,1.02-2.59.37-.32.82-.51,1.28-.6.48-.1,1,.02,1.4.27.81.5,1.27,1.3,1.66,2.08.38.79.67,1.62.86,2.46h.02Z"/>
            </g>
            <g>
              <path class="cls-3" d="m771.79,87.22s15.42,10.25,8.46,14.31c-2.07,1.21-12,3.7-12.54,1.71-.69-2.56,3.26-4.38,5.92-5.12,0,0-5.73-2.75-5.01-7.31.45-2.86,3.18-3.59,3.18-3.59h0Z"/>
              <path class="cls-10" d="m780.81,101.16c-.73.6-1.61.99-2.48,1.35-.87.36-1.78.63-2.69.87-1.84.45-3.67.85-5.59.99-.48.02-.97.03-1.5-.09-.26-.06-.55-.17-.78-.35-.12-.09-.22-.19-.33-.34-.09-.14-.16-.29-.19-.43-.17-.58-.04-1.15.17-1.64.24-.48.57-.88.94-1.23.74-.69,1.6-1.16,2.48-1.54.88-.4,1.79-.68,2.7-.93l-.04.61c-.66-.34-1.25-.74-1.82-1.18-.56-.45-1.09-.94-1.55-1.5s-.84-1.17-1.12-1.84c-.28-.66-.43-1.37-.44-2.07.11.69.33,1.36.65,1.98s.75,1.16,1.22,1.66c.47.5,1,.95,1.56,1.34.56.39,1.17.75,1.77,1.02l.77.34-.81.27c-.87.29-1.76.58-2.57.98-.82.39-1.63.83-2.25,1.44-.61.58-1.09,1.4-.9,2.09.12.63,1.15.71,2.02.68.91-.02,1.83-.15,2.75-.27s1.84-.26,2.75-.45c1.81-.4,3.66-.8,5.28-1.75h-.01Z"/>
            </g>
          </g>
          <path class="cls-6" d="m787.34,51.81c-3.87,2.91-20.75,14-20.8,14.72-.01.36,4.42,17.32,5.22,20.6,0,.02.01.04.01.06h.01s14.51,9.67,9.01,13.95c1.23,4.46.3,10.91-1.77,11.7-1.45.56-3.06-.75-3.06-.75,0,0-.72,1.66-2.16,1.73-1.54.09-2.39-1.19-2.61-1.56-.02,0-.04-.02-.04-.04v-.02s-.02-.04-.02-.04c0,0-.94,1.67-1.98,1.66-2.03-.02-3.02-2.26-3.02-2.26,0,0-.81,1.72-2.75,1.27-3.57-.83-7.22-7-7.44-7.38,0-.01-.01-.02-.01-.02-1.88-2.86-3.49-9.26-3.91-13.06-.81-3.38-1.69-7.95-2.33-12.68l34.42-35.84c7.07-1.47,9.49,3.24,3.23,7.95h0Z"/>
        </g>
        <g>
          <g>
            <g>
              <g>
                <path class="cls-3" d="m643.4,171.43c-.09-1.68,11.98-45.56,13.5-46.94.57-.53,36.42,10.32,36.42,10.32l-7.1,26.98-22.49-5.82s-11.81,14.33-13.64,15.67c-1.82,1.33-6.61,1.47-6.69-.2h0Z"/>
                <path class="cls-8" d="m643.41,171.43c-.1-1.68,11.97-45.57,13.49-46.94.27-.25,11.52,2.96,18.25,4.91l-7.34,27.63-4.08-1.05s-11.8,14.33-13.64,15.67c-1.82,1.33-6.61,1.47-6.69-.2h0Z"/>
              </g>
              <g>
                <path class="cls-9" d="m643.38,171.62c-.09-1.67,11.74-45.99,13.25-47.37.57-.53,7.22,1.33,14.51,3.97l-7.33,28.14s-11.94,14.13-13.75,15.46c-1.82,1.32-6.58,1.47-6.67-.2h0Z"/>
                <g>
                  <g>
                    <path class="cls-10" d="m645.3,171.48c2.19-7.28,10.35-36.83,11.96-44.19.01-.06-.02-.07-.04-.01-2.33,7.17-10.24,36.78-12.04,44.17-.04.16.07.19.12.03h0Z"/>
                    <path class="cls-10" d="m652.39,169.44c.55-1.72.19-3.64-.58-4.88-.74-1.18-1.93-2.35-3.46-2.71-.04-.01-.07.07-.02.09,2.75,1.2,4.55,4.5,3.98,7.47-.01.06.07.09.09.02h0Z"/>
                    <path class="cls-10" d="m662.43,158.45c.84-2.92.74-6.61-1.15-9.08-.07-.1-.21.01-.19.11.64,3.03.96,5.83.97,8.93,0,.22.32.26.37.05h0Z"/>
                    <path class="cls-10" d="m660.93,160.47c.84-2.92.74-6.61-1.15-9.08-.07-.09-.21.01-.19.11.64,3.03.96,5.83.97,8.93,0,.22.32.26.37.05h0Z"/>
                    <path class="cls-10" d="m659.43,162.49c.84-2.92.74-6.61-1.15-9.08-.07-.1-.21.01-.19.11.64,3.03.96,5.83.97,8.93,0,.22.32.26.37.05h0Z"/>
                    <path class="cls-10" d="m657.92,164.52c.84-2.92.74-6.61-1.15-9.08-.07-.1-.21.01-.19.11.64,3.03.96,5.83.97,8.93,0,.22.32.26.37.05h0Z"/>
                    <path class="cls-10" d="m663.7,131.06c.89-3.29-4.22-4.69-5.12-1.39-.89,3.29,4.22,4.69,5.12,1.39Z"/>
                  </g>
                  <path class="cls-10" d="m669.39,163.78c1.64-1.15.95-3.35-.07-4.62-1.32-1.61-3.21-3.09-5.17-4.05-.27-.15-.56-.27-.83-.39-.12-.04-.25-.1-.36-.15-.01,0-.01,0-.01,0l-.1-.02c-.11-.04-.2-.07-.3-.11-.06-.02-.1.02-.11.07-.14,0-.3.07-.37.22-.04.06-.05.14-.02.24.24.68.47,1.4.7,2.11.03.12.07.24.11.37.56,1.74,1.2,3.47,2.29,4.92.94,1.25,2.68,2.49,4.23,1.41h.01Zm-5.24-5.31c-.22-.58-.43-1.18-.65-1.76-.18-.5-.37-.99-.56-1.48-.02-.07-.06-.14-.08-.2-.02-.06-.05-.13-.07-.19.06.04.11.07.16.11.04.02.04.03.02.01.35.24.68.48,1.03.71.92.63,1.84,1.28,2.69,2.02.58.5,1.18,1.03,1.68,1.61.79.91,2.44,4.46-.83,3.87-1.79-.32-2.85-3.25-3.39-4.69h0Z"/>
                  <path class="cls-10" d="m662.54,155.11s.07.07.12.04c.07-.04.14-.09.19-.14.04,0,.07-.03.09-.05.01,0,.02,0,.01-.02.14-.07.24-.15.35-.24.42-.29.83-.61,1.2-.95,1.52-1.33,2.87-3.02,3.71-4.72.73-1.46.91-3.75-.94-4.51-.07-.03-.14-.04-.2-.06-1.66-.53-3,1.01-3.62,2.38-.64,1.44-.9,3.02-1.07,4.6-.11,1.09-.19,2.2-.3,3.27v.02c-.04.27.24.42.47.37h.01Zm.79-4.24c.21-1.53.6-4.63,2.28-5.34.52-.22.92-.29,1.23-.25,1.55.17.89,2.96.42,3.84-.36.68-.83,1.33-1.28,1.95-.35.48-.72.92-1.11,1.36-.63.73-1.28,1.41-1.92,2.13h-.01s-.08.1-.12.14c.02-.06.02-.11.02-.17.03-.15.06-.29.07-.44.16-1.07.27-2.15.42-3.22h0Z"/>
                </g>
              </g>
            </g>
            <g>
              <path class="cls-4" d="m793.07,88.57s.15,22.43-4.24,27.28c0,0-27.61,51.37-43.22,54.4-13.22,2.57-74.47-11.23-74.47-11.23l7.43-29.04s24.61,2.22,38.2,3.44c8.78.79,18.56,2.94,18.84,2.53,7.35-10.91,17.95-23.15,17.54-24.34-.5-1.45-.32-6.53.38-9.27,1.15-4.47,3.75-13.78,3.75-13.78h35.79Z"/>
              <g>
                <path class="cls-9" d="m763.51,105.65c0-1.94,2.96-12.14,4.42-17.08h-.66c-1.5,5.03-4.4,15.06-4.4,17.08,0,2.42.58,6.08.71,6.83-9.23,12.94-23.15,32.26-24.34,33.38-.56,0-3.95-.5-7.5-1.05-5.75-.89-13.64-2.1-17.37-2.27-4.78-.22-27.57-2.24-38.2-3.18l-.16.63c10.59.95,33.53,2.97,38.33,3.2,3.7.17,11.56,1.38,17.3,2.27,4.81.74,6.92,1.05,7.61,1.05.11,0,.17,0,.22-.02.73-.22,15.8-21.23,24.72-33.73l.07-.11-.02-.14s-.73-4.27-.73-6.86h0Z"/>
                <path class="cls-9" d="m766.32,105.72c0-1.97,2.76-12.35,4.07-17.15h-.68c-1.33,4.91-4.04,15.1-4.04,17.15,0,2.43.63,6.17.75,6.93-9.92,13.93-24.86,34.71-26.1,35.9-.57.01-3.95-.5-7.5-1.05-5.75-.88-13.64-2.09-17.37-2.26-5.06-.24-30.32-2.48-39.95-3.35l-.17.64c9.55.86,34.99,3.11,40.08,3.35,3.7.17,11.56,1.38,17.29,2.26,4.81.74,6.92,1.05,7.61,1.05.11,0,.17,0,.22-.02.73-.22,16.91-22.81,26.49-36.26l.07-.11-.02-.13s-.76-4.37-.76-6.95h0Z"/>
              </g>
              <path class="cls-6" d="m788.83,115.85s-8.26,15.37-18.3,29.79c-3.51-9.69-10.73-29.89-16.16-46.49,1.25-4.67,2.9-10.58,2.9-10.58h35.8s.15,22.43-4.24,27.29h0Z"/>
            </g>
          </g>
          <g>
            <g>
              <g>
                <path class="cls-3" d="m878.23,241.2c-1.32,1.04-44.17,16.39-46.17,15.93-.76-.16-12.49-35.74-12.49-35.74l26.16-9.69,8.16,21.75s18.51,1.42,20.66,2.15c2.13.73,5,4.56,3.68,5.6h0Z"/>
                <path class="cls-8" d="m878.22,241.19c-1.32,1.04-44.17,16.39-46.17,15.94-.37-.08-4.2-11.12-6.47-17.75l26.82-9.87,1.48,3.94s18.51,1.42,20.66,2.15c2.14.73,5,4.57,3.68,5.6h0Z"/>
              </g>
              <g>
                <path class="cls-9" d="m878.4,241.11c-1.31,1.04-44.38,16.83-46.38,16.39-.76-.17-3.06-6.67-5.09-14.15l27.24-10.17s18.43,1.64,20.56,2.37c2.13.73,4.98,4.54,3.67,5.57h0Z"/>
                <g>
                  <g>
                    <path class="cls-10" d="m877.18,239.62c-7.22,2.39-36.08,12.7-43.04,15.61-.06.02-.04.06.02.04,7.2-2.21,35.99-12.76,43.06-15.54.15-.06.11-.17-.04-.12h0Z"/>
                    <path class="cls-10" d="m871.43,234.98c-1.72.54-3.09,1.94-3.65,3.28-.54,1.29-.81,2.93-.23,4.39.02.04.09.01.09-.03-.6-2.95,1.07-6.32,3.83-7.55.06-.02.02-.11-.03-.09h0Z"/>
                    <path class="cls-10" d="m856.67,233.08c-2.88.99-5.83,3.19-6.77,6.17-.04.12.13.17.2.09,2.11-2.26,4.21-4.14,6.75-5.92.18-.12.03-.4-.17-.34Z"/>
                    <path class="cls-10" d="m859.19,233.15c-2.88.99-5.83,3.19-6.77,6.17-.04.12.13.17.2.09,2.11-2.26,4.21-4.14,6.75-5.92.18-.12.03-.4-.17-.34h0Z"/>
                    <path class="cls-10" d="m861.7,233.22c-2.88.99-5.83,3.19-6.77,6.17-.04.12.13.17.2.09,2.11-2.26,4.21-4.14,6.75-5.92.18-.12.03-.4-.17-.34h0Z"/>
                    <path class="cls-10" d="m864.22,233.29c-2.88.99-5.83,3.19-6.77,6.17-.04.12.13.17.2.09,2.11-2.26,4.21-4.14,6.75-5.92.18-.12.03-.4-.17-.34h0Z"/>
                    <path class="cls-10" d="m833.53,247.79c-3.21,1.16-1.41,6.15,1.81,4.99,3.21-1.16,1.41-6.15-1.81-4.99Z"/>
                  </g>
                  <path class="cls-10" d="m857.03,224.33c-1.89-.68-3.29,1.15-3.73,2.71-.56,2-.68,4.4-.34,6.56.04.31.09.61.16.91.04.13.06.26.09.38.01,0,0,.01,0,.01l.04.09c.03.11.06.2.08.3.02.06.08.07.12.04.08.12.24.2.38.17.07,0,.15-.04.2-.12.42-.59.87-1.18,1.33-1.79.09-.09.16-.2.24-.3,1.1-1.46,2.15-2.98,2.71-4.7.48-1.49.5-3.62-1.27-4.27h0Zm-1.33,7.34c-.35.52-.71,1.03-1.07,1.54-.3.43-.6.87-.89,1.31-.04.06-.08.13-.12.19-.03.06-.07.11-.11.17v-.19s0-.05,0-.02c0-.42,0-.83-.01-1.25-.01-1.12,0-2.23.11-3.36.07-.76.17-1.55.35-2.3.29-1.17,2.24-4.57,3.64-1.55.77,1.66-1.02,4.21-1.89,5.47h-.01Z"/>
                  <path class="cls-10" d="m853.88,234.91s.02-.09-.04-.13c-.08-.04-.16-.06-.22-.08-.03-.03-.07-.04-.09-.04-.01,0-.02-.01-.02,0-.14-.07-.25-.11-.39-.15-.48-.18-.97-.32-1.47-.43-1.96-.48-4.12-.61-5.99-.32-1.61.24-3.59,1.41-3.15,3.36.01.07.04.14.06.2.52,1.66,2.55,1.88,4.03,1.59,1.54-.3,2.99-1,4.38-1.77.96-.53,1.91-1.11,2.85-1.63h.02c.24-.14.2-.45.03-.6h.01Zm-3.92,1.79c-1.37.71-4.13,2.17-5.68,1.2-.48-.3-.76-.58-.91-.87-.75-1.37,1.91-2.43,2.91-2.55.76-.1,1.56-.09,2.33-.07.59.01,1.17.06,1.76.12.96.09,1.89.24,2.85.35h.01c.06.02.12.01.18.02-.06.02-.1.05-.16.08-.14.06-.27.12-.4.19-.97.48-1.91,1.01-2.88,1.51h0Z"/>
                </g>
              </g>
            </g>
            <g>
              <path class="cls-4" d="m853.29,227.04l-29.84,10.05s-19.16-41.89-23.39-64.72c-1.25-6.74-25.36-43-34.92-53.42-4.34-4.73-6.56-9.52-7.45-14.12-.81-4.18-.42-16.3-.42-16.3l40.22.02.17,12.55c1.37,2.21,20.75,30.75,31.8,56.89,3.51,8.31,23.82,69.04,23.82,69.04h0Z"/>
              <path class="cls-4" d="m790.43,95.16c2.68,1.66,5.09,3.64,7.23,5.96-2.68-1.65-5.09-3.64-7.23-5.96h0Z"/>
              <g>
                <path class="cls-9" d="m834.8,233.26l-.61.21c-3.86-8.9-15.5-36-18.18-45.43-.78-2.71-1.74-6.59-2.68-10.33-1.46-5.88-2.98-11.94-3.65-13.12-.81-1.4-6.97-11.06-13.5-21.29-9.72-15.22-16.09-25.23-16.28-25.74-.08-.22-.97-1.39-1.9-2.62-2.8-3.68-7.47-9.83-7.91-12.74-.75-5.02-.77-10.8-.72-13.66h.65c-.04,2.84-.03,8.58.71,13.56.41,2.75,5.21,9.06,7.78,12.45,1.27,1.67,1.89,2.49,2,2.79.28.64,8.74,13.9,16.21,25.61,6.53,10.24,12.71,19.9,13.52,21.31.72,1.25,2.18,7.09,3.72,13.28.93,3.74,1.9,7.61,2.67,10.31,2.69,9.41,14.34,36.55,18.18,45.4h0Z"/>
                <path class="cls-9" d="m831.99,234.21l-.61.2c-3.8-8.77-15.54-36.08-18.25-45.56-.78-2.71-1.74-6.59-2.68-10.34-1.46-5.87-2.98-11.93-3.65-13.1-.81-1.4-6.97-11.06-13.5-21.29-9.72-15.22-16.09-25.23-16.28-25.74-.08-.22-.96-1.38-1.9-2.62-2.8-3.68-7.47-9.83-7.91-12.75-.83-5.55-.76-12.04-.71-14.47h.65c-.06,2.39-.13,8.86.69,14.37.41,2.75,5.21,9.06,7.78,12.45,1.27,1.68,1.89,2.49,2,2.79.27.64,8.74,13.9,16.21,25.61,6.53,10.24,12.71,19.91,13.52,21.31.72,1.25,2.17,7.09,3.72,13.27.93,3.75,1.9,7.62,2.67,10.32,2.7,9.46,14.46,36.82,18.24,45.52h0Z"/>
              </g>
            </g>
          </g>
        </g>
        <g>
          <path class="cls-9" d="m751.89,96.34c.09.15,45.56,3.25,46.1,2.85.75-.57,1.41-40.4-4.28-52.37-1.42-3-7.64-5.83-13.07-1.19-15.75,13.48-29.05,50.18-28.75,50.71Z"/>
          <g>
            <g>
              <path class="cls-3" d="m791.03,52.87c-2.31.29-6.71-2.89-7.95-6.28-.09-.24.58-2.45,1.27-5.19.41-1.66.83-3.52,1.09-5.24.05-.35,10.42,4.24,10.42,4.24,0,0-1.6,3.46-2.03,6.46-.03.25-.04.49-.03.72v.12c.02,1.38-.28,4.86-2.75,5.17h0Z"/>
              <path class="cls-10" d="m795.84,40.41s-1.6,3.46-2.03,6.46c-.02.14-.02.28-.03.42-5.01-.3-7.61-4.66-8.9-8.23.21-.97.4-1.95.55-2.89.06-.36,10.42,4.24,10.42,4.24h0Z"/>
            </g>
            <g>
              <path class="cls-3" d="m784.55,21.46c-1.77,3.7-1.43,15.23.95,18.15,3.45,4.24,9.95,5.58,13.77,1.23,3.7-4.21,2.98-19.23.24-21.97-4.03-4.04-12.33-2.88-14.96,2.58h0Z"/>
              <g>
                <g>
                  <path class="cls-10" d="m794.15,30.12s-.06.04-.06.07c.08.78.04,1.68-.65,1.98-.02.01-.02.05.01.04.85-.18.89-1.37.69-2.09h0Z"/>
                  <path class="cls-10" d="m793.4,29.35c-1.25,0-1.18,2.5-.02,2.51,1.14,0,1.07-2.5.02-2.51Z"/>
                </g>
                <g>
                  <path class="cls-10" d="m798.73,29.82s.06.04.06.07c0,.78.12,1.67.84,1.9.02,0,.02.04,0,.04-.86-.09-1.02-1.28-.89-2.02h0Z"/>
                  <path class="cls-10" d="m799.4,28.99c1.25-.13,1.41,2.37.26,2.49-1.14.12-1.31-2.38-.26-2.49Z"/>
                </g>
                <path class="cls-10" d="m792.64,28.14c.35-.06.66-.16,1-.25.38-.1.69-.14.97-.45.15-.17.12-.49-.02-.65-.34-.37-.84-.36-1.31-.25-.5.11-.86.33-1.18.73-.31.39.09.95.55.87Z"/>
                <path class="cls-10" d="m800.25,27.57c-.35-.04-.66-.15-1.01-.23-.38-.09-.7-.12-.98-.43-.15-.16-.13-.48.01-.65.34-.37.83-.38,1.3-.29.51.1.87.3,1.2.7.32.38-.07.95-.53.89h0Z"/>
                <path class="cls-10" d="m793.64,37.34c.19.17.38.42.66.43.27.01.58-.12.83-.22.02-.01.05.01.04.04-.19.3-.61.5-.97.45-.35-.05-.53-.35-.63-.67-.01-.04.04-.06.07-.04Z"/>
                <path class="cls-10" d="m794.39,34.99c.45.66,1.1,1.01,1.8,1.12.31.06.63.06.95.02.06,0,.12-.01.18-.02.06,0,.11-.02.17-.03.09-.02.14-.09.15-.18h0s0-.06-.01-.09h0v-.07c0-.6-.09-1.51-.09-1.51.22.11,1.35.57,1.32.26-.23-2.58-.49-5.45-1.26-7.97-.02-.09-.15-.06-.14.02.12,2.49.68,4.94.85,7.44-.36-.12-.95-.36-1.26-.34-.09.02.19,1.75.17,2.02v.03c-1,.16-1.77-.12-2.76-.77-.06-.04-.12.01-.07.07h0Z"/>
                <g>
                  <path class="cls-10" d="m796.78,35.84s-.51.73-1.23,1.01c-.27.11-.55.15-.86.08-.63-.14-.66-.71-.56-1.2.08-.4.25-.75.25-.75,0,0,.93.82,2.38.87h0Z"/>
                  <path class="cls-2" d="m795.55,36.85c-.27.11-.55.15-.86.08-.63-.14-.66-.71-.56-1.2.66.05,1.34.48,1.41,1.12Z"/>
                </g>
              </g>
              <path class="cls-10" d="m783.59,32.17c1.66.55,3.1-1.38,3.57-2.41.48-1.03.01-6.91.91-8.44s2.69-2.32,4.06-1.84,3.06,2.39,4.09,2.35,1.38-2.25,2.1-2.21c1.57.07,3.03,4.03,3.23,5.76,0,0,.41-7.36-7.07-8.4-7.29-1.02-9.9,3.9-10.65,6.07-1.43,4.17-.25,9.13-.25,9.13h0Z"/>
              <g>
                <path class="cls-9" d="m799.81,18.87c-1.16-.04-7.28,1.43-9.8,3.19s-6.61,6.76-6.82,7.03c-.21.26-3.58-9.63,4.27-13.19,8.55-3.88,12.35,2.97,12.35,2.97h0Z"/>
                <g>
                  <path class="cls-9" d="m783.58,28.57s3.95-8.31,6.64-10.58c2.69-2.26,9.26-4.6,13.84-3.62,3.56.76-3.54,6.61-3.54,6.61,0,0-.47-1.12-1.6-1.32-2.21-.38-5.95,1.04-8,2.24-2.58,1.51-7.33,6.66-7.33,6.66h0Z"/>
                  <path class="cls-6" d="m783.58,28.57s3.95-8.31,6.64-10.58c2.69-2.26,9.26-4.6,13.84-3.62,3.56.76-3.54,6.61-3.54,6.61,0,0-.47-1.12-1.6-1.32-2.21-.38-5.95,1.04-8,2.24-2.58,1.51-7.33,6.66-7.33,6.66h0Z"/>
                </g>
              </g>
              <g>
                <path class="cls-3" d="m785.56,30.97s-2.07-3.97-3.83-3.28-.55,6.22,1.29,7.19,2.78-.71,2.78-.71c0,0-.24-3.2-.24-3.2Z"/>
                <path class="cls-10" d="m782.11,29.26s-.04.04-.02.05c1.28.73,1.84,2.08,2.17,3.46-.34-.56-.85-.91-1.59-.51-.04.02-.01.08.02.07.57-.04.96.11,1.28.6.22.35.35.78.5,1.17.05.13.27.09.25-.05,0-.01,0-.02,0-.03.26-1.72-.76-4.33-2.6-4.75h0Z"/>
              </g>
            </g>
          </g>
          <g>
            <path class="cls-3" d="m782.17,47.44c2.51,1.06,3.24,5.01,2.24,9.59-1.19,5.45-7.83,11.32-10.96,9.88-4.28-1.97-.64-10.22,1.58-14.28,2.13-3.88,5.37-5.95,7.13-5.21h0Z"/>
            <g>
              <path class="cls-3" d="m778.18,54.45c2.1,16.8,7.59,32.55,12.34,34.25,6.82,2.45,20.65,2.36,29.46.87,2.59-.44-1.23-20.5-4-20.04-3.34.56-17.47,2.88-17.81,2.84-.72-.1-10.18-16.42-12.41-20.62-4.09-7.7-8.46-4.25-7.59,2.7h0Z"/>
              <g>
                <path class="cls-3" d="m841.85,66.86c1.05,1.9-.5,3.53-.5,3.53,0,0,1.54.8,2.07,2.38.6,1.81-1.97,3.55-1.97,3.55,0,0,1.4,1.13,1.78,2.86.4,1.79-1.95,3.92-1.95,3.92,0,0,.72,1.77-.02,3.5-1.26,2.97-6.11,3.73-9.19,4.26s-12.31-.89-14.1-.98l-3.51-19.75s13.15-6.27,16.87-6.37c3.13-.08,9.34.97,10.53,3.1h0Z"/>
                <g>
                  <path class="cls-10" d="m841.16,70.11c-3.34-.71-6.72-.39-10.1-.27-.07,0-.07.12,0,.12,3.36-.16,6.72.34,10.08.31.09,0,.11-.14.01-.16h0Z"/>
                  <path class="cls-10" d="m841.34,76.08c-.76-.14-1.56-.02-2.33.04-.83.07-1.64.16-2.46.25-1.64.2-3.28.43-4.91.72-.07.01-.07.12,0,.12,1.64-.19,3.28-.37,4.92-.49.83-.06,1.64-.12,2.47-.17.76-.05,1.58-.03,2.32-.25.11-.03.11-.2-.01-.22h0Z"/>
                  <path class="cls-10" d="m841.21,83.11c-.66-.15-1.44.06-2.1.15-.74.11-1.5.2-2.24.3-1.5.19-2.99.39-4.49.53-.07,0-.07.12,0,.12,1.53-.14,3.05-.25,4.58-.4.75-.07,1.5-.16,2.25-.24.63-.07,1.44-.09,2.01-.39.03-.02.02-.07-.01-.07h0Z"/>
                </g>
              </g>
            </g>
            <path class="cls-10" d="m778.54,59.46c.1.23.2.47.3.7-.21-1.19-.38-2.38-.49-3.59,0-.02.04-.03.04,0,.33,1.33.64,2.67.89,4.02.12.64.48,3,.56,3.78.01.09-.16.18-.17.1-.14-.68-.6-2.99-.71-3.59-.09-.17-.17-.33-.25-.5-.12-.29-.23-.56-.33-.86-.19-.58-.37-1.17-.54-1.75,0,0,.01-.01.01,0,.2.57.43,1.13.68,1.69h0Z"/>
          </g>
        </g>
      </g>
    </g>
  </g>
  <g>
    <g>
      <path class="cls-5" d="m56.16,188.72c1.12,0,2.34-.05,3.66-.16s2.61-.26,3.86-.46l.24,1.91c-1.23.2-2.55.36-3.96.48-1.41.12-2.79.18-4.14.18h-3.44v-15.24h9.8v1.98h-7.63v11.3h1.61Zm9.89-7.24v-7.5h2.13v19.94h-2.13v-10.49h-5.78v-1.96h5.78Z"/>
      <path class="cls-5" d="m77.09,174.93h9.69v8.64h-9.69v-8.64Zm4.13,17.11c.49,0,1.08-.02,1.78-.07s1.31-.12,1.83-.21l.17,1.89c-1.26.19-2.87.28-4.81.28h-1.4v-7.91h2.08v6.02h.34Zm-2.04-10.36h5.52v-4.84h-5.52v4.84Zm9.22,3.18h2.15v1.68h3.31v1.76h-8.77v-1.76h3.31v-1.68Zm2.04,4.26c.92,0,1.65.24,2.2.72.55.48.83,1.11.83,1.88s-.28,1.36-.83,1.83-1.29.71-2.2.71h-1.96c-.9,0-1.63-.24-2.18-.71s-.83-1.08-.83-1.83.28-1.4.83-1.88c.55-.48,1.28-.72,2.18-.72h1.96Zm-.3,3.46c.44,0,.78-.08,1.01-.25.23-.16.34-.38.34-.66s-.12-.49-.34-.65c-.23-.17-.57-.25-1.01-.25h-1.35c-.44,0-.78.08-1.01.25-.23.16-.34.38-.34.65s.11.49.34.66c.23.16.57.25,1.01.25h1.35Zm2.56-18.59v3.95h3.09v1.96h-3.09v4.25h-2.15v-10.16h2.15Z"/>
      <path class="cls-5" d="m115.84,186.43h-18.74v-1.96h18.74v1.96Zm-10.9-4c-1.72,0-3.09-.37-4.12-1.1s-1.54-1.74-1.54-3.03.51-2.29,1.54-3.02c1.02-.72,2.4-1.08,4.12-1.08h3.07c1.72,0,3.09.36,4.1,1.08,1.02.72,1.53,1.73,1.53,3.02s-.51,2.3-1.53,3.03c-1.02.73-2.39,1.1-4.1,1.1h-3.07Zm8.92,11.5h-14.27v-5.78h2.15v3.78h12.12v2Zm-6.21-13.37c1.22,0,2.17-.2,2.85-.6.68-.4,1.02-.95,1.02-1.63s-.34-1.27-1.01-1.66c-.67-.39-1.63-.59-2.86-.59h-2.34c-1.23,0-2.19.2-2.86.59-.67.39-1.01.95-1.01,1.66s.34,1.23,1.02,1.63c.68.4,1.63.6,2.85.6h2.34Z"/>
      <path class="cls-5" d="m126.13,185.05c-.81-.4-1.45-1-1.91-1.8-.47-.8-.7-1.78-.7-2.94v-.41c0-1.18.23-2.17.7-2.98.46-.81,1.1-1.41,1.91-1.81.81-.39,1.72-.59,2.74-.59s1.91.2,2.72.59c.81.39,1.45,1,1.91,1.81.46.81.7,1.8.7,2.98v.41c0,1.16-.23,2.14-.7,2.94-.47.8-1.1,1.4-1.91,1.8-.81.4-1.72.6-2.72.6s-1.93-.2-2.74-.6Zm5.03-2.19c.59-.6.89-1.47.89-2.6v-.34c0-1.13-.3-2-.89-2.6-.59-.6-1.36-.9-2.29-.9s-1.72.3-2.31.9-.89,1.47-.89,2.6v.34c0,1.13.3,2,.89,2.6s1.37.9,2.31.9,1.69-.3,2.29-.9Zm9.53,11.07h-14.03v-6.47h2.15v4.51h11.88v1.96Zm-.84-5.01h-2.15v-14.94h2.15v14.94Z"/>
      <path class="cls-5" d="m153.99,182.81c-.4.93-1.02,1.64-1.87,2.12s-1.82.72-2.92.72c-1,0-1.91-.2-2.71-.6-.8-.4-1.44-1-1.9-1.8-.47-.8-.7-1.78-.7-2.94v-.41c0-1.18.23-2.17.7-2.98.46-.81,1.1-1.41,1.9-1.81.8-.39,1.71-.59,2.71-.59s1.87.19,2.65.57c.78.38,1.39.95,1.84,1.71h4.38v-2.81h2.15v14.94h-2.15v-6.1h-4.08Zm-7.95-2.56c0,1.13.29,2,.88,2.6.59.6,1.35.9,2.28.9s1.67-.3,2.25-.9.87-1.47.87-2.6v-.34c0-1.13-.29-2-.87-2.6s-1.33-.9-2.25-.9-1.69.3-2.28.9c-.59.6-.88,1.47-.88,2.6v.34Zm3.14,7.2v4.51h11.88v1.96h-14.03v-6.47h2.15Zm8.9-8.92h-3.74c.09.4.13.85.13,1.36v.41c0,.17-.01.43-.04.77h3.65v-2.54Z"/>
      <path class="cls-5" d="m182.23,183.78h-18.74v-1.74h18.74v1.74Zm-10.96-3.18c-1.75,0-3.12-.27-4.11-.81-.99-.54-1.48-1.37-1.48-2.48s.49-1.92,1.48-2.44c.99-.52,2.36-.78,4.11-.78h3.2c1.75,0,3.11.26,4.09.78.98.52,1.47,1.34,1.47,2.44s-.49,1.95-1.47,2.48-2.35.81-4.09.81h-3.2Zm9.2,13.43h-14.68v-5.2h12.01v-1.7h-12.12v-1.7h14.27v5.09h-12.01v1.74h12.53v1.76Zm-6.4-15.13c2.56,0,3.85-.52,3.85-1.57s-1.28-1.53-3.85-1.53h-2.39c-2.57,0-3.85.51-3.85,1.53s1.28,1.57,3.85,1.57h2.39Z"/>
      <path class="cls-5" d="m189.49,175.04h9.69v10.08h-9.69v-10.08Zm2.08,8.19h5.52v-6.3h-5.52v6.3Zm.75,4.45h2.13v4.3h11.67v1.96h-13.8v-6.25Zm12.77-13.69v5.01h3.09v1.94h-3.09v7.99h-2.15v-14.94h2.15Z"/>
      <path class="cls-5" d="m228.24,183.78h-18.74v-1.74h18.74v1.74Zm-1.76,10.25h-14.68v-5.2h12.01v-1.68h-12.12v-1.72h14.27v5.09h-12.01v1.76h12.53v1.74Zm-14.49-19.73h13.54v1.72h-11.39v2.75h11.6v1.72h-13.75v-6.19Z"/>
      <path class="cls-5" d="m238.86,182.47v7.99h9.76v1.98h-18.74v-1.98h6.86v-7.99h2.13Zm5.44-4.99h-12.44v-1.96h14.57v1.74c0,1.42-.09,3.01-.28,4.77s-.44,3.51-.75,5.24l-2.11-.34c.3-1.62.54-3.27.73-4.96.19-1.69.28-3.06.28-4.11v-.39Z"/>
      <path class="cls-5" d="m265.96,178.75c-1.07,2.71-3.97,4.8-8.68,6.28l-.82-1.91c2.36-.72,4.23-1.61,5.59-2.69s2.1-2.22,2.21-3.44h-7.35v-1.96h9.52v1.12c0,.2-.01.49-.04.86h4.08v-3.03h2.13v10.87h-2.13v-2.26h-4.54v-1.74h4.54v-2.11h-4.51Zm2.15,7.16c.95,0,1.78.17,2.5.53s1.28.84,1.68,1.46c.39.62.59,1.33.59,2.12s-.2,1.52-.59,2.14c-.39.62-.95,1.11-1.68,1.46s-1.56.53-2.5.53h-4.36c-.95,0-1.78-.18-2.49-.53-.72-.35-1.27-.84-1.67-1.46-.39-.62-.59-1.34-.59-2.14s.2-1.49.59-2.12c.39-.62.95-1.11,1.67-1.46.72-.35,1.55-.53,2.49-.53h4.36Zm-.34,6.29c.96,0,1.69-.2,2.2-.6.51-.4.76-.93.76-1.59s-.25-1.19-.76-1.59c-.51-.4-1.24-.6-2.2-.6h-3.65c-.96,0-1.69.2-2.2.6s-.76.93-.76,1.59.25,1.19.76,1.59c.51.4,1.24.6,2.2.6h3.65Z"/>
      <path class="cls-5" d="m283.34,175.74h4.75v1.74h-11.65v-1.74h4.73v-2h2.17v2Zm3.87,6.3c0,1.04-.46,1.86-1.39,2.43-.92.57-2.1.86-3.54.86s-2.63-.29-3.56-.86c-.92-.57-1.39-1.38-1.39-2.43v-.28c0-1.05.46-1.86,1.39-2.43.92-.57,2.11-.86,3.56-.86s2.61.29,3.54.86c.92.57,1.39,1.38,1.39,2.43v.28Zm-7.78-.04c0,.49.27.87.81,1.16.54.29,1.22.43,2.05.43s1.49-.14,2.03-.43.81-.67.81-1.16v-.17c0-.49-.27-.88-.81-1.17-.54-.29-1.21-.44-2.03-.44s-1.5.15-2.04.44c-.54.29-.82.69-.82,1.17v.17Zm13.54,11.93h-13.2v-7.24h13.2v7.24Zm-2.15-5.42h-8.92v3.54h8.92v-3.54Zm0-9.07v-5.46h2.15v11.45h-2.15v-4.15h-2.86v-1.85h2.86Z"/>
      <path class="cls-5" d="m315,183.78h-18.74v-1.74h18.74v1.74Zm-10.96-3.18c-1.75,0-3.12-.27-4.11-.81-.99-.54-1.48-1.37-1.48-2.48s.49-1.92,1.48-2.44c.99-.52,2.36-.78,4.11-.78h3.2c1.75,0,3.11.26,4.09.78.98.52,1.47,1.34,1.47,2.44s-.49,1.95-1.47,2.48-2.35.81-4.09.81h-3.2Zm9.2,13.43h-14.68v-5.2h12.01v-1.7h-12.12v-1.7h14.27v5.09h-12.01v1.74h12.53v1.76Zm-6.4-15.13c2.56,0,3.85-.52,3.85-1.57s-1.28-1.53-3.85-1.53h-2.39c-2.57,0-3.85.51-3.85,1.53s1.28,1.57,3.85,1.57h2.39Z"/>
      <path class="cls-5" d="m326.15,188.72c2.32,0,4.83-.21,7.52-.62l.26,1.89c-2.71.46-5.42.69-8.15.69h-3.42v-15.24h2.17v13.28h1.61Zm11.71-7.24h3.09v1.96h-3.09v10.49h-2.15v-19.94h2.15v7.5Z"/>
      <path class="cls-5" d="m355.77,187.13c-1.85.26-3.88.44-6.08.56-.17,2.25-.39,4.38-.65,6.38l-2.11-.24c.31-2.69.52-4.71.62-6.06-.39.01-.95.02-1.68.02h-3.31l-.11-1.96h3.61c1.26,0,2.77-.06,4.54-.17,1.76-.11,3.4-.26,4.92-.45l.24,1.91Zm-9.86-5.35h7.95v1.83h-10.1v-8.36h2.15v6.53Zm11.3,7.82v-15.62h2.15v19.94h-2.15v-2.37h-5.57v-1.96h5.57Z"/>
      <path class="cls-5" d="m373.09,186.21v4.25h8.3v1.98h-18.74v-1.98h8.32v-4.25h-6.02v-11h2.15v3.65h9.86v-3.65h2.15v11h-6.02Zm3.87-5.42h-9.86v3.48h9.86v-3.48Z"/>
      <path class="cls-5" d="m388.8,177.79c0,1.71-.16,3.3-.47,4.79l4.45,7.2-1.72,1.22-3.48-5.67c-.75,2.09-1.81,4.05-3.2,5.89l-1.63-1.29c1.36-1.82,2.37-3.72,3.03-5.7.66-1.98.99-4.12.99-6.45v-2.64h2.04v2.64Zm2.02,3.07h3.18v-6.58h2.04v19.23h-2.04v-10.7h-3.18v-1.96Zm7.5,13.07v-19.94h2.08v19.94h-2.08Z"/>
      <path class="cls-5" d="m417.36,186.83v3.63h4.77v1.96h-18.74v-1.96h4.79v-3.63h2.11v3.63h4.99v-3.63h2.08Zm-6.15-1.14c-1.17,0-2.21-.23-3.09-.7-.89-.46-1.58-1.11-2.06-1.92s-.73-1.73-.73-2.75.24-1.91.73-2.71c.49-.8,1.17-1.44,2.06-1.9.89-.46,1.92-.7,3.09-.7h3.12c1.17,0,2.21.23,3.09.7.89.47,1.58,1.1,2.06,1.9.49.8.73,1.71.73,2.71s-.24,1.93-.73,2.75-1.17,1.46-2.06,1.92c-.89.46-1.92.7-3.09.7h-3.12Zm.37-8.77c-1.28,0-2.28.32-3.01.95-.73.63-1.1,1.46-1.1,2.47s.37,1.86,1.1,2.49,1.73.95,3.01.95h2.36c1.27,0,2.28-.31,3.03-.95s1.12-1.46,1.12-2.49-.37-1.84-1.12-2.47c-.75-.63-1.75-.95-3.03-.95h-2.36Z"/>
      <path class="cls-5" d="m424.67,192.66c-.29-.29-.43-.63-.43-1.03s.15-.75.44-1.04c.29-.29.64-.44,1.04-.44s.75.14,1.03.43c.29.29.43.64.43,1.05s-.14.76-.42,1.04-.63.42-1.04.42-.77-.14-1.05-.43Z"/>
    </g>
    <rect class="cls-5" x="45" y="110.98" width="221.7" height="48.08" rx="9.3" ry="9.3"/>
    <g>
      <path class="cls-5" d="m67.22,75.97h-2.79v7.13h-14.48v-17.88h14.48v5.83h2.79v-6.95h5.1v23.42h-5.1v-11.55Zm-12.34,2.21h4.6v-8.04h-4.6v8.04Zm6.12,8.29v6.19h19.8v5.1h-25.45v-11.29h5.65Zm13.46-22.69h5.28v24.83h-5.28v-24.83Z"/>
      <path class="cls-5" d="m102.37,85.92v4.53h13.25v5.14h-32.14v-5.14h13.25v-4.53h-9.7v-20.23h25.05v5.03h-19.4v2.57h19.4v4.92h-19.4v2.79h20.12v4.92h-10.42Z"/>
      <path class="cls-5" d="m118.91,71.23v-5.14h16.79v3.69c0,4.85-1.23,9.32-3.67,13.41-2.45,4.09-6.05,7.74-10.8,10.95l-3.51-4.45c4.1-2.63,7.16-5.59,9.17-8.87,2.01-3.28,3.06-6.48,3.13-9.59h-11.11Zm26.82,4.34h4.56v5.1h-4.56v17.08h-5.65v-33.99h5.65v11.8Z"/>
      <path class="cls-5" d="m185.36,75.64h-8.33c-2.63,2.56-6.96,4.49-12.99,5.79l-1.81-5.07c3.55-.72,6.36-1.63,8.43-2.73,2.08-1.1,3.39-2.31,3.95-3.64h-11.29v-4.96h17.16v2.06c0,1.35-.16,2.54-.47,3.58h5.36v-6.91h5.65v16.51h-5.65v-4.63Zm-12.38,16.14v1.85h18.93v4.31h-24.58v-10.24h18.03v-1.67h-18.21v-4.16h23.85v9.92h-18.03Z"/>
      <path class="cls-5" d="m219.68,63.77h5.65v33.99h-5.65v-16.72h-4.2v.87c0,3.98-.88,6.91-2.64,8.8-1.76,1.88-4.05,2.82-6.88,2.82s-5.15-.94-6.91-2.82c-1.76-1.88-2.64-4.81-2.64-8.8v-5.25c0-3.98.88-6.91,2.64-8.79s4.07-2.82,6.91-2.82,4.96.88,6.71,2.64c1.75,1.76,2.68,4.5,2.8,8.22h4.2v-12.12Zm-9.85,12.88c0-2.34-.36-4.01-1.07-5.01-.71-1-1.65-1.5-2.81-1.5s-2.1.5-2.82,1.5c-.72,1-1.08,2.67-1.08,5.01v5.25c0,2.34.36,4.01,1.08,5.01.72,1,1.67,1.5,2.82,1.5s2.09-.5,2.81-1.5c.71-1,1.07-2.67,1.07-5.01v-5.25Z"/>
      <path class="cls-5" d="m247.69,67.93c0,4.13-1.32,7.58-3.95,10.35-2.63,2.78-6.49,5.06-11.58,6.84l-2.42-4.92c3.69-1.25,6.55-2.73,8.58-4.43s3.22-3.46,3.58-5.27h-11v-5.1h16.79v2.53Zm-12.96,18.53h5.65v6.19h18.75v5.1h-24.4v-11.29Zm22.98-22.69v7.56h4.56v5.1h-4.56v12.16h-5.65v-24.83h5.65Z"/>
      <path class="cls-5" d="m292.46,67.1c0,3.88-1.39,6.96-4.16,9.21-2.78,2.26-6.87,3.96-12.27,5.12l-1.81-5.07c3.55-.72,6.36-1.63,8.43-2.73,2.08-1.1,3.39-2.31,3.95-3.64h-11.29v-4.96h17.16v2.06Zm-7.49,24.69v1.85h18.93v4.31h-24.58v-10.24h18.03v-1.67h-18.21v-4.16h23.85v9.92h-18.03Zm12.38-28.02h5.65v16.51h-5.65v-16.51Z"/>
      <path class="cls-5" d="m339.59,81.11h-32.14v-4.42h32.14v4.42Zm-19.44-5.94c-2.82,0-5.08-.47-6.79-1.41s-2.55-2.39-2.55-4.34.85-3.32,2.55-4.25c1.7-.93,3.96-1.39,6.79-1.39h6.73c2.82,0,5.09.46,6.79,1.39,1.7.93,2.55,2.35,2.55,4.25s-.85,3.4-2.55,4.34-3.96,1.41-6.79,1.41h-6.73Zm16.79,22.77h-25.95v-9.59h19.4v-1.56h-19.58v-3.95h25.23v9.38h-19.4v1.63h20.31v4.09Zm-11.26-26.86c3.26,0,4.89-.53,4.89-1.59,0-.55-.41-.95-1.23-1.2-.82-.24-2.04-.36-3.66-.36h-4.34c-1.62,0-2.83.12-3.66.36-.82.24-1.23.64-1.23,1.2,0,1.06,1.63,1.59,4.89,1.59h4.34Z"/>
      <path class="cls-1" d="m62.77,124.69c0,2.65-.29,5.2-.87,7.64l9.05,11.29-4.38,3.66-6.91-8.69c-1.64,3.26-3.82,6.26-6.55,9.01l-4.13-3.8c2.9-3.02,4.97-6.03,6.23-9.05,1.25-3.02,1.88-6.37,1.88-10.06v-4.85h5.68v4.85Zm10.61,27.36v-33.99h5.65v33.99h-5.65Z"/>
      <path class="cls-1" d="m92.99,131.96c-1.71,2.08-4.28,3.93-7.71,5.57l-2.75-4.6c2.58-1.3,4.47-2.65,5.67-4.05,1.19-1.4,1.89-2.93,2.08-4.6h-6.37v-4.96h18.71v4.96h-6.7c-.07,1.13-.23,2.14-.47,3.01l8.43,4.85-2.9,4.71-8-4.89Zm12.78,11.8h-17.7v-5.1h23.35v13.75h-5.65v-8.65Zm5.65-19.22h4.52v5.14h-4.52v7.38h-5.65v-19h5.65v6.48Z"/>
      <path class="cls-1" d="m124.88,118.1h5.72v4.24h7.2v5.03h-20.12v-5.03h7.2v-4.24Zm7.31,12.4c1.33.69,2.37,1.65,3.13,2.88.76,1.23,1.14,2.65,1.14,4.27v1.99c0,1.62-.38,3.04-1.14,4.27-.76,1.23-1.8,2.19-3.13,2.88s-2.8,1.03-4.42,1.03-3.09-.34-4.42-1.03c-1.33-.69-2.38-1.65-3.15-2.88s-1.16-2.65-1.16-4.27v-1.99c0-1.62.39-3.04,1.16-4.27s1.82-2.19,3.15-2.88c1.33-.69,2.8-1.03,4.42-1.03s3.09.34,4.42,1.03Zm-1.38,7.37c0-1.06-.28-1.89-.85-2.48-.57-.59-1.3-.89-2.19-.89s-1.63.3-2.21.89c-.58.59-.87,1.42-.87,2.48v1.56c0,1.06.29,1.89.87,2.5.58.6,1.31.91,2.21.91s1.62-.3,2.19-.91c.57-.6.85-1.43.85-2.5v-1.56Zm14.91-8h4.56v5.1h-4.56v17.08h-5.65v-33.99h5.65v11.8Z"/>
      <path class="cls-1" d="m184.24,140.03h-32.14v-5.14h32.14v5.14Zm-22.59-12.49h18.71v4.96h-24.4v-13.86h5.68v8.9Zm19.58,24.5h-25.26v-9.81h5.68v4.71h19.58v5.1Z"/>
      <path class="cls-1" d="m195.46,140.68h32.14v4.78h-13.25v6.95h-5.65v-6.95h-13.25v-4.78Zm18.86-20.3h10.97v4.49h-27.54v-4.49h10.93v-2.86h5.65v2.86Zm1.77,6.04c1.5,0,2.81.25,3.95.76s2.01,1.21,2.62,2.12.92,1.94.92,3.1-.31,2.15-.92,3.04-1.49,1.59-2.62,2.1c-1.13.51-2.45.76-3.95.76h-9.19c-1.5,0-2.81-.25-3.95-.76-1.13-.51-2.01-1.21-2.62-2.1s-.92-1.91-.92-3.04.31-2.19.92-3.1,1.49-1.61,2.62-2.12c1.13-.51,2.45-.76,3.95-.76h9.19Zm-.94,4.52h-7.28c-1.88,0-2.82.47-2.82,1.41,0,.43.22.79.67,1.05.45.27,1.16.4,2.15.4h7.28c.96,0,1.67-.13,2.12-.4.45-.26.67-.62.67-1.05,0-.94-.93-1.41-2.79-1.41Z"/>
      <path class="cls-1" d="m235.6,128.34h4.02v-8.51h5.07v26.93h-14.15v-26.93h5.07v8.51Zm0,5.03v8.32h4.02v-8.32h-4.02Zm19.26-3.51v-11.8h5.5v33.99h-5.5v-17.08h-2.46v16.22h-5.29v-32.61h5.29v11.29h2.46Z"/>
      <path class="cls-5" d="m305.28,135.4h-32.14v-4.42h32.14v4.42Zm-2.64,16.83h-25.95v-9.59h19.4v-1.56h-19.58v-3.95h25.23v9.38h-19.4v1.63h20.31v4.09Zm-25.63-33.81h24.03v4.16h-18.35v2.54h18.71v4.16h-24.4v-10.86Z"/>
      <path class="cls-5" d="m317.51,142.17c3.84-.22,7.33-.51,10.5-.87l.62,5c-2.49.36-5.21.63-8.16.81-2.96.18-5.72.27-8.31.27h-4.96l-.29-5.1h4.96v-11.04h5.65v10.93Zm2.32-4.27c.82-5.38,1.24-9.51,1.27-12.38h-12.34v-5.14h18.03v2.71c0,4.73-.46,9.93-1.38,15.6l-5.57-.8Zm15.93-7.71h4.2v5.14h-4.2v16.72h-5.68v-33.99h5.68v12.12Z"/>
      <path class="cls-5" d="m363.66,120.27h7.2v4.38h-20.12v-4.38h7.2v-2.53h5.72v2.53Zm5.9,11.55c0,1.88-.81,3.32-2.42,4.31-1.62.99-3.72,1.48-6.3,1.48s-4.69-.49-6.32-1.48c-1.63-.99-2.44-2.42-2.44-4.31v-.36c0-1.88.81-3.32,2.44-4.33,1.63-1,3.73-1.5,6.32-1.5s4.68.5,6.3,1.5c1.62,1,2.42,2.44,2.42,4.33v.36Zm9.19,20.23h-22.98v-12.88h22.98v12.88Zm-21.17-20.3c0,.51.3.9.9,1.2.6.29,1.39.43,2.35.43s1.75-.14,2.35-.43c.6-.29.9-.69.9-1.2v-.25c0-.48-.31-.87-.92-1.16-.62-.29-1.39-.43-2.33-.43s-1.72.14-2.33.43c-.62.29-.92.68-.92,1.16v.25Zm15.53,12.12h-11.69v3.37h11.69v-3.37Zm5.65-18.6h4.56v5.1h-4.56v7.2h-5.65v-19.51h5.65v7.2Z"/>
      <path class="cls-5" d="m394.1,120.38v3.69c0,4.15-.34,8.09-1.01,11.82-.68,3.73-1.76,7.67-3.26,11.82l-4.74-1.88c1.4-4.01,2.42-7.66,3.06-10.95.64-3.29.97-6.41,1-9.36h-2.75v-5.14h7.71Zm10.1,10.17v-11.98h4.96v32.61h-4.96v-15.49h-2.68c-.8,4.63-1.98,9.11-3.55,13.43l-4.78-1.92c1.42-3.96,2.5-7.8,3.22-11.55.72-3.74,1.1-7.12,1.12-10.13h-2.64v-5.14h7.6v3.69c0,2-.1,4.16-.29,6.48h1.99Zm6.73,21.5v-33.99h5.1v33.99h-5.1Z"/>
    </g>
  </g>
</svg>