<svg width="2086" height="2086" xmlns="http://www.w3.org/2000/svg" xmlns:xlink="http://www.w3.org/1999/xlink" xml:space="preserve" overflow="hidden"><defs><clipPath id="clip0"><rect x="272" y="-8" width="2086" height="2086"/></clipPath></defs><g clip-path="url(#clip0)" transform="translate(-272 8)"><path d="M272 1035C272 458.967 738.967-7.9999 1315-7.9999 1891.03-7.9999 2358 458.967 2358 1035 2358 1611.03 1891.03 2078 1315 2078 738.967 2078 272 1611.03 272 1035Z" fill="#F2F2F2" fill-rule="evenodd"/><path d="M1722 647C1722 872.885 1538.88 1056 1313 1056 1087.12 1056 904 872.885 904 647 904 421.115 1087.12 238 1313 238 1538.88 238 1722 421.115 1722 647Z" fill="#C8C6D8" fill-rule="evenodd"/><path d="M1289.02 1193C1441.87 1193 1581.97 1218.48 1709.34 1256.71 1887.66 1307.67 2065.98 1384.12 2206.09 1498.79L2233 1525.59 2229.89 1532.05C2053.29 1857.24 1708.87 2078 1312.91 2078 916.948 2078 572.528 1857.24 395.933 1532.05L378 1494.81 483.609 1425.13C601.227 1354.66 734.965 1294.93 868.704 1256.71 1008.81 1218.48 1148.92 1193 1289.02 1193Z" fill="#C8C6D8" fill-rule="evenodd"/></g></svg>